<svg width="392" height="364" viewBox="0 0 392 364" fill="none" xmlns="http://www.w3.org/2000/svg">
<g clip-path="url(#clip0)">
<path opacity="0.18" d="M63.622 354.881C93.3939 368.274 129.399 366.856 158.025 351.165C166.911 346.289 175.15 340.121 184.609 336.479C207.536 327.659 233.218 335.014 257.726 333.419C299.112 330.728 335.443 301.753 356.45 265.963C377.457 230.172 385.367 188.26 389.924 147.001C395.026 100.87 393.103 46.7517 356.49 18.2724C327.22 -4.5024 285.956 -2.23945 249.613 5.05618C213.27 12.3518 175.915 23.5644 139.855 15.0469C126.851 11.9864 114.291 6.38016 100.946 5.72406C77.144 4.54545 55.1791 19.4746 39.8869 37.7824C13.6476 69.1808 2.16669 110.829 0.306191 151.715C-1.55823 192.747 5.69928 233.998 6.79046 274.822C7.74034 310.585 30.7885 340.094 63.622 354.881Z" fill="#68E1FD"/>
<path d="M282.768 64.5332H123.256C110.314 64.5332 99.8232 75.0341 99.8232 87.9877V266.803C99.8232 279.757 110.314 290.258 123.256 290.258H282.768C295.71 290.258 306.201 279.757 306.201 266.803V87.9877C306.201 75.0341 295.71 64.5332 282.768 64.5332Z" fill="white"/>
<path d="M128.991 290.258L158.303 263.433C158.303 263.433 198.7 292.305 237.308 266.599C275.915 240.893 277.191 190.48 259.575 171.131C241.959 151.782 242.175 165.548 242.175 165.548C242.175 165.548 269.651 241.55 209.989 249.175C150.327 256.801 144.546 239.809 144.546 239.809L108.258 290.258H128.991Z" fill="url(#paint0_linear)"/>
<path d="M99.8232 134.382L133.524 154.265L190.336 115.3L253.157 157.282L306.201 108.248V91.9399L252.325 138.582L190.842 103.671L132.723 135.132L99.8232 123.747V134.382Z" fill="url(#paint1_linear)"/>
<path d="M53.7111 152.187L49.9234 147.417L90.98 114.75L132.723 135.132L190.697 96.4462L255.253 135.824L320.504 72.4928L324.74 76.8654L256.109 143.477L190.842 103.671L133.191 142.141L91.765 121.912L53.7111 152.187Z" fill="#68E1FD"/>
<path d="M82.8315 293.88C81.9046 294.807 81.1692 295.907 80.6676 297.119C80.1659 298.33 79.9077 299.629 79.9077 300.94C79.9077 302.251 80.1659 303.55 80.6676 304.761C81.1692 305.973 81.9046 307.073 82.8315 308C83.7574 308.928 84.8569 309.664 86.0672 310.166C87.2774 310.668 88.5747 310.926 89.8849 310.926C91.195 310.926 92.4923 310.668 93.7026 310.166C94.9128 309.664 96.0124 308.928 96.9383 308L159.371 248.103C161.241 246.23 162.292 243.691 162.292 241.043C162.292 238.395 161.241 235.856 159.371 233.983C157.5 232.111 154.963 231.06 152.318 231.06C149.672 231.06 147.135 232.111 145.264 233.983L82.8315 293.88Z" fill="#68E1FD"/>
<path d="M127.138 197.674C127.139 211.306 131.178 224.631 138.745 235.965C146.312 247.3 157.067 256.133 169.65 261.35C182.233 266.566 196.079 267.93 209.437 265.27C222.794 262.61 235.064 256.046 244.694 246.406C254.324 236.766 260.882 224.485 263.539 211.115C266.196 197.745 264.832 183.886 259.62 171.292C254.408 158.698 245.582 147.933 234.257 140.36C222.933 132.787 209.619 128.744 196 128.744C186.957 128.744 178.002 130.527 169.647 133.991C161.292 137.455 153.7 142.533 147.306 148.933C140.911 155.334 135.839 162.933 132.379 171.296C128.918 179.659 127.138 188.622 127.138 197.674ZM144.534 197.674C144.536 187.486 147.557 177.527 153.213 169.058C158.87 160.588 166.909 153.987 176.313 150.09C185.717 146.193 196.065 145.174 206.048 147.163C216.03 149.152 225.2 154.059 232.396 161.264C239.593 168.469 244.493 177.648 246.478 187.64C248.463 197.632 247.443 207.989 243.547 217.401C239.652 226.814 233.055 234.858 224.592 240.518C216.128 246.178 206.179 249.199 196 249.199C189.24 249.199 182.547 247.867 176.302 245.278C170.056 242.688 164.382 238.893 159.603 234.108C154.824 229.323 151.033 223.643 148.447 217.391C145.862 211.14 144.532 204.44 144.534 197.674Z" fill="#68E1FD"/>
<path d="M127.138 197.674C127.139 211.306 131.178 224.631 138.745 235.965C146.312 247.3 157.067 256.133 169.65 261.35C182.233 266.566 196.079 267.93 209.437 265.27C222.794 262.61 235.064 256.046 244.694 246.406C254.324 236.766 260.882 224.485 263.539 211.115C266.196 197.745 264.832 183.886 259.62 171.292C254.408 158.698 245.582 147.933 234.257 140.36C222.933 132.787 209.619 128.744 196 128.744C186.957 128.744 178.002 130.527 169.647 133.991C161.292 137.455 153.7 142.533 147.306 148.933C140.911 155.334 135.839 162.933 132.379 171.296C128.918 179.659 127.138 188.622 127.138 197.674ZM144.534 197.674C144.536 187.486 147.557 177.527 153.213 169.058C158.87 160.588 166.909 153.987 176.313 150.09C185.717 146.193 196.065 145.174 206.048 147.163C216.03 149.152 225.2 154.059 232.396 161.264C239.593 168.469 244.493 177.648 246.478 187.64C248.463 197.632 247.443 207.989 243.547 217.401C239.652 226.814 233.055 234.858 224.592 240.518C216.128 246.178 206.179 249.199 196 249.199C189.24 249.199 182.547 247.867 176.302 245.278C170.056 242.688 164.382 238.893 159.603 234.108C154.824 229.323 151.033 223.643 148.447 217.391C145.862 211.14 144.532 204.44 144.534 197.674Z" fill="url(#paint2_linear)"/>
<path d="M121.847 192.672C121.846 206.306 125.885 219.633 133.451 230.969C141.018 242.305 151.773 251.14 164.357 256.358C176.941 261.576 190.788 262.941 204.147 260.281C217.506 257.622 229.777 251.057 239.408 241.417C249.04 231.777 255.599 219.494 258.256 206.123C260.913 192.751 259.549 178.892 254.336 166.296C249.123 153.701 240.296 142.936 228.97 135.362C217.645 127.788 204.33 123.746 190.709 123.747C172.446 123.747 154.93 131.009 142.016 143.935C129.102 156.861 121.847 174.392 121.847 192.672ZM139.247 192.672C139.246 182.484 142.264 172.524 147.919 164.052C153.574 155.58 161.612 148.976 171.016 145.077C180.42 141.178 190.769 140.157 200.752 142.145C210.736 144.132 219.907 149.038 227.105 156.243C234.303 163.447 239.204 172.627 241.19 182.62C243.176 192.613 242.156 202.971 238.26 212.384C234.365 221.797 227.768 229.842 219.303 235.502C210.839 241.162 200.888 244.183 190.709 244.182C177.06 244.182 163.971 238.755 154.32 229.095C144.669 219.435 139.247 206.334 139.247 192.672Z" fill="#68E1FD"/>
<path d="M324.853 108.248L318.781 107.828L320.964 76.1897L285.81 81.8628L284.841 75.8479L327.562 68.9569L324.853 108.248Z" fill="#68E1FD"/>
<path d="M173.713 203.987H162.382V219.788H173.713V203.987Z" fill="#68E1FD"/>
<path d="M187.691 187.596H176.359V219.788H187.691V187.596Z" fill="#68E1FD"/>
<path d="M201.668 200.188H190.336V219.788H201.668V200.188Z" fill="#68E1FD"/>
<path d="M215.641 177.397H204.309V219.788H215.641V177.397Z" fill="#68E1FD"/>
<path d="M187.691 187.596H176.359V219.788H187.691V187.596Z" fill="url(#paint3_linear)"/>
<path d="M215.641 177.397H204.309V219.788H215.641V177.397Z" fill="url(#paint4_linear)"/>
<path d="M229.619 165.556H218.287V219.788H229.619V165.556Z" fill="#68E1FD"/>
<path d="M190.713 109.611C195.588 109.611 199.54 105.655 199.54 100.776C199.54 95.8958 195.588 91.9399 190.713 91.9399C185.837 91.9399 181.885 95.8958 181.885 100.776C181.885 105.655 185.837 109.611 190.713 109.611Z" fill="#68E1FD"/>
<path d="M190.713 109.611C195.588 109.611 199.54 105.655 199.54 100.776C199.54 95.8958 195.588 91.9399 190.713 91.9399C185.837 91.9399 181.885 95.8958 181.885 100.776C181.885 105.655 185.837 109.611 190.713 109.611Z" fill="url(#paint5_linear)"/>
<path d="M254.806 146.16C259.681 146.16 263.633 142.204 263.633 137.325C263.633 132.445 259.681 128.489 254.806 128.489C249.931 128.489 245.978 132.445 245.978 137.325C245.978 142.204 249.931 146.16 254.806 146.16Z" fill="#68E1FD"/>
<path d="M254.806 146.16C259.681 146.16 263.633 142.204 263.633 137.325C263.633 132.445 259.681 128.489 254.806 128.489C249.931 128.489 245.978 132.445 245.978 137.325C245.978 142.204 249.931 146.16 254.806 146.16Z" fill="url(#paint6_linear)"/>
<path d="M90.9957 127.915C95.871 127.915 99.8232 123.959 99.8232 119.08C99.8232 114.2 95.871 110.244 90.9957 110.244C86.1203 110.244 82.1681 114.2 82.1681 119.08C82.1681 123.959 86.1203 127.915 90.9957 127.915Z" fill="#68E1FD"/>
<path d="M90.9957 127.915C95.871 127.915 99.8232 123.959 99.8232 119.08C99.8232 114.2 95.871 110.244 90.9957 110.244C86.1203 110.244 82.1681 114.2 82.1681 119.08C82.1681 123.959 86.1203 127.915 90.9957 127.915Z" fill="url(#paint7_linear)"/>
<path d="M132.822 147.417C137.697 147.417 141.649 143.462 141.649 138.582C141.649 133.702 137.697 129.746 132.822 129.746C127.946 129.746 123.994 133.702 123.994 138.582C123.994 143.462 127.946 147.417 132.822 147.417Z" fill="#68E1FD"/>
<path d="M132.822 147.417C137.697 147.417 141.649 143.462 141.649 138.582C141.649 133.702 137.697 129.746 132.822 129.746C127.946 129.746 123.994 133.702 123.994 138.582C123.994 143.462 127.946 147.417 132.822 147.417Z" fill="url(#paint8_linear)"/>
</g>
<defs>
<linearGradient id="paint0_linear" x1="131.412" y1="128.799" x2="311.844" y2="474.308" gradientUnits="userSpaceOnUse">
<stop offset="0.01"/>
<stop offset="0.08" stop-opacity="0.69"/>
<stop offset="0.21" stop-opacity="0.32"/>
<stop offset="1" stop-opacity="0"/>
</linearGradient>
<linearGradient id="paint1_linear" x1="106366" y1="-1677.54" x2="106517" y2="63312.6" gradientUnits="userSpaceOnUse">
<stop offset="0.01"/>
<stop offset="0.08" stop-opacity="0.69"/>
<stop offset="0.21" stop-opacity="0.32"/>
<stop offset="1" stop-opacity="0"/>
</linearGradient>
<linearGradient id="paint2_linear" x1="29616.6" y1="14807.1" x2="268445" y2="292556" gradientUnits="userSpaceOnUse">
<stop offset="0.01"/>
<stop offset="0.08" stop-opacity="0.69"/>
<stop offset="0.21" stop-opacity="0.32"/>
<stop offset="1" stop-opacity="0"/>
</linearGradient>
<linearGradient id="paint3_linear" x1="4660.35" y1="12731.8" x2="15666.5" y2="20065.2" gradientUnits="userSpaceOnUse">
<stop offset="0.01"/>
<stop offset="0.08" stop-opacity="0.69"/>
<stop offset="0.21" stop-opacity="0.32"/>
<stop offset="1" stop-opacity="0"/>
</linearGradient>
<linearGradient id="paint4_linear" x1="5379.98" y1="15329.2" x2="18032.6" y2="21731.1" gradientUnits="userSpaceOnUse">
<stop offset="0.01"/>
<stop offset="0.08" stop-opacity="0.69"/>
<stop offset="0.21" stop-opacity="0.32"/>
<stop offset="1" stop-opacity="0"/>
</linearGradient>
<linearGradient id="paint5_linear" x1="7551.31" y1="3971.34" x2="15176.4" y2="8085.73" gradientUnits="userSpaceOnUse">
<stop offset="0.01"/>
<stop offset="0.08" stop-opacity="0.69"/>
<stop offset="0.21" stop-opacity="0.32"/>
<stop offset="1" stop-opacity="0"/>
</linearGradient>
<linearGradient id="paint6_linear" x1="10498.4" y1="5651.86" x2="18123.3" y2="9766.22" gradientUnits="userSpaceOnUse">
<stop offset="0.01"/>
<stop offset="0.08" stop-opacity="0.69"/>
<stop offset="0.21" stop-opacity="0.32"/>
<stop offset="1" stop-opacity="0"/>
</linearGradient>
<linearGradient id="paint7_linear" x1="2966.49" y1="4812.96" x2="10591.4" y2="8927.34" gradientUnits="userSpaceOnUse">
<stop offset="0.01"/>
<stop offset="0.08" stop-opacity="0.69"/>
<stop offset="0.21" stop-opacity="0.32"/>
<stop offset="1" stop-opacity="0"/>
</linearGradient>
<linearGradient id="paint8_linear" x1="4889.64" y1="5709.67" x2="12514.5" y2="9823.88" gradientUnits="userSpaceOnUse">
<stop offset="0.01"/>
<stop offset="0.08" stop-opacity="0.69"/>
<stop offset="0.21" stop-opacity="0.32"/>
<stop offset="1" stop-opacity="0"/>
</linearGradient>
<clipPath id="clip0">
<rect width="392" height="364" fill="white"/>
</clipPath>
</defs>
</svg>
