<svg width="179" height="135" viewBox="0 0 179 135" fill="none" xmlns="http://www.w3.org/2000/svg">
<path d="M105.914 45.8931C105.914 45.8931 110.797 46.121 117.934 52.108C125.072 58.095 127.681 62.2234 127.681 62.2234V38.5434C127.681 38.5434 118.619 28.0571 106.648 24.0673L105.914 45.8931Z" fill="#E6E7E8"/>
<path d="M127.681 62.4468C127.643 62.4475 127.606 62.4385 127.573 62.4204C127.54 62.4024 127.512 62.376 127.493 62.344C127.466 62.3038 124.808 58.1665 117.791 52.2777C110.774 46.389 105.95 46.1165 105.901 46.1165C105.843 46.1119 105.788 46.0853 105.749 46.0421C105.71 45.9989 105.689 45.9424 105.69 45.8841L106.402 24.0762C106.403 24.0414 106.413 24.0075 106.43 23.9771C106.447 23.9468 106.471 23.9211 106.5 23.9019C106.528 23.8808 106.561 23.867 106.595 23.8615C106.629 23.856 106.665 23.8592 106.697 23.8706C118.61 27.8337 127.757 38.311 127.851 38.4182C127.886 38.4575 127.905 38.5085 127.904 38.5612V62.2412C127.904 62.2896 127.889 62.3366 127.86 62.3753C127.831 62.4139 127.79 62.4422 127.743 62.4557L127.681 62.4468ZM106.142 45.6875C107.185 45.8037 111.723 46.5811 118.077 51.9426C123.617 56.5893 126.468 60.1636 127.475 61.5219V38.6461C126.71 37.7838 118.037 28.2224 106.858 24.3889L106.142 45.6875Z" fill="#231F20"/>
<path d="M54.5413 54.1589V33.0792C62.742 30.2356 71.4313 29.0657 80.0935 29.6389V49.8607C80.0935 49.8607 64.4534 50.2896 54.5413 54.1589Z" fill="#E6E7E8"/>
<path d="M54.5458 54.3822C54.5002 54.3815 54.4555 54.3692 54.416 54.3465C54.387 54.3245 54.3634 54.2961 54.3471 54.2636C54.3308 54.231 54.3222 54.1952 54.322 54.1588V33.0791C54.3216 33.0349 54.3347 32.9915 54.3595 32.9549C54.3842 32.9182 54.4195 32.8898 54.4608 32.8736C62.7007 30.0312 71.4251 28.8556 80.1249 29.4154C80.1811 29.4199 80.2335 29.4454 80.2717 29.4868C80.3098 29.5282 80.3309 29.5825 80.3307 29.6388V49.8562C80.3319 49.8851 80.3273 49.9139 80.317 49.941C80.3068 49.9681 80.2911 49.9928 80.2711 50.0136C80.251 50.0345 80.2269 50.0511 80.2003 50.0624C80.1736 50.0738 80.1449 50.0796 80.1159 50.0796C79.9593 50.0796 64.3863 50.5576 54.6084 54.3688C54.5882 54.3759 54.5671 54.3804 54.5458 54.3822ZM54.7695 33.2355V53.8371C63.9746 50.3432 77.9724 49.7132 79.8832 49.6417V29.8488C71.3709 29.3321 62.8396 30.4826 54.7695 33.2355Z" fill="#231F20"/>
<path d="M57.5844 50.6872C57.5358 50.6882 57.4884 50.6724 57.4501 50.6425C57.4218 50.6222 57.3989 50.5953 57.3833 50.5642C57.3677 50.533 57.3599 50.4986 57.3606 50.4638V35.4828C57.3606 35.4235 57.3842 35.3667 57.4262 35.3248C57.4681 35.2829 57.5251 35.2594 57.5844 35.2594C57.6434 35.2605 57.6996 35.2844 57.7413 35.3261C57.7831 35.3677 57.807 35.4239 57.8081 35.4828V50.16C59.8353 49.5255 71.2868 46.0495 75.5605 46.9341C75.5898 46.94 75.6178 46.9516 75.6427 46.9682C75.6676 46.9849 75.6889 47.0062 75.7056 47.0311C75.7222 47.056 75.7337 47.0839 75.7396 47.1133C75.7454 47.1426 75.7453 47.1728 75.7395 47.2022C75.7336 47.2315 75.722 47.2594 75.7053 47.2843C75.6886 47.3091 75.6672 47.3305 75.6423 47.3471C75.6174 47.3637 75.5894 47.3752 75.56 47.381C75.5306 47.3868 75.5003 47.3868 75.471 47.3809C70.996 46.456 57.7858 50.6425 57.6515 50.6872H57.5844Z" fill="#231F20"/>
<path d="M44.7409 65.8781C44.7409 65.8781 37.1334 69.0325 34.256 78.3526V59.7124C34.256 59.7124 34.0904 50.6782 44.7409 44.9414V65.8781Z" fill="#E6E7E8"/>
<path d="M34.2338 78.5761H34.2024C34.1491 78.5695 34.1 78.5436 34.0645 78.5032C34.029 78.4629 34.0096 78.4109 34.01 78.3572V59.7125C34.01 59.6231 34.01 50.4773 44.6113 44.7449C44.6456 44.7261 44.6841 44.7163 44.7232 44.7163C44.7623 44.7163 44.8007 44.7261 44.835 44.7449C44.868 44.765 44.8953 44.7932 44.9141 44.8269C44.9329 44.8605 44.9427 44.8985 44.9424 44.937V65.8738C44.9422 65.9179 44.9289 65.9609 44.9042 65.9975C44.8796 66.0341 44.8446 66.0625 44.8037 66.0793C42.3246 67.3204 40.1266 69.0559 38.3456 71.1784C36.5646 73.3009 35.2382 75.7654 34.4486 78.4197C34.4342 78.4653 34.4056 78.5051 34.3669 78.5332C34.3283 78.5614 34.2816 78.5764 34.2338 78.5761ZM44.4949 45.3213C34.4486 50.9151 34.4486 59.6187 34.4486 59.708V77.0079C36.26 72.1264 39.8426 68.1029 44.486 65.7353L44.4949 45.3213Z" fill="#231F20"/>
<path d="M34.2339 59.7124C34.2339 59.7124 36.1 67.8172 43.2823 70.5024V92.3149C43.2823 92.3149 35.0976 86.6585 34.2339 78.3526V59.7124Z" fill="white"/>
<path d="M43.283 92.5384C43.238 92.5387 43.1941 92.5246 43.1577 92.4982C43.0727 92.4401 34.8745 86.6898 34.0153 78.375V59.7125C34.0087 59.6532 34.0261 59.5938 34.0634 59.5473C34.1007 59.5008 34.1551 59.471 34.2144 59.4645C34.2737 59.458 34.3333 59.4753 34.3798 59.5125C34.4264 59.5498 34.4562 59.6041 34.4628 59.6633C34.4628 59.7393 36.3915 67.6833 43.3725 70.297C43.4142 70.3131 43.4501 70.3412 43.4756 70.3778C43.5012 70.4145 43.5151 70.4579 43.5157 70.5025V92.315C43.5154 92.3556 43.5039 92.3954 43.4827 92.43C43.4614 92.4647 43.431 92.4929 43.3949 92.5116C43.3609 92.5309 43.3221 92.5402 43.283 92.5384ZM34.4493 61.1601V78.3527C35.1877 85.4656 41.484 90.6797 43.0503 91.8726V70.6589C37.7787 68.6081 35.3443 63.613 34.4493 61.1601Z" fill="#231F20"/>
<path d="M130.871 77.2312C130.03 77.3965 93.5768 94.2093 93.5768 94.2093C93.5768 94.2093 79.3105 89.0131 78.9793 89.1784C78.6482 89.3438 114.914 74.2511 114.914 74.2511L130.871 77.2312Z" fill="white"/>
<path d="M93.5766 94.4282C93.5515 94.4329 93.5257 94.4329 93.5006 94.4282C87.9918 92.4221 79.5833 89.4286 79.006 89.4063V89.3839C78.836 89.4197 78.8181 89.3839 78.7733 89.2812C78.7502 89.2283 78.7485 89.1685 78.7685 89.1144C78.7885 89.0603 78.8287 89.016 78.8807 88.9908H78.9076C79.3998 88.812 114.47 74.2153 114.824 74.0679C114.866 74.0545 114.911 74.0545 114.954 74.0679L130.912 77.048C130.962 77.0589 131.008 77.0863 131.041 77.126C131.074 77.1657 131.093 77.2152 131.095 77.2669C131.096 77.3186 131.078 77.369 131.046 77.4091C131.013 77.4492 130.967 77.4764 130.916 77.4858C130.106 77.6914 106.201 88.6557 93.6706 94.464C93.6371 94.459 93.605 94.4468 93.5766 94.4282ZM79.7041 89.1248C80.9929 89.4867 84.3895 90.6171 93.5766 93.9636C97.3625 92.2166 125.099 79.4339 130.084 77.3071L114.945 74.4789L97.0448 81.927L84.6938 87.0606L80.6215 88.7495L79.7041 89.1248Z" fill="#231F20"/>
<path d="M93.5769 92.1317H93.5097L83.8124 89.1695C83.7686 89.1565 83.7299 89.1301 83.7018 89.094C83.6737 89.058 83.6576 89.0141 83.6558 88.9684C83.6535 88.9227 83.6652 88.8773 83.6891 88.8383C83.713 88.7992 83.7482 88.7683 83.79 88.7495L111.213 77.2758C111.263 77.2543 111.32 77.252 111.372 77.2693C111.424 77.2866 111.467 77.3223 111.495 77.3697L114.35 82.4006C114.362 82.4288 114.368 82.4592 114.368 82.4899C114.368 82.5206 114.362 82.551 114.35 82.5793C114.342 82.6095 114.326 82.6373 114.305 82.6606C114.284 82.6839 114.258 82.7019 114.229 82.7133L93.644 92.1362C93.6215 92.1379 93.5989 92.1364 93.5769 92.1317ZM84.5329 88.9148L93.5634 91.6715L113.84 82.3872L111.204 77.7226L84.5329 88.9148Z" fill="#D1D3D4"/>
<path d="M78.1335 19.4921C76.9919 19.7528 75.9222 20.2624 75.001 20.9844C74.106 21.6278 73.211 22.6286 73.5109 23.6652C73.6317 24.0628 73.9136 24.5186 73.663 24.8492C73.493 25.0681 73.1752 25.086 72.9023 25.1262C72.3744 25.2047 71.8784 25.4269 71.4687 25.7685C71.059 26.11 70.7515 26.5576 70.58 27.0622C70.4084 27.5668 70.3794 28.1089 70.4962 28.6288C70.613 29.1488 70.8711 29.6265 71.242 30.0097C70.7622 30.0367 70.293 30.1617 69.8635 30.3771C69.4339 30.5924 69.0532 30.8934 68.7449 31.2616C68.4366 31.6297 68.2073 32.0571 68.071 32.5173C67.9348 32.9774 67.8946 33.4606 67.9529 33.937C68.0535 34.4406 68.2236 34.9278 68.4586 35.3846C68.83 36.1575 69.2775 36.9662 69.1477 37.8107C68.2527 37.6275 67.4204 38.5702 67.4696 39.4817C67.5288 39.9348 67.698 40.3665 67.9624 40.7395C68.2267 41.1125 68.5783 41.4154 68.9866 41.6218C68.0916 41.7737 67.5502 42.8147 67.6978 43.7083C67.9134 44.6014 68.4729 45.3736 69.2551 45.8574C70.1592 46.4814 71.2 46.8797 72.2901 47.0188C73.3803 47.158 74.4879 47.034 75.5201 46.6572C75.6097 47.077 75.8063 47.4666 76.0908 47.7883C76.3754 48.11 76.7384 48.3529 77.1446 48.4935C77.9621 48.7612 78.8231 48.8719 79.6819 48.8196C81.2839 48.8196 83.0292 48.6767 84.2151 47.5999C84.4836 47.3586 84.7252 46.9699 84.5462 46.6572C84.3269 46.2729 83.6199 46.2684 83.5796 45.8306C84.7796 45.7548 85.931 45.3292 86.8911 44.6064C87.2402 44.3762 87.5373 44.0756 87.7631 43.724C87.9889 43.3723 88.1385 42.9774 88.2023 42.5645C88.2209 42.2323 88.1556 41.9007 88.0125 41.6002C87.8695 41.2997 87.6531 41.0398 87.3834 40.8444C88.0501 40.2591 88.7885 39.4102 88.435 38.6104C88.1486 37.9581 87.2536 37.5113 87.4415 36.8635C87.9268 36.6567 88.3533 36.3331 88.6828 35.9216C89.0123 35.5102 89.2347 35.0236 89.33 34.5055C89.4253 33.9873 89.3905 33.4537 89.2289 32.9522C89.0673 32.4507 88.7837 31.9969 88.4037 31.6315C89.0236 31.4038 89.5575 30.9896 89.9317 30.446C90.3058 29.9024 90.5017 29.2563 90.4924 28.5968C90.4831 27.9373 90.269 27.2969 89.8796 26.7641C89.4902 26.2313 88.9448 25.8323 88.3186 25.6221C88.5349 25.2686 88.6525 24.8637 88.6594 24.4495C88.6662 24.0353 88.562 23.6268 88.3575 23.2663C88.153 22.9058 87.8557 22.6065 87.4963 22.3993C87.137 22.1921 86.7287 22.0847 86.3138 22.088C86.4868 21.7981 86.5411 21.4528 86.4652 21.1239C86.3893 20.7951 86.1892 20.5082 85.9066 20.3232C85.3185 19.9785 84.6222 19.8669 83.9555 20.0104C82.8457 20.1713 82.0939 20.484 81.0915 20.0104C80.0891 19.5368 79.2523 19.2822 78.1335 19.4921Z" fill="white"/>
<path d="M79.4672 49.043C78.6501 49.0811 77.8332 48.9644 77.0596 48.699C76.6606 48.5564 76.2993 48.325 76.0031 48.0224C75.7069 47.7197 75.4837 47.3537 75.3502 46.952C74.314 47.2934 73.2127 47.3903 72.1327 47.2353C71.0527 47.0802 70.0233 46.6774 69.1255 46.0585C68.2979 45.5384 67.7069 44.7158 67.4787 43.7664C67.4079 43.3422 67.466 42.9065 67.6454 42.5155C67.8249 42.1245 68.1175 41.7961 68.4855 41.5726C68.1401 41.3413 67.85 41.0367 67.6358 40.6808C67.4215 40.3248 67.2884 39.9261 67.246 39.5129C67.2341 39.2188 67.2896 38.9259 67.4083 38.6565C67.5269 38.387 67.7056 38.1482 67.9306 37.9581C68.0656 37.829 68.2249 37.7277 68.3992 37.6603C68.5736 37.5928 68.7595 37.5604 68.9465 37.5649C68.9004 36.9051 68.6996 36.2654 68.3602 35.6973L68.2573 35.4829C68.0135 35.0077 67.8373 34.5009 67.7337 33.9772C67.6598 33.4692 67.6971 32.9513 67.8431 32.4592C67.9891 31.967 68.2404 31.5124 68.5795 31.1266C69.1422 30.4376 69.9382 29.9783 70.817 29.8354C70.5046 29.4004 70.3093 28.8927 70.2497 28.3608C70.19 27.8288 70.2681 27.2905 70.4765 26.7974C70.6848 26.3042 71.0165 25.8727 71.4396 25.5441C71.8628 25.2155 72.3634 25.0009 72.8934 24.9207H72.9829C73.2022 24.8894 73.4304 24.8626 73.5065 24.7375C73.5826 24.6124 73.5468 24.3711 73.4215 24.045C73.3857 23.9467 73.3499 23.8528 73.3185 23.7545C72.9337 22.4678 74.1375 21.3597 74.8937 20.8146C75.8376 20.0703 76.9374 19.548 78.1113 19.2866C79.2434 19.0766 80.1026 19.3268 81.2035 19.8362C81.9329 20.1668 82.5236 20.0596 83.2799 19.9166C83.4902 19.8764 83.705 19.8362 83.9377 19.8004C84.6611 19.6428 85.4174 19.7692 86.0499 20.1534C86.2326 20.2832 86.3876 20.4481 86.506 20.6383C86.6243 20.8285 86.7035 21.0404 86.7391 21.2614C86.7646 21.4679 86.7416 21.6775 86.6719 21.8735C87.0697 21.927 87.4492 22.0735 87.7796 22.301C88.11 22.5285 88.382 22.8306 88.5734 23.1828C88.7648 23.535 88.8703 23.9274 88.8813 24.3279C88.8922 24.7285 88.8083 25.126 88.6365 25.4881C89.2438 25.742 89.7645 26.166 90.1358 26.709C90.507 27.2519 90.7128 27.8905 90.7285 28.5477C90.7441 29.2049 90.5688 29.8526 90.2238 30.4125C89.8787 30.9724 89.3787 31.4206 88.7841 31.703C89.1263 32.1025 89.3715 32.5754 89.5008 33.085C89.63 33.5945 89.6399 34.127 89.5295 34.6409C89.4191 35.1549 89.1914 35.6365 88.8642 36.0483C88.5371 36.4601 88.1192 36.7911 87.643 37.0154C87.643 37.2477 87.8131 37.4622 88.0905 37.7794C88.3068 37.9896 88.4868 38.2342 88.623 38.5032C88.9273 39.1957 88.623 39.9776 87.728 40.831C87.9663 41.0519 88.1528 41.3227 88.2743 41.6239C88.3957 41.9251 88.4491 42.2493 88.4306 42.5735C88.3648 43.0187 88.2061 43.4452 87.9648 43.8254C87.7236 44.2056 87.4051 44.531 87.0299 44.7806C86.1461 45.4443 85.1057 45.8691 84.0093 46.0138L84.1659 46.0897C84.4006 46.1766 84.6034 46.3324 84.7477 46.5365C84.8319 46.7524 84.8406 46.9903 84.7724 47.2117C84.7041 47.4331 84.563 47.625 84.3718 47.7563C83.1546 48.8598 81.4004 49.0207 79.6865 49.0341L79.4672 49.043ZM75.5158 46.4472C75.5701 46.4466 75.6227 46.4658 75.6639 46.5012C75.705 46.5365 75.7319 46.5856 75.7395 46.6393C75.8202 47.0206 75.9993 47.3742 76.2591 47.6649C76.519 47.9557 76.8505 48.1736 77.2207 48.2969C78.0112 48.5543 78.8432 48.6604 79.673 48.6096C81.2975 48.6096 82.9532 48.4488 84.063 47.448C84.2733 47.2559 84.4568 46.9654 84.3494 46.7778C84.2449 46.6565 84.1108 46.5641 83.9601 46.5097C83.705 46.3891 83.3873 46.2327 83.3515 45.8663C83.3478 45.8064 83.367 45.7473 83.4052 45.701C83.4245 45.6777 83.4483 45.6586 83.4752 45.6448C83.5022 45.631 83.5316 45.6227 83.5618 45.6206C84.7182 45.5481 85.8277 45.1379 86.7525 44.4411C87.2 44.1149 87.9115 43.4402 87.9742 42.5601C87.9908 42.2664 87.9331 41.9734 87.8064 41.7079C87.6797 41.4424 87.4881 41.213 87.2492 41.041C87.2215 41.0218 87.1987 40.9965 87.1824 40.967C87.1661 40.9376 87.1568 40.9048 87.1552 40.8712C87.1529 40.8375 87.1586 40.8038 87.1719 40.7727C87.1851 40.7417 87.2054 40.7142 87.2313 40.6925C88.1263 39.9106 88.4619 39.2404 88.2248 38.6998C88.1065 38.4776 87.9557 38.2743 87.7773 38.0966C87.4551 37.7481 87.0881 37.3505 87.2313 36.8188C87.2403 36.786 87.2566 36.7556 87.2791 36.7301C87.3016 36.7045 87.3296 36.6844 87.3611 36.6713C87.8124 36.479 88.2091 36.1782 88.5155 35.7955C88.822 35.4129 89.0288 34.9604 89.1174 34.4785C89.2061 33.9967 89.1738 33.5004 89.0235 33.034C88.8732 32.5676 88.6096 32.1456 88.2561 31.8058C88.2284 31.779 88.2077 31.7459 88.196 31.7092C88.1843 31.6726 88.1819 31.6336 88.189 31.5958C88.1981 31.5594 88.2159 31.5258 88.2408 31.4978C88.2657 31.4698 88.2971 31.4482 88.3322 31.4349C88.9093 31.2238 89.4065 30.8389 89.755 30.3334C90.1036 29.828 90.2863 29.2269 90.2779 28.6133C90.2696 27.9997 90.0706 27.4038 89.7084 26.908C89.3462 26.4122 88.8387 26.041 88.2561 25.8455C88.2243 25.8352 88.1952 25.8178 88.1712 25.7946C88.1471 25.7713 88.1287 25.7429 88.1174 25.7115C88.1021 25.6818 88.0941 25.6488 88.0941 25.6154C88.0941 25.582 88.1021 25.5491 88.1174 25.5194C88.3104 25.2011 88.4155 24.8375 88.422 24.4655C88.4284 24.0935 88.3359 23.7264 88.154 23.4017C87.972 23.077 87.7071 22.8063 87.3863 22.6171C87.0654 22.4279 86.7 22.3271 86.3274 22.3248C86.2855 22.3244 86.2446 22.3125 86.2091 22.2904C86.1736 22.2684 86.1449 22.237 86.126 22.1997C86.1085 22.1618 86.1013 22.1199 86.1052 22.0783C86.1092 22.0367 86.124 21.9969 86.1484 21.9629C86.2144 21.8726 86.2612 21.7696 86.2859 21.6605C86.3105 21.5514 86.3124 21.4384 86.2916 21.3285C86.2372 21.0037 86.0572 20.7133 85.7904 20.5198C85.2505 20.2038 84.61 20.1063 84.0004 20.2472C83.7721 20.2785 83.5529 20.3187 83.3604 20.3544C82.5594 20.5064 81.8703 20.6359 81.0111 20.2383C79.9952 19.7691 79.2211 19.5368 78.1873 19.7245C77.0793 19.978 76.0415 20.4739 75.1488 21.1765C74.6208 21.5608 73.4259 22.5661 73.7437 23.6294C73.7705 23.7143 73.8018 23.7992 73.8376 23.8886C73.9336 24.0586 73.9833 24.2508 73.9818 24.446C73.9802 24.6412 73.9274 24.8326 73.8287 25.0011C73.7236 25.1115 73.5973 25.1996 73.4574 25.2603C73.3175 25.3209 73.1668 25.3528 73.0142 25.3541H72.9247C72.4384 25.4282 71.9817 25.6342 71.6047 25.9498C71.2277 26.2654 70.9448 26.6784 70.7868 27.1436C70.6289 27.6088 70.602 28.1084 70.7091 28.5879C70.8163 29.0673 71.0533 29.5081 71.3943 29.8622C71.425 29.8934 71.4457 29.933 71.4537 29.976C71.4617 30.019 71.4566 30.0634 71.439 30.1035C71.4211 30.1431 71.3922 30.1768 71.3557 30.2005C71.3192 30.2243 71.2767 30.2371 71.2332 30.2375C70.7867 30.2644 70.3504 30.3817 69.9508 30.5825C69.5513 30.7832 69.1968 31.0631 68.9092 31.4051C68.6215 31.7471 68.4066 32.144 68.2776 32.5716C68.1486 32.9992 68.1082 33.4486 68.1589 33.8923C68.2613 34.3748 68.43 34.8409 68.6601 35.2773L68.763 35.4873C69.1255 36.229 69.5014 36.9975 69.3716 37.833C69.3674 37.8629 69.3569 37.8915 69.3407 37.9169C69.3245 37.9424 69.303 37.964 69.2776 37.9804C69.2526 37.9983 69.2242 38.0106 69.1941 38.0168C69.1641 38.023 69.1331 38.0227 69.1031 38.0162C68.9436 37.9884 68.7799 37.9977 68.6247 38.0434C68.4695 38.0892 68.3269 38.17 68.2081 38.2798C68.0385 38.4245 67.9032 38.6049 67.8119 38.8081C67.7206 39.0113 67.6755 39.2322 67.68 39.4548C67.7352 39.8712 67.8922 40.2676 68.1373 40.6089C68.3824 40.9502 68.7079 41.226 69.0852 41.4118C69.1258 41.4346 69.1582 41.4695 69.178 41.5116C69.1978 41.5537 69.2039 41.6009 69.1955 41.6466C69.1871 41.6924 69.1647 41.7344 69.1313 41.7668C69.0979 41.7992 69.0551 41.8203 69.0091 41.8273C68.226 41.9614 67.783 42.9041 67.9083 43.6592C68.1159 44.4914 68.641 45.2096 69.3716 45.6608C70.2437 46.2708 71.2507 46.6609 72.3066 46.7979C73.3625 46.9348 74.436 46.8145 75.4352 46.4472C75.4619 46.4429 75.4891 46.4429 75.5158 46.4472Z" fill="#231F20"/>
<path d="M90.2967 47.5775C90.2967 47.5775 103.171 64.1089 103.936 64.2027C103.936 64.2027 117.527 62.2949 118.373 60.959C119.219 59.623 120.163 59.9939 120.163 59.9939C120.163 59.9939 120.995 58.3854 122.042 58.2067C123.089 58.028 126.365 59.9939 124.459 61.2672C122.552 62.5406 105.637 73.1787 103.341 73.42C96.0694 74.1706 89.1108 56.7591 89.9163 54.4492L90.2967 47.5775Z" fill="white"/>
<path d="M102.916 73.6479C100.75 73.6479 98.4143 72.1377 96.1231 69.247C92.1582 64.2473 89.1734 56.1604 89.7193 54.3911L90.0818 47.5641C90.0836 47.5185 90.0997 47.4745 90.1278 47.4385C90.1559 47.4024 90.1946 47.3761 90.2384 47.363C90.2817 47.3498 90.3279 47.35 90.3711 47.3636C90.4142 47.3771 90.4522 47.4034 90.4801 47.439C95.4518 53.8237 103.082 63.4029 103.977 63.9703C109.195 63.2376 117.616 61.7364 118.194 60.8428C118.905 59.7169 119.711 59.6811 120.073 59.7437C120.324 59.2969 121.08 58.1531 122.029 57.9565C122.888 57.7912 124.768 58.8054 125.197 59.8643C125.318 60.1491 125.324 60.4692 125.215 60.7585C125.106 61.0479 124.89 61.2843 124.611 61.4191C123.152 62.3797 105.816 73.3575 103.39 73.6077C103.233 73.63 103.075 73.6434 102.916 73.6479ZM90.498 48.1807L90.1668 54.4358C90.1709 54.4549 90.1709 54.4747 90.1668 54.4939C89.6746 55.9057 92.4043 63.8229 96.4855 68.961C98.1323 71.0341 100.661 73.4289 103.355 73.1698C105.543 72.9419 121.926 62.6702 124.387 61.0528C124.835 60.7624 124.964 60.4273 124.803 60.0341C124.441 59.1405 122.763 58.2871 122.118 58.3988C121.344 58.5463 120.61 59.6677 120.391 60.0877C120.366 60.1374 120.323 60.1757 120.27 60.1948C120.218 60.2139 120.16 60.2123 120.109 60.1905C120.082 60.1905 119.308 59.9135 118.579 61.084C117.684 62.4691 105.382 64.2116 103.981 64.4261C103.962 64.4305 103.942 64.4305 103.923 64.4261C103.162 64.3188 94.5568 53.4037 90.489 48.1851L90.498 48.1807Z" fill="#231F20"/>
<path d="M80.7559 43.1186C80.7559 43.1186 74.9384 40.7684 67.8321 46.8582C64.6325 49.5747 63.9836 52.5459 62.6411 55.593C63.7196 65.7799 67.4517 83.4014 67.4517 83.4014H91.7957C91.7957 83.4014 93.7603 68.626 94.4807 59.7214C94.9282 54.1812 92.3909 50.0349 91.0753 47.8367C88.8199 44.0256 80.7559 43.1186 80.7559 43.1186Z" fill="#6ECDBA"/>
<path d="M76.9612 44.4321C77.4087 45.2855 84.8238 64.6853 84.8238 64.6853V46.541L76.9612 44.4321Z" fill="#231F20"/>
<path d="M84.8282 64.9087C84.7828 64.909 84.7383 64.8955 84.7007 64.8699C84.6632 64.8444 84.6343 64.808 84.6179 64.7657C84.5463 64.5736 77.1983 45.3659 76.7643 44.5349C76.7443 44.4962 76.7362 44.4526 76.7407 44.4093C76.7453 44.3661 76.7624 44.3251 76.79 44.2914C76.8175 44.2577 76.8543 44.2328 76.8959 44.2197C76.9374 44.2066 76.9819 44.2059 77.0238 44.2177L84.8864 46.3221C84.9345 46.335 84.9768 46.3635 85.0068 46.4032C85.0368 46.4428 85.0527 46.4913 85.052 46.541V64.6853C85.0527 64.7376 85.0346 64.7885 85.0009 64.8287C84.9672 64.8689 84.9203 64.8957 84.8685 64.9042L84.8282 64.9087ZM77.355 44.7717C78.4111 47.3274 83.1277 59.6231 84.6045 63.4745V46.7108L77.355 44.7717Z" fill="#231F20"/>
<path d="M87.7412 28.2851L88.1081 29.5182C88.2692 30.0678 88.7436 30.2599 88.945 30.7156C89.1463 31.1714 89.0747 32.1588 89.1016 32.7173C89.2061 34.0748 89.1096 35.4403 88.8152 36.7697C88.6118 37.6343 88.16 38.4208 87.5153 39.0327C86.8707 39.6446 86.0611 40.0553 85.186 40.2145L85.0159 45.7234C85.0159 45.7234 84.9533 48.5427 81.5075 47.9976C80.5089 47.837 79.5679 47.4243 78.7738 46.7988C77.9796 46.1733 77.3587 45.3556 76.9699 44.4233L76.9206 37.2746C76.9206 36.5105 76.6163 35.0763 76.9206 34.3525C77.2249 33.6287 78.5451 33.1819 79.1268 32.4983C79.903 31.5964 80.3537 30.4605 80.4067 29.2725C81.0316 29.3005 81.6518 29.1529 82.1969 28.8464C82.7419 28.54 83.1899 28.087 83.4899 27.5389C83.9892 28.1464 84.706 28.5356 85.488 28.6241C86.2701 28.7125 87.0558 28.4931 87.6785 28.0125L87.7412 28.2851Z" fill="white"/>
<path d="M82.3311 48.2925C82.0312 48.2912 81.7319 48.2658 81.4361 48.2165C80.3977 48.0562 79.4185 47.6311 78.5929 46.9822C77.7674 46.3333 77.1236 45.4827 76.7239 44.5126C76.7196 44.4875 76.7196 44.4618 76.7239 44.4367L76.6746 37.2612C76.6746 37.0378 76.6433 36.7429 76.6165 36.4301C76.5404 35.6706 76.4554 34.8083 76.6702 34.2587C76.8626 33.7806 77.4085 33.4277 77.9366 33.0926C78.2972 32.8881 78.6271 32.6339 78.9166 32.3375C79.6627 31.4761 80.0948 30.388 80.1428 29.2502C80.1438 29.2207 80.1506 29.1917 80.1629 29.1648C80.1752 29.138 80.1927 29.1138 80.2144 29.0938C80.2354 29.0717 80.2614 29.0549 80.2901 29.0448C80.3189 29.0347 80.3497 29.0316 80.38 29.0357C80.9619 29.0618 81.5395 28.924 82.0467 28.638C82.5539 28.352 82.9703 27.9294 83.2484 27.4183C83.2663 27.3847 83.2926 27.3563 83.3247 27.3359C83.3569 27.3156 83.3939 27.3039 83.4319 27.3021C83.4696 27.2996 83.5073 27.3065 83.5416 27.3221C83.576 27.3377 83.6059 27.3615 83.6288 27.3915C84.0903 27.9508 84.7509 28.3098 85.4718 28.3931C86.1928 28.4764 86.918 28.2775 87.4952 27.8383C87.5237 27.8138 87.5579 27.7969 87.5946 27.7891C87.6314 27.7813 87.6695 27.7828 87.7055 27.7936C87.7406 27.8051 87.7724 27.825 87.7981 27.8514C87.8238 27.8779 87.8427 27.9102 87.8532 27.9455L87.9382 28.227L88.3052 29.4602C88.389 29.6893 88.5272 29.8947 88.7079 30.0589C88.8906 30.2208 89.0423 30.4146 89.1554 30.6308C89.3158 31.1417 89.3735 31.6791 89.3255 32.2124C89.3255 32.3956 89.3255 32.5654 89.3255 32.7128C89.4341 34.0928 89.336 35.4812 89.0346 36.8322C88.8223 37.7053 88.3708 38.502 87.7306 39.1333C87.0904 39.7646 86.2868 40.2055 85.4099 40.4066L85.2398 45.7368C85.2195 46.1054 85.1259 46.4662 84.9646 46.7984C84.8032 47.1305 84.5774 47.4273 84.3001 47.6714C83.7399 48.1082 83.0409 48.3287 82.3311 48.2925ZM77.1893 44.392C77.5729 45.2741 78.1721 46.0461 78.9321 46.637C79.692 47.2279 80.5884 47.6189 81.539 47.7742C82.6085 47.9484 83.4409 47.7742 84.0047 47.3274C84.4655 46.9135 84.7465 46.3364 84.7878 45.719L84.9624 40.1921C84.9648 40.1385 84.9858 40.0875 85.0217 40.0476C85.0576 40.0077 85.1062 39.9814 85.1593 39.9732C85.988 39.8244 86.755 39.4367 87.3657 38.858C87.9764 38.2792 88.4041 37.5346 88.5961 36.7161C88.8871 35.4074 88.9807 34.0625 88.8735 32.7262C88.8735 32.5743 88.8735 32.3956 88.8735 32.2035C88.9152 31.7348 88.8712 31.2624 88.7437 30.8095C88.6561 30.6427 88.5411 30.4917 88.4036 30.3627C88.1719 30.1496 87.9966 29.8825 87.8935 29.5853L87.531 28.37C86.9063 28.7559 86.1701 28.9216 85.44 28.8406C84.7099 28.7596 84.0281 28.4366 83.5035 27.9232C83.1763 28.3928 82.7418 28.7779 82.236 29.0467C81.7302 29.3155 81.1677 29.4603 80.5948 29.4691C80.4869 30.6264 80.0173 31.7205 79.2522 32.5966C78.9462 32.9447 78.5903 33.2458 78.1961 33.4902C77.7486 33.7896 77.243 34.0979 77.1043 34.4464C76.9722 35.0927 76.9631 35.7581 77.0774 36.4078C77.1087 36.7295 77.14 37.0378 77.14 37.3014L77.1893 44.392Z" fill="#231F20"/>
<path d="M78.8315 34.4329C78.8315 34.4329 77.2474 30.5548 75.2515 32.9049C73.2557 35.255 75.972 37.9894 77.6815 37.8196" fill="white"/>
<path d="M77.5204 38.0474C76.4956 38.0474 75.2829 37.2253 74.6877 36.095C74.3911 35.5694 74.2694 34.9634 74.3402 34.3643C74.411 33.7652 74.6706 33.2041 75.0815 32.7619C75.623 32.1274 76.1958 31.8683 76.7865 31.9443C78.129 32.1587 79.0016 34.2586 79.024 34.348C79.0386 34.3755 79.0473 34.4058 79.0495 34.4368C79.0517 34.4679 79.0474 34.4991 79.0369 34.5284C79.0263 34.5577 79.0097 34.5845 78.9882 34.607C78.9666 34.6295 78.9406 34.6473 78.9118 34.6592C78.8829 34.6711 78.8519 34.6768 78.8207 34.676C78.7896 34.6752 78.7589 34.668 78.7307 34.6546C78.7025 34.6413 78.6774 34.6223 78.657 34.5987C78.6366 34.5751 78.6214 34.5476 78.6123 34.5178C78.6123 34.5178 77.7978 32.5608 76.7015 32.3866C76.2764 32.3196 75.8423 32.543 75.4082 33.0523C75.0576 33.4282 74.836 33.9059 74.7757 34.4161C74.7153 34.9262 74.8193 35.4423 75.0726 35.8894C75.6141 36.9171 76.7641 37.6766 77.6457 37.5962C77.705 37.5903 77.7643 37.6081 77.8105 37.6458C77.8566 37.6835 77.8859 37.738 77.8918 37.7972C77.8978 37.8565 77.8799 37.9157 77.8421 37.9617C77.8043 38.0078 77.7498 38.037 77.6905 38.043C77.6339 38.0483 77.5771 38.0498 77.5204 38.0474Z" fill="#231F20"/>
<path d="M86.0453 36.8545C85.6502 36.8458 85.2577 36.7872 84.8773 36.6803C84.818 36.6631 84.7679 36.6231 84.7381 36.569C84.7083 36.515 84.7012 36.4514 84.7184 36.3921C84.7357 36.3329 84.7757 36.2829 84.8299 36.2531C84.884 36.2234 84.9477 36.2163 85.0071 36.2335C85.3024 36.3229 86.1661 36.506 86.6091 36.2916C86.7121 36.0682 86.0229 34.7323 85.1145 33.4544C85.081 33.4056 85.0678 33.3456 85.0778 33.2872C85.0879 33.2288 85.1203 33.1766 85.1682 33.1417C85.1922 33.1245 85.2194 33.1123 85.2482 33.1057C85.2771 33.0991 85.3069 33.0983 85.336 33.1033C85.3651 33.1083 85.393 33.119 85.4179 33.1348C85.4429 33.1506 85.4645 33.1711 85.4814 33.1953C85.8887 33.7761 87.2133 35.7152 87.0298 36.4122C87.014 36.472 86.986 36.5279 86.9475 36.5764C86.909 36.6249 86.8608 36.6648 86.806 36.6937C86.5673 36.8023 86.3076 36.8572 86.0453 36.8545Z" fill="#231F20"/>
<path d="M84.676 38.5256C84.3542 38.526 84.0337 38.484 83.7228 38.4004C82.7855 38.1333 81.9746 37.5407 81.4361 36.7294C81.4244 36.7022 81.4182 36.6729 81.418 36.6432C81.4177 36.6136 81.4234 36.5842 81.4346 36.5567C81.4459 36.5293 81.4625 36.5043 81.4835 36.4834C81.5045 36.4624 81.5295 36.4458 81.5569 36.4346C81.6117 36.4135 81.6724 36.4143 81.7266 36.4367C81.7807 36.4592 81.8241 36.5016 81.8478 36.5552C82.3487 37.2601 83.0823 37.7663 83.9198 37.9849C84.9982 38.253 86.1259 37.9447 87.2671 37.0913C87.3142 37.0594 87.3718 37.0467 87.428 37.0557C87.4842 37.0646 87.5349 37.0947 87.5697 37.1397C87.6045 37.1847 87.6208 37.2413 87.6153 37.2979C87.6098 37.3545 87.5829 37.4068 87.54 37.4443C86.7327 38.1133 85.7247 38.4938 84.676 38.5256Z" fill="#231F20"/>
<path d="M85.1862 40.2144C85.1862 40.2144 82.2282 40.4914 80.55 40.0044C80.55 40.0044 82.2595 44.4053 85.0609 44.4723L85.1862 40.2144Z" fill="#231F20"/>
<path d="M85.0607 44.6958C82.143 44.6243 80.4157 40.2725 80.3441 40.0848C80.3288 40.0466 80.3249 40.0048 80.3329 39.9643C80.3408 39.9239 80.3602 39.8867 80.3888 39.857C80.4173 39.8263 80.4535 39.804 80.4937 39.7922C80.5339 39.7804 80.5765 39.7796 80.617 39.79C82.2325 40.2591 85.1413 39.9955 85.1726 39.991C85.2038 39.9887 85.2351 39.9931 85.2644 40.0039C85.2937 40.0147 85.3204 40.0317 85.3426 40.0536C85.3673 40.0741 85.3866 40.1003 85.3991 40.1298C85.4115 40.1593 85.4167 40.1914 85.4142 40.2234L85.2889 44.4768C85.2883 44.5062 85.282 44.5351 85.2702 44.562C85.2584 44.5889 85.2414 44.6132 85.2202 44.6335C85.1991 44.6538 85.1741 44.6698 85.1467 44.6805C85.1193 44.6912 85.0901 44.6964 85.0607 44.6958ZM80.9348 40.3261C81.4136 41.3537 82.8322 44.0032 84.8459 44.2311L84.9578 40.4557C83.6164 40.5735 82.2657 40.53 80.9348 40.3261Z" fill="#231F20"/>
<path d="M83.3463 33.6787C83.5859 33.6739 83.7734 33.33 83.765 32.9106C83.7566 32.4912 83.5555 32.1551 83.3158 32.1599C83.0761 32.1647 82.8886 32.5086 82.897 32.928C82.9054 33.3474 83.1066 33.6835 83.3463 33.6787Z" fill="#231F20"/>
<path d="M87.336 33.599C87.5757 33.5942 87.7632 33.2503 87.7548 32.8309C87.7464 32.4115 87.5453 32.0754 87.3056 32.0802C87.0659 32.085 86.8784 32.4289 86.8868 32.8483C86.8952 33.2677 87.0963 33.6038 87.336 33.599Z" fill="#231F20"/>
<path d="M82.331 34.4195C81.0287 34.4195 80.9616 34.3302 80.9034 34.2587C80.8453 34.1872 80.7334 34.0353 80.6931 31.6449C80.6931 31.5872 80.7154 31.5317 80.7555 31.49C80.7955 31.4484 80.8501 31.4238 80.9079 31.4215C85.2755 31.2071 85.4098 31.2473 85.4545 31.2607C85.502 31.2763 85.5431 31.307 85.5714 31.3482C85.5997 31.3894 85.6136 31.4387 85.6111 31.4886L85.4321 34.138C85.4278 34.1926 85.4035 34.2437 85.3639 34.2816C85.3243 34.3195 85.2721 34.3416 85.2173 34.3436C83.8525 34.3838 82.9351 34.4195 82.331 34.4195ZM81.2391 33.937C81.6597 33.9906 83.3692 33.9638 84.9757 33.9012L85.1278 31.6673C84.479 31.6673 82.51 31.7611 81.1227 31.8281C81.125 32.5326 81.1639 33.2365 81.2391 33.937Z" fill="#231F20"/>
<path d="M90.5383 34.3435H86.4124C86.3832 34.3441 86.3542 34.3389 86.3271 34.3282C86.3 34.3174 86.2753 34.3014 86.2544 34.281C86.2336 34.2606 86.217 34.2363 86.2057 34.2094C86.1944 34.1826 86.1886 34.1537 86.1886 34.1246L86.1663 31.4706C86.1662 31.4122 86.1892 31.356 86.2302 31.3142C86.2712 31.2725 86.327 31.2484 86.3855 31.2472C90.6144 31.207 90.7397 31.2472 90.7844 31.2472C90.8319 31.2628 90.873 31.2936 90.9013 31.3348C90.9296 31.3759 90.9436 31.4252 90.9411 31.4751L90.7621 34.1246C90.7621 34.1537 90.7563 34.1826 90.745 34.2094C90.7337 34.2363 90.7171 34.2606 90.6963 34.281C90.6754 34.3014 90.6507 34.3174 90.6236 34.3282C90.5965 34.3389 90.5675 34.3441 90.5383 34.3435ZM86.6361 33.8967H90.3325L90.4801 31.6628C89.8536 31.6628 87.9563 31.6628 86.6138 31.6628L86.6361 33.8967Z" fill="#231F20"/>
<path d="M86.3899 32.8334H85.3651C85.3058 32.8334 85.2489 32.8098 85.2069 32.768C85.1649 32.7261 85.1414 32.6692 85.1414 32.61C85.1414 32.5507 85.1649 32.4939 85.2069 32.452C85.2489 32.4101 85.3058 32.3866 85.3651 32.3866H86.3899C86.4492 32.3866 86.5061 32.4101 86.5481 32.452C86.5901 32.4939 86.6136 32.5507 86.6136 32.61C86.6136 32.6692 86.5901 32.7261 86.5481 32.768C86.5061 32.8098 86.4492 32.8334 86.3899 32.8334Z" fill="#231F20"/>
<path d="M72.9559 59.7124C72.9559 59.7124 71.7253 71.8563 72.3249 74.7738L92.7354 77.6422C92.7354 77.6422 97.9667 77.4367 100.486 78.3348C102.03 78.8843 104.831 81.2925 104.326 82.0476C103.82 82.8027 102.437 83.7454 101.193 83.388C99.9491 83.0306 96.4497 81.9181 96.4497 81.9181C96.4497 81.9181 99.1749 84.3799 97.5371 84.2146C95.8992 84.0493 94.0869 82.901 94.0869 82.901C94.0869 82.901 82.7472 85.0501 75.4888 84.6882C66.5388 84.2414 62.7305 82.1236 61.7192 76.838C60.7078 71.5525 61.7774 57.76 62.6634 55.593" fill="white"/>
<path d="M77.2652 84.9563C76.6432 84.9563 76.0391 84.9563 75.4752 84.9116C66.3149 84.438 62.5291 82.2621 61.4998 76.8693C60.4706 71.4766 61.5848 57.6304 62.4575 55.4948C62.4682 55.4675 62.4844 55.4426 62.505 55.4217C62.5256 55.4008 62.5502 55.3842 62.5773 55.373C62.6044 55.3617 62.6336 55.356 62.6629 55.3562C62.6923 55.3564 62.7214 55.3625 62.7483 55.3741C62.7757 55.3849 62.8006 55.401 62.8215 55.4216C62.8425 55.4422 62.8591 55.4667 62.8704 55.4938C62.8816 55.5209 62.8873 55.55 62.8871 55.5793C62.8869 55.6086 62.8808 55.6376 62.8692 55.6645C62.0144 57.7689 60.936 71.5212 61.9384 76.7845C62.9184 81.9136 66.5924 83.9912 75.4976 84.4514C82.6576 84.8178 93.9346 82.7045 94.0465 82.6643C94.1022 82.6544 94.1596 82.6655 94.2076 82.6955C94.2076 82.6955 95.9976 83.8125 97.5594 83.9734C97.6529 84.0004 97.7522 84.0004 97.8458 83.9734C97.895 83.7723 97.1656 82.8653 96.3019 82.0879C96.2628 82.0535 96.2369 82.0066 96.2287 81.9552C96.2206 81.9038 96.2306 81.8512 96.2571 81.8064C96.2832 81.7623 96.3237 81.7285 96.3717 81.7106C96.4198 81.6927 96.4726 81.6918 96.5212 81.7081C96.5525 81.7081 100.012 82.8296 101.251 83.1691C102.374 83.4774 103.681 82.6196 104.156 81.9092C104.172 81.8695 104.181 81.827 104.181 81.7841C104.181 81.7411 104.172 81.6986 104.156 81.659C103.865 80.7654 101.744 78.9782 100.432 78.5314C97.98 77.6378 92.8248 77.8523 92.7667 77.8523L72.3159 74.9839C72.2698 74.9773 72.227 74.9565 72.1933 74.9245C72.1596 74.8925 72.1368 74.8508 72.1279 74.8052C71.5283 71.8876 72.7052 60.1727 72.7544 59.6767C72.7574 59.6474 72.7661 59.6189 72.78 59.593C72.794 59.567 72.8129 59.544 72.8358 59.5253C72.8587 59.5067 72.885 59.4927 72.9132 59.4841C72.9415 59.4756 72.9712 59.4728 73.0006 59.4757C73.03 59.4786 73.0585 59.4873 73.0845 59.5012C73.1105 59.5152 73.1335 59.5341 73.1522 59.5569C73.1709 59.5797 73.1849 59.606 73.1935 59.6342C73.202 59.6625 73.2049 59.6921 73.2019 59.7214C73.2019 59.8376 72.025 71.4587 72.5396 74.5639L92.7935 77.41C92.968 77.41 98.0561 77.2089 100.589 78.1114C101.931 78.5895 104.223 80.4348 104.585 81.5205C104.628 81.6223 104.647 81.7328 104.639 81.843C104.631 81.9533 104.597 82.0602 104.54 82.1549C103.977 82.9993 102.486 83.9734 101.144 83.6025C100.298 83.3657 98.4275 82.7804 97.3043 82.423C97.8682 83.0172 98.441 83.7634 98.2575 84.1655C98.159 84.3844 97.9129 84.4738 97.5281 84.4336C96.2982 84.2326 95.1198 83.7924 94.0599 83.1379C93.071 83.33 84.0538 84.9563 77.2652 84.9563Z" fill="#231F20"/>
<path d="M72.9559 59.9359H72.9335C72.8752 59.925 72.8234 59.8918 72.7892 59.8435C72.7549 59.7951 72.7409 59.7353 72.7501 59.6768L74.3476 50.8124C74.3583 50.7531 74.3921 50.7006 74.4416 50.6662C74.4912 50.6318 74.5523 50.6185 74.6116 50.6292C74.671 50.6399 74.7237 50.6736 74.7581 50.7231C74.7925 50.7725 74.8058 50.8336 74.7951 50.8928L73.202 59.7572C73.1902 59.812 73.1586 59.8605 73.1132 59.8935C73.0677 59.9264 73.0118 59.9415 72.9559 59.9359Z" fill="#231F20"/>
<path d="M105.377 91.4571V59.2567C105.377 59.2567 133.23 58.1889 144.757 46.675V79.9566C144.757 79.9566 133.23 89.3393 105.377 91.4571Z" fill="#6ECDBA"/>
<path d="M105.377 91.6805C105.321 91.6796 105.267 91.6591 105.225 91.6224C105.203 91.601 105.185 91.5753 105.173 91.5469C105.16 91.5185 105.154 91.488 105.154 91.4571V59.2567C105.154 59.199 105.176 59.1434 105.216 59.1018C105.256 59.0602 105.311 59.0356 105.368 59.0333C105.646 59.0333 133.266 57.8359 144.587 46.5231C144.62 46.4927 144.66 46.472 144.703 46.4633C144.747 46.4547 144.792 46.4583 144.833 46.4739C144.875 46.491 144.91 46.5201 144.935 46.5576C144.96 46.595 144.973 46.6391 144.972 46.6839V79.9566C144.973 79.9903 144.965 80.0236 144.95 80.0539C144.936 80.0841 144.914 80.1105 144.887 80.1309C144.775 80.2247 132.997 89.585 105.395 91.6983L105.377 91.6805ZM105.601 59.4667V91.2158C131.69 89.1695 143.437 80.6581 144.534 79.8315V47.2156C133.404 57.7778 108.197 59.3371 105.601 59.4667Z" fill="#231F20"/>
<path d="M47.7795 103.378V81.297C47.7795 81.297 60.1529 89.4599 78.657 87.6415V109.186C78.657 109.186 66.5387 112.845 47.7795 103.378Z" fill="white"/>
<path d="M72.2042 110.075C66.7805 110.075 58.2512 108.913 47.6767 103.579C47.6405 103.559 47.6103 103.53 47.5891 103.494C47.5678 103.459 47.5564 103.419 47.5559 103.378V81.2971C47.5563 81.257 47.5672 81.2177 47.5876 81.1832C47.6081 81.1486 47.6373 81.1201 47.6723 81.1005C47.7066 81.0795 47.7461 81.0685 47.7864 81.0685C47.8266 81.0685 47.8661 81.0795 47.9005 81.1005C48.0258 81.1809 60.4305 89.2008 78.6303 87.4092C78.6608 87.4063 78.6916 87.4095 78.7208 87.4187C78.75 87.4279 78.7771 87.4429 78.8004 87.4628C78.8227 87.4842 78.8406 87.5099 78.8528 87.5382C78.8651 87.5666 78.8716 87.5972 78.872 87.6281V109.172C78.8722 109.22 78.8572 109.267 78.829 109.305C78.8008 109.344 78.761 109.373 78.7153 109.387C78.6616 109.405 76.3346 110.075 72.2042 110.075ZM48.0034 103.244C65.2456 111.902 76.9432 109.378 78.4334 109.003V87.8738C61.9028 89.4242 50.1425 82.9591 48.0034 81.6858V103.244Z" fill="#231F20"/>
<path d="M111.866 85.5191C111.81 85.5191 111.756 85.4985 111.714 85.4611C111.692 85.4397 111.674 85.414 111.661 85.3856C111.649 85.3572 111.643 85.3267 111.642 85.2957V62.3574C111.642 62.3018 111.663 62.2481 111.7 62.2068C111.737 62.1655 111.788 62.1396 111.844 62.134C113.28 61.9955 118.834 61.3298 118.892 61.3253C118.923 61.3218 118.955 61.3247 118.985 61.3339C119.015 61.3432 119.043 61.3585 119.066 61.3789C119.09 61.3992 119.11 61.4246 119.123 61.4531C119.136 61.4817 119.143 61.5128 119.142 61.5442V84.0447C119.142 84.0888 119.129 84.1319 119.104 84.1685C119.08 84.205 119.045 84.2335 119.004 84.2503C116.936 85.1438 112.085 85.5057 111.88 85.5191H111.866ZM112.09 62.5585V85.0545C113.083 84.9696 116.887 84.6077 118.695 83.8973V61.7989C117.625 61.924 113.553 62.4065 112.076 62.5585H112.09Z" fill="#231F20"/>
<path d="M123.273 83.1736C123.22 83.1735 123.169 83.1544 123.13 83.12C123.105 83.0987 123.086 83.0726 123.072 83.0434C123.058 83.0142 123.05 82.9825 123.049 82.9502V65.1455C123.049 65.0927 123.069 65.0418 123.103 65.0017C123.137 64.9616 123.185 64.935 123.237 64.9266C125.632 64.4958 127.979 63.8267 130.24 62.9294C130.273 62.9118 130.309 62.9026 130.346 62.9026C130.382 62.9026 130.418 62.9118 130.451 62.9294C130.481 62.9504 130.506 62.9784 130.523 63.0111C130.54 63.0438 130.549 63.0802 130.549 63.1171V80.542C130.549 80.5826 130.537 80.6224 130.516 80.6571C130.495 80.6917 130.464 80.7199 130.428 80.7386C128.184 81.8855 125.786 82.7055 123.309 83.1736H123.273ZM123.497 65.3332V82.6821C125.79 82.2192 128.011 81.4529 130.102 80.4035V63.47C127.964 64.2938 125.754 64.9176 123.501 65.3332H123.497Z" fill="#231F20"/>
<path d="M134.358 79.1747C134.308 79.1757 134.259 79.16 134.219 79.1301C134.192 79.1086 134.171 79.0813 134.156 79.0504C134.141 79.0195 134.134 78.9856 134.134 78.9513V66.3071C134.134 66.2576 134.151 66.2097 134.182 66.1709C134.213 66.132 134.256 66.1045 134.304 66.0926C136.527 65.5338 138.644 64.6146 140.569 63.3717C140.604 63.3508 140.644 63.3398 140.685 63.3398C140.726 63.3398 140.766 63.3508 140.802 63.3717C140.838 63.3907 140.869 63.4196 140.891 63.4551C140.912 63.4906 140.923 63.5313 140.922 63.5727V76.3599C140.922 76.3973 140.913 76.4341 140.895 76.4669C140.877 76.4997 140.851 76.5274 140.819 76.5476C138.82 77.7285 136.663 78.6177 134.411 79.1881L134.358 79.1747ZM134.581 66.4814V78.6654C136.646 78.1167 138.628 77.2947 140.475 76.2214V63.9659C138.644 65.0874 136.658 65.9349 134.581 66.4814Z" fill="#231F20"/>
<path d="M132.147 58.1219C132.087 58.129 132.028 58.1123 131.981 58.0754C131.934 58.0386 131.903 57.9846 131.896 57.9253C131.889 57.8661 131.906 57.8064 131.943 57.7595C131.98 57.7126 132.034 57.6822 132.093 57.6751C132.142 57.6751 137.226 56.3347 141.043 53.4574C141.091 53.423 141.15 53.4084 141.209 53.4167C141.267 53.425 141.32 53.4556 141.356 53.5021C141.392 53.5495 141.407 53.609 141.399 53.6677C141.39 53.7263 141.359 53.7793 141.312 53.8148C137.409 56.7637 132.245 58.0951 132.196 58.1085L132.147 58.1219Z" fill="white"/>
<path d="M136 59.288C135.94 59.2998 135.879 59.2877 135.828 59.2541C135.778 59.2206 135.743 59.1685 135.731 59.1093C135.719 59.05 135.732 58.9885 135.765 58.9382C135.799 58.8879 135.851 58.853 135.91 58.8412L136.693 58.4927C138.258 57.8924 139.724 57.0627 141.043 56.0309C141.089 56.0005 141.144 55.988 141.199 55.9958C141.253 56.0036 141.303 56.0311 141.338 56.073C141.373 56.115 141.392 56.1685 141.391 56.2234C141.389 56.2782 141.367 56.3306 141.329 56.3704C139.978 57.4285 138.478 58.2821 136.877 58.9037L136.094 59.2478C136.066 59.2677 136.034 59.2814 136 59.288Z" fill="white"/>
<path d="M41.3311 74.47C41.2868 74.4698 41.2435 74.4574 41.2058 74.4343C38.9614 72.865 36.9824 70.948 35.3436 68.7555C35.3098 68.7079 35.2961 68.649 35.3053 68.5914C35.3145 68.5338 35.3459 68.4821 35.3928 68.4473C35.4412 68.4133 35.5009 68.3995 35.5593 68.4086C35.6178 68.4178 35.6704 68.4493 35.706 68.4964C37.3129 70.6438 39.2526 72.5216 41.4519 74.059C41.5013 74.0925 41.5355 74.1441 41.5472 74.2026C41.5589 74.261 41.5472 74.3218 41.5146 74.3717C41.4943 74.4017 41.467 74.4263 41.435 74.4435C41.403 74.4606 41.3674 74.4697 41.3311 74.47Z" fill="#D1D3D4"/>
<path d="M41.3311 78.5761C41.2868 78.5759 41.2435 78.5635 41.2058 78.5404C38.9614 76.9711 36.9824 75.054 35.3436 72.8616C35.3098 72.814 35.2961 72.7551 35.3053 72.6975C35.3145 72.6399 35.3459 72.5881 35.3928 72.5533C35.4412 72.5194 35.5009 72.5056 35.5593 72.5147C35.6178 72.5239 35.6704 72.5554 35.706 72.6025C37.3126 74.7515 39.2522 76.6308 41.4519 78.1695C41.5013 78.2031 41.5355 78.2547 41.5472 78.3131C41.5589 78.3716 41.5472 78.4323 41.5146 78.4823C41.4938 78.5115 41.4662 78.5352 41.4343 78.5516C41.4024 78.5679 41.367 78.5763 41.3311 78.5761Z" fill="#D1D3D4"/>
<path d="M41.3311 82.6821C41.2868 82.6818 41.2435 82.6695 41.2058 82.6463C38.9614 81.077 36.9824 79.16 35.3436 76.9676C35.3098 76.9199 35.2961 76.861 35.3053 76.8034C35.3145 76.7458 35.3459 76.6941 35.3928 76.6593C35.4412 76.6254 35.5009 76.6115 35.5593 76.6207C35.6178 76.6299 35.6704 76.6613 35.706 76.7084C37.3102 78.8551 39.2468 80.7329 41.443 82.271C41.4923 82.3046 41.5265 82.3561 41.5382 82.4146C41.55 82.4731 41.5382 82.5338 41.5056 82.5838C41.4862 82.6126 41.4603 82.6364 41.43 82.6535C41.3997 82.6706 41.3658 82.6803 41.3311 82.6821Z" fill="#D1D3D4"/>
<path d="M123.984 54.3822C123.952 54.3831 123.92 54.3768 123.891 54.3636C123.861 54.3505 123.835 54.3309 123.814 54.3063C119.107 48.9045 109.973 43.4 109.884 43.3464C109.851 43.3261 109.824 43.2978 109.805 43.2642C109.787 43.2306 109.777 43.1928 109.776 43.1543V28.5754C109.776 28.5162 109.8 28.4594 109.842 28.4175C109.884 28.3756 109.941 28.3521 110 28.3521C110.059 28.3532 110.115 28.3771 110.157 28.4187C110.199 28.4604 110.223 28.5166 110.224 28.5754V43.0292C111.275 43.6726 119.675 48.8777 124.155 54.0158C124.196 54.0576 124.218 54.1138 124.218 54.1722C124.218 54.2307 124.196 54.2868 124.155 54.3286C124.107 54.3675 124.046 54.3866 123.984 54.3822Z" fill="#231F20"/>
<path d="M119.053 44.8476C118.897 44.848 118.744 44.8112 118.606 44.7404C117.809 44.3427 117.585 42.8907 117.348 41.3537C117.178 40.2412 116.999 39.0929 116.605 38.4138C116.572 38.3351 116.517 38.2676 116.446 38.2193C116.375 38.171 116.292 38.1439 116.207 38.1413C114.963 38.0966 112.354 41.4877 111.446 42.7968C111.409 42.838 111.36 42.8646 111.305 42.8715C111.251 42.8784 111.196 42.8652 111.151 42.8344C111.106 42.8036 111.073 42.7572 111.06 42.7042C111.047 42.6512 111.053 42.5951 111.079 42.5466C111.423 42.0462 114.489 37.6945 116.185 37.6945H116.225C116.385 37.6998 116.542 37.7483 116.677 37.8347C116.813 37.9212 116.922 38.0425 116.995 38.1859C117.442 38.9365 117.612 40.1295 117.791 41.2822C118.001 42.6226 118.216 44.0389 118.807 44.3383C118.938 44.3862 119.078 44.4015 119.216 44.3828C119.354 44.3641 119.486 44.312 119.599 44.231C120.559 43.7013 121.411 42.9984 122.114 42.1579C122.917 41.2135 123.88 40.4179 124.96 39.8078C125.012 39.7788 125.073 39.7715 125.13 39.7874C125.187 39.8034 125.235 39.8412 125.264 39.8927C125.292 39.945 125.298 40.006 125.281 40.0626C125.264 40.1193 125.226 40.1673 125.175 40.1965C124.139 40.7859 123.215 41.5527 122.445 42.4617C121.706 43.338 120.813 44.0724 119.809 44.6287C119.579 44.762 119.319 44.8371 119.053 44.8476Z" fill="#231F20"/>
<path d="M61.7059 49.4809C61.6466 49.4809 61.5897 49.4574 61.5477 49.4155C61.5058 49.3736 61.4822 49.3168 61.4822 49.2575V36.6446C61.4819 36.5968 61.4969 36.5502 61.5251 36.5116C61.5533 36.473 61.5932 36.4444 61.6388 36.4301C62.4881 36.1649 63.3577 35.9692 64.2388 35.8448C64.2697 35.8407 64.3011 35.8438 64.3307 35.8538C64.3602 35.8639 64.3869 35.8807 64.4088 35.9029C64.4331 35.923 64.4526 35.9483 64.4657 35.9769C64.4789 36.0055 64.4854 36.0367 64.4849 36.0682V48.4265C64.4838 48.4854 64.4598 48.5415 64.4181 48.5832C64.3764 48.6248 64.3201 48.6487 64.2611 48.6499C64.2018 48.6499 64.1449 48.6264 64.1029 48.5845C64.061 48.5426 64.0374 48.4857 64.0374 48.4265V36.3184C63.3247 36.4357 62.6206 36.5999 61.9297 36.8099V49.2575C61.9297 49.3168 61.9061 49.3736 61.8641 49.4155C61.8222 49.4574 61.7653 49.4809 61.7059 49.4809Z" fill="#231F20"/>
<path d="M72.2937 105.871C72.2494 105.868 72.2068 105.853 72.171 105.827C72.1352 105.801 72.1079 105.765 72.0923 105.723L67.1698 92.0156L61.7461 102.56C61.7282 102.593 61.7026 102.621 61.6715 102.642C61.6403 102.663 61.6045 102.676 61.5671 102.681C61.5293 102.684 61.4914 102.677 61.4568 102.662C61.4223 102.646 61.3925 102.622 61.3702 102.591L56.0002 95.581L52.6082 100.956C52.5768 101.005 52.5277 101.04 52.4711 101.054C52.4146 101.068 52.3547 101.06 52.3039 101.032L49.4175 99.2938C49.3922 99.2791 49.3702 99.2595 49.3527 99.2362C49.3352 99.2128 49.3225 99.1862 49.3154 99.1579C49.3083 99.1296 49.3069 99.1002 49.3114 99.0713C49.3159 99.0425 49.3261 99.0148 49.3414 98.99C49.3566 98.9647 49.3766 98.9426 49.4004 98.925C49.4242 98.9075 49.4512 98.8948 49.4799 98.8877C49.5086 98.8807 49.5385 98.8794 49.5677 98.8839C49.5969 98.8884 49.6249 98.8986 49.6502 98.914L52.3352 100.531L55.7586 95.0538C55.778 95.0232 55.8043 94.9976 55.8353 94.979C55.8664 94.9604 55.9014 94.9492 55.9375 94.9465C55.9739 94.9443 56.0102 94.9513 56.0431 94.967C56.076 94.9826 56.1043 95.0063 56.1255 95.0359L61.4955 102.024L66.9998 91.3364C67.02 91.2984 67.0508 91.2671 67.0884 91.2461C67.1261 91.2252 67.169 91.2155 67.212 91.2184C67.2551 91.2212 67.2963 91.2364 67.3309 91.2621C67.3655 91.2878 67.3919 91.3229 67.407 91.3632L72.3295 105.049L74.6967 100.044C74.708 100.016 74.725 99.9899 74.7467 99.9682C74.7684 99.9465 74.7944 99.9295 74.823 99.9183C74.8516 99.907 74.8822 99.9018 74.9129 99.9028C74.9436 99.9039 74.9737 99.9113 75.0015 99.9245C75.0292 99.9378 75.0539 99.9565 75.074 99.9797C75.0942 100.003 75.1093 100.03 75.1185 100.059C75.1277 100.089 75.1308 100.119 75.1275 100.15C75.1242 100.18 75.1147 100.21 75.0995 100.237L72.4861 105.746C72.4676 105.781 72.4401 105.811 72.4064 105.833C72.3727 105.855 72.3338 105.868 72.2937 105.871Z" fill="#D1D3D4"/>
<path d="M52.42 101.528C52.7982 101.528 53.1047 101.222 53.1047 100.844C53.1047 100.467 52.7982 100.161 52.42 100.161C52.0419 100.161 51.7354 100.467 51.7354 100.844C51.7354 101.222 52.0419 101.528 52.42 101.528Z" fill="white"/>
<path d="M52.4201 101.751C52.2431 101.751 52.0701 101.699 51.9229 101.601C51.7757 101.502 51.661 101.363 51.5933 101.2C51.5255 101.036 51.5078 100.857 51.5423 100.683C51.5769 100.51 51.6621 100.351 51.7873 100.226C51.9125 100.101 52.0719 100.016 52.2455 99.9813C52.4192 99.9468 52.5991 99.9645 52.7626 100.032C52.9262 100.1 53.066 100.214 53.1643 100.361C53.2627 100.508 53.3151 100.681 53.3151 100.858C53.3151 101.095 53.2208 101.322 53.053 101.49C52.8852 101.657 52.6575 101.751 52.4201 101.751ZM52.4201 100.384C52.3316 100.384 52.2451 100.41 52.1715 100.459C52.0979 100.508 52.0406 100.578 52.0067 100.66C51.9728 100.742 51.964 100.831 51.9812 100.918C51.9985 101.005 52.0411 101.084 52.1037 101.147C52.1663 101.209 52.246 101.252 52.3328 101.269C52.4196 101.286 52.5096 101.277 52.5914 101.244C52.6732 101.21 52.7431 101.153 52.7922 101.079C52.8414 101.006 52.8676 100.919 52.8676 100.831C52.8676 100.712 52.8205 100.599 52.7366 100.515C52.6526 100.431 52.5388 100.384 52.4201 100.384Z" fill="#D1D3D4"/>
<path d="M55.9598 95.8715C56.338 95.8715 56.6445 95.5654 56.6445 95.1879C56.6445 94.8103 56.338 94.5043 55.9598 94.5043C55.5817 94.5043 55.2751 94.8103 55.2751 95.1879C55.2751 95.5654 55.5817 95.8715 55.9598 95.8715Z" fill="white"/>
<path d="M55.9599 96.0948C55.7829 96.0948 55.6099 96.0424 55.4627 95.9442C55.3155 95.846 55.2008 95.7064 55.1331 95.5432C55.0653 95.3799 55.0476 95.2002 55.0821 95.0269C55.1167 94.8535 55.2019 94.6943 55.3271 94.5693C55.4522 94.4444 55.6117 94.3593 55.7853 94.3248C55.9589 94.2903 56.1389 94.308 56.3024 94.3756C56.466 94.4433 56.6058 94.5578 56.7041 94.7048C56.8025 94.8517 56.8549 95.0245 56.8549 95.2012C56.8549 95.4382 56.7606 95.6655 56.5928 95.8331C56.425 96.0007 56.1973 96.0948 55.9599 96.0948ZM55.9599 94.7276C55.8714 94.7276 55.7849 94.7538 55.7113 94.8029C55.6377 94.852 55.5804 94.9218 55.5465 95.0034C55.5126 95.0851 55.5038 95.1749 55.521 95.2616C55.5383 95.3482 55.5809 95.4278 55.6435 95.4903C55.7061 95.5528 55.7858 95.5954 55.8726 95.6126C55.9594 95.6298 56.0494 95.621 56.1312 95.5872C56.213 95.5534 56.2829 95.4961 56.332 95.4226C56.3812 95.3491 56.4074 95.2628 56.4074 95.1744C56.4074 95.0559 56.3603 94.9423 56.2764 94.8585C56.1925 94.7747 56.0786 94.7276 55.9599 94.7276Z" fill="#D1D3D4"/>
<path d="M67.192 92.1408C67.5701 92.1408 67.8767 91.8347 67.8767 91.4572C67.8767 91.0796 67.5701 90.7736 67.192 90.7736C66.8139 90.7736 66.5073 91.0796 66.5073 91.4572C66.5073 91.8347 66.8139 92.1408 67.192 92.1408Z" fill="white"/>
<path d="M67.1921 92.3641C67.0151 92.3641 66.8421 92.3117 66.6949 92.2135C66.5477 92.1153 66.433 91.9757 66.3652 91.8125C66.2975 91.6492 66.2798 91.4695 66.3143 91.2962C66.3489 91.1228 66.4341 90.9636 66.5593 90.8386C66.6844 90.7137 66.8439 90.6286 67.0175 90.5941C67.1911 90.5596 67.3711 90.5773 67.5346 90.6449C67.6982 90.7126 67.8379 90.8271 67.9363 90.974C68.0346 91.121 68.0871 91.2938 68.0871 91.4705C68.0871 91.7075 67.9928 91.9348 67.825 92.1024C67.6571 92.2699 67.4295 92.3641 67.1921 92.3641ZM67.1921 90.9969C67.1036 90.9969 67.0171 91.0231 66.9435 91.0722C66.8699 91.1213 66.8126 91.1911 66.7787 91.2727C66.7448 91.3543 66.7359 91.4442 66.7532 91.5308C66.7705 91.6175 66.8131 91.6971 66.8757 91.7596C66.9383 91.8221 67.018 91.8646 67.1048 91.8819C67.1916 91.8991 67.2816 91.8903 67.3634 91.8565C67.4451 91.8226 67.515 91.7654 67.5642 91.6919C67.6134 91.6184 67.6396 91.5321 67.6396 91.4437C67.6396 91.3252 67.5925 91.2115 67.5085 91.1278C67.4246 91.044 67.3108 90.9969 67.1921 90.9969Z" fill="#D1D3D4"/>
<path d="M72.2936 106.331C72.6717 106.331 72.9782 106.025 72.9782 105.647C72.9782 105.27 72.6717 104.964 72.2936 104.964C71.9154 104.964 71.6089 105.27 71.6089 105.647C71.6089 106.025 71.9154 106.331 72.2936 106.331Z" fill="white"/>
<path d="M72.2937 106.554C72.1167 106.554 71.9436 106.502 71.7964 106.404C71.6493 106.305 71.5346 106.166 71.4668 106.003C71.3991 105.839 71.3813 105.66 71.4159 105.486C71.4504 105.313 71.5357 105.154 71.6608 105.029C71.786 104.904 71.9455 104.819 72.1191 104.784C72.2927 104.75 72.4726 104.767 72.6362 104.835C72.7997 104.903 72.9395 105.017 73.0378 105.164C73.1362 105.311 73.1887 105.484 73.1887 105.661C73.1887 105.898 73.0944 106.125 72.9265 106.293C72.7587 106.46 72.5311 106.554 72.2937 106.554ZM72.2937 105.187C72.1714 105.187 72.0542 105.236 71.9678 105.322C71.8813 105.408 71.8328 105.525 71.8328 105.647C71.8328 105.769 71.8813 105.886 71.9678 105.973C72.0542 106.059 72.1714 106.107 72.2937 106.107C72.4159 106.107 72.5332 106.059 72.6196 105.973C72.706 105.886 72.7546 105.769 72.7546 105.647C72.7546 105.525 72.706 105.408 72.6196 105.322C72.5332 105.236 72.4159 105.187 72.2937 105.187Z" fill="#D1D3D4"/>
<path d="M61.5267 103.141C61.9049 103.141 62.2114 102.835 62.2114 102.457C62.2114 102.08 61.9049 101.774 61.5267 101.774C61.1486 101.774 60.842 102.08 60.842 102.457C60.842 102.835 61.1486 103.141 61.5267 103.141Z" fill="white"/>
<path d="M61.5268 103.364C61.3498 103.364 61.1768 103.312 61.0296 103.213C60.8824 103.115 60.7677 102.976 60.7 102.812C60.6322 102.649 60.6145 102.47 60.649 102.296C60.6836 102.123 60.7688 101.964 60.894 101.839C61.0191 101.714 61.1786 101.629 61.3522 101.594C61.5258 101.56 61.7058 101.577 61.8693 101.645C62.0329 101.713 62.1727 101.827 62.271 101.974C62.3693 102.121 62.4218 102.294 62.4218 102.47C62.4218 102.707 62.3275 102.935 62.1597 103.102C61.9918 103.27 61.7642 103.364 61.5268 103.364ZM61.5268 101.997C61.4383 101.997 61.3518 102.023 61.2782 102.072C61.2046 102.121 61.1473 102.191 61.1134 102.273C61.0795 102.354 61.0707 102.444 61.0879 102.531C61.1052 102.618 61.1478 102.697 61.2104 102.76C61.273 102.822 61.3527 102.865 61.4395 102.882C61.5263 102.899 61.6163 102.89 61.6981 102.856C61.7799 102.823 61.8497 102.765 61.8989 102.692C61.9481 102.618 61.9743 102.532 61.9743 102.444C61.9743 102.325 61.9272 102.212 61.8433 102.128C61.7593 102.044 61.6455 101.997 61.5268 101.997Z" fill="#D1D3D4"/>
<path d="M108.604 95.3531C99.4615 99.8702 89.4912 99.9462 89.4912 99.9462V114.561C96.1067 114.769 102.672 113.345 108.604 110.415V95.3531Z" fill="white"/>
<path d="M90.668 114.807C90.2742 114.807 89.8849 114.807 89.4866 114.807C89.4284 114.804 89.3733 114.78 89.3325 114.738C89.2918 114.697 89.2684 114.641 89.2673 114.583V99.9462C89.2673 99.8869 89.2909 99.8301 89.3329 99.7882C89.3748 99.7463 89.4317 99.7228 89.4911 99.7228C89.5895 99.7228 99.5151 99.5932 108.505 95.1521C108.539 95.1344 108.577 95.1252 108.615 95.1252C108.653 95.1252 108.691 95.1344 108.725 95.1521C108.756 95.1722 108.782 95.2 108.8 95.2328C108.818 95.2656 108.827 95.3023 108.828 95.3397V110.401C108.829 110.443 108.818 110.484 108.796 110.519C108.775 110.555 108.744 110.584 108.707 110.602C103.1 113.377 96.9256 114.817 90.668 114.807ZM89.7148 114.36C96.1736 114.528 102.577 113.135 108.38 110.298V95.7106C100.137 99.6825 91.2229 100.116 89.7148 100.178V114.36Z" fill="#231F20"/>
<path d="M93.9661 106.103C93.9453 106.823 94.0695 107.541 94.3312 108.212C94.593 108.884 94.987 109.496 95.49 110.013C95.993 110.53 96.5947 110.941 97.2596 111.221C97.9244 111.502 98.6389 111.646 99.3607 111.646C100.083 111.646 100.797 111.502 101.462 111.221C102.127 110.941 102.728 110.53 103.231 110.013C103.734 109.496 104.128 108.884 104.39 108.212C104.652 107.541 104.776 106.823 104.755 106.103H99.3361V100.719C97.9102 100.726 96.5451 101.296 95.5389 102.305C94.5327 103.314 93.9673 104.679 93.9661 106.103Z" fill="#6ECDBA"/>
<path d="M100.231 99.9238V105.312H105.601C105.601 103.888 105.036 102.521 104.03 101.511C103.023 100.502 101.658 99.9309 100.231 99.9238Z" fill="#E6E7E8"/>
<path d="M117.684 95.8044C117.631 95.8051 117.58 95.787 117.54 95.7534C117.5 95.7198 117.473 95.6729 117.464 95.6212C117.454 95.5626 117.467 95.5022 117.5 95.453C117.533 95.4037 117.585 95.3695 117.643 95.3576C117.751 95.3576 128.262 93.3917 134.25 90.0541C134.276 90.0359 134.305 90.0234 134.336 90.0172C134.367 90.0111 134.399 90.0115 134.429 90.0186C134.46 90.0256 134.489 90.039 134.514 90.0579C134.539 90.0768 134.56 90.1009 134.575 90.1284C134.591 90.156 134.6 90.1864 134.602 90.2178C134.605 90.2491 134.601 90.2807 134.591 90.3103C134.58 90.34 134.564 90.3672 134.542 90.39C134.52 90.4129 134.494 90.4309 134.465 90.4429C128.415 93.8161 117.831 95.782 117.724 95.8044H117.684Z" fill="#D1D3D4"/>
<path d="M117.684 99.7629C117.624 99.7683 117.565 99.7498 117.519 99.7117C117.474 99.6736 117.445 99.6189 117.44 99.5596C117.434 99.5004 117.453 99.4415 117.491 99.3958C117.529 99.3501 117.584 99.3215 117.643 99.3161C117.751 99.2938 128.262 97.3458 134.25 94.0082C134.276 93.99 134.305 93.9775 134.336 93.9713C134.367 93.9652 134.399 93.9656 134.429 93.9727C134.46 93.9797 134.489 93.9931 134.514 94.012C134.539 94.0309 134.56 94.055 134.575 94.0825C134.591 94.1101 134.6 94.1405 134.602 94.1719C134.605 94.2032 134.601 94.2348 134.591 94.2645C134.58 94.2941 134.564 94.3213 134.542 94.3441C134.52 94.367 134.494 94.385 134.465 94.397C128.415 97.7747 117.831 99.7361 117.724 99.7585L117.684 99.7629Z" fill="#D1D3D4"/>
<path d="M117.684 103.722C117.624 103.727 117.565 103.708 117.519 103.67C117.474 103.632 117.445 103.578 117.44 103.518C117.434 103.459 117.453 103.4 117.491 103.354C117.529 103.309 117.584 103.28 117.643 103.275C117.751 103.275 128.262 101.304 134.25 97.9669C134.302 97.9391 134.363 97.9324 134.419 97.9482C134.476 97.964 134.524 98.0011 134.554 98.0517C134.568 98.0775 134.577 98.1059 134.581 98.1351C134.584 98.1644 134.581 98.194 134.573 98.2222C134.564 98.2505 134.551 98.2768 134.532 98.2996C134.514 98.3225 134.491 98.3415 134.465 98.3556C128.415 101.733 117.831 103.695 117.724 103.717L117.684 103.722Z" fill="#D1D3D4"/>
<path d="M117.684 107.68C117.624 107.685 117.565 107.667 117.519 107.629C117.474 107.591 117.445 107.536 117.44 107.477C117.434 107.418 117.453 107.359 117.491 107.313C117.529 107.267 117.584 107.239 117.643 107.233C120.699 106.642 123.721 105.889 126.696 104.977C126.753 104.96 126.814 104.966 126.867 104.994C126.92 105.021 126.96 105.068 126.978 105.124C126.995 105.181 126.989 105.241 126.961 105.293C126.934 105.345 126.887 105.384 126.83 105.401C123.837 106.314 120.797 107.067 117.724 107.658L117.684 107.68Z" fill="#D1D3D4"/>
<path d="M49.5338 61.7678C49.4951 61.7684 49.4569 61.7589 49.4231 61.74C49.3893 61.7212 49.3611 61.6938 49.3413 61.6605C49.3117 61.6088 49.3036 61.5476 49.3187 61.49C49.3337 61.4324 49.3708 61.3829 49.4219 61.3522C52.4559 59.5651 58.6583 58.256 58.9223 58.2023C58.9508 58.1958 58.9804 58.195 59.0092 58.2C59.0381 58.2051 59.0656 58.2158 59.0902 58.2317C59.1148 58.2475 59.136 58.2681 59.1525 58.2922C59.169 58.3163 59.1805 58.3435 59.1863 58.3721C59.1929 58.4009 59.1938 58.4307 59.1888 58.4597C59.1838 58.4888 59.1731 58.5166 59.1573 58.5415C59.1415 58.5665 59.1209 58.588 59.0967 58.605C59.0725 58.6219 59.0451 58.6339 59.0163 58.6402C58.9492 58.6402 52.617 59.9806 49.6456 61.741C49.6109 61.7583 49.5726 61.7674 49.5338 61.7678Z" fill="#D1D3D4"/>
<path d="M49.5337 64.0106C49.4849 64.0101 49.4376 63.9937 49.399 63.9638C49.3604 63.9339 49.3326 63.8923 49.3199 63.8452C49.3073 63.7981 49.3103 63.7482 49.3287 63.703C49.3472 63.6579 49.3798 63.62 49.4218 63.5951C52.4559 61.8079 58.6582 60.4988 58.9223 60.4675C58.9816 60.4551 59.0435 60.4667 59.0942 60.4998C59.145 60.5329 59.1805 60.5848 59.193 60.644C59.2055 60.7032 59.1938 60.765 59.1607 60.8157C59.1275 60.8664 59.0756 60.9019 59.0162 60.9143C58.9491 60.9143 52.617 62.2547 49.6456 64.0151C49.6086 64.0237 49.5699 64.0221 49.5337 64.0106Z" fill="#D1D3D4"/>
<path d="M49.5338 66.2535C49.4947 66.2532 49.4564 66.2428 49.4226 66.2232C49.3889 66.2036 49.3609 66.1755 49.3413 66.1418C49.3117 66.0901 49.3036 66.0288 49.3187 65.9712C49.3337 65.9136 49.3708 65.8642 49.4219 65.8335C52.4559 64.0463 58.6583 62.7372 58.9223 62.7059C58.9804 62.6952 59.0403 62.7074 59.0895 62.7399C59.1387 62.7724 59.1734 62.8227 59.1863 62.8802C59.1929 62.9086 59.1937 62.9381 59.1886 62.9669C59.1836 62.9957 59.1728 63.0232 59.157 63.0478C59.1411 63.0723 59.1205 63.0935 59.0964 63.11C59.0722 63.1265 59.045 63.138 59.0163 63.1438C58.9492 63.1438 52.617 64.4842 49.6456 66.2445C49.6094 66.2555 49.5713 66.2585 49.5338 66.2535Z" fill="#D1D3D4"/>
<path d="M49.5337 68.492C49.4849 68.4915 49.4376 68.475 49.399 68.4452C49.3604 68.4153 49.3326 68.3737 49.3199 68.3266C49.3073 68.2795 49.3103 68.2296 49.3287 68.1844C49.3472 68.1392 49.3798 68.1013 49.4218 68.0765C51.2018 67.137 53.085 66.4068 55.0335 65.9006C55.0928 65.884 55.1564 65.8916 55.2101 65.9218C55.2638 65.9519 55.3033 66.0022 55.3199 66.0614C55.3365 66.1207 55.3289 66.1841 55.2987 66.2377C55.2685 66.2913 55.2181 66.3308 55.1588 66.3474C53.2525 66.8409 51.4088 67.55 49.6635 68.4607C49.6248 68.4849 49.5792 68.4959 49.5337 68.492Z" fill="#D1D3D4"/>
</svg>
