<svg width="367" height="306" viewBox="0 0 367 306" fill="none" xmlns="http://www.w3.org/2000/svg">
<g clip-path="url(#clip0)">
<path opacity="0.24" d="M366.824 232.716C366.641 234.698 366.287 236.661 365.766 238.582C364.593 243.042 362.81 247.318 360.469 251.289C346.935 274.932 320.423 288.599 293.757 294.19C267.09 299.781 239.542 298.553 212.332 299.802C175.573 301.468 138.912 307.645 102.153 305.619C84.7282 304.643 67.4545 301.832 50.6181 297.233C-30.5668 297.233 9.12645 173.141 13.7884 126.097C15.7984 105.829 18.1541 84.587 29.7136 67.8207C43.382 47.9906 67.5872 38.0933 91.2705 33.794C114.954 29.4948 139.342 29.7137 162.864 24.772C201.337 16.696 238.526 -5.0825 277.345 1.09454C315.43 7.18687 346.314 43.4514 346.293 82.0667C346.293 109.154 334.014 136.086 341.06 163.06C347.189 186.49 369.179 207.231 366.824 232.716Z" fill="#6ECDBA"/>
<path opacity="0.24" d="M365.738 238.582C364.564 243.041 362.782 247.317 360.441 251.289C346.907 274.931 320.395 288.598 293.728 294.19C267.062 299.781 239.513 298.552 212.304 299.802C175.544 301.468 138.884 307.645 102.125 305.619C84.7093 304.641 67.4453 301.829 50.618 297.232C39.3335 294.161 16.0169 290.173 9.18983 279.675C4.92288 273.145 4.25286 260.911 4.07654 250.604C6.62966 251.007 9.16867 251.614 11.3974 251.826C18.9509 252.532 26.5962 252.602 34.1709 252.835C50.2184 253.348 66.2706 253.692 82.3275 253.866C146.273 254.548 210.171 252.444 274.023 247.555C304.66 245.206 335.232 242.215 365.738 238.582Z" fill="#6ECDBA"/>
<path d="M255.001 155.739H236.953V267.145H255.001V155.739Z" fill="#6ECDBA"/>
<path d="M255.001 155.739H236.953V267.145H255.001V155.739Z" fill="url(#paint0_linear)"/>
<path d="M297.431 121.543V165.686H173.781V121.543C173.781 118.519 174.377 115.525 175.534 112.732C176.69 109.939 178.386 107.401 180.523 105.265C182.661 103.128 185.198 101.434 187.99 100.279C190.782 99.1248 193.774 98.5324 196.795 98.5362H274.418C280.517 98.5343 286.367 100.957 290.683 105.271C294.998 109.585 297.425 115.438 297.431 121.543Z" fill="#6ECDBA"/>
<path d="M196.886 102.362C202.167 102.362 207.231 104.462 210.965 108.199C214.699 111.937 216.796 117.006 216.796 122.291V165.425H176.976V122.291C176.976 117.006 179.074 111.937 182.808 108.199C186.542 104.462 191.606 102.362 196.886 102.362Z" fill="url(#paint1_linear)"/>
<path d="M297.438 121.536V165.679H221.268V118.952C218.99 106.746 210.406 101.134 203.339 98.5503H274.432C280.527 98.5465 286.375 100.966 290.689 105.276C295.003 109.586 297.431 115.435 297.438 121.536Z" fill="url(#paint2_linear)"/>
<path d="M218.08 159.354H137.241C135.492 159.354 134.074 160.771 134.074 162.52C134.074 164.268 135.492 165.686 137.241 165.686H218.08C219.829 165.686 221.247 164.268 221.247 162.52C221.247 160.771 219.829 159.354 218.08 159.354Z" fill="#6ECDBA"/>
<path d="M218.08 159.354H137.241C135.492 159.354 134.074 160.771 134.074 162.52C134.074 164.268 135.492 165.686 137.241 165.686H218.08C219.829 165.686 221.247 164.268 221.247 162.52C221.247 160.771 219.829 159.354 218.08 159.354Z" fill="url(#paint3_linear)"/>
<path opacity="0.24" d="M198.17 257.374C187.668 259.259 177.244 261.688 166.63 262.718C159.732 263.389 152.122 263.735 147.129 268.535C145.934 269.547 145.143 270.955 144.9 272.503C144.618 275.828 148.081 278.15 151.184 279.364C160.226 282.944 170.057 283.967 179.769 284.588C195.581 285.591 211.436 285.612 227.284 285.626L274.488 285.669C288.418 285.669 303.884 285.104 313.871 275.369C315.846 273.442 317.588 271.07 317.927 268.309C318.477 263.876 315.105 259.697 311.05 257.84C303.997 254.621 293.467 255.292 285.794 254.437C275.817 253.336 265.799 252.727 255.742 252.609C236.444 252.38 217.168 253.975 198.17 257.374Z" fill="#6ECDBA"/>
<path d="M264.332 128.242C264.163 128.807 263.627 130.523 263.521 131.144L261.829 137.399C261.753 137.672 261.715 137.955 261.716 138.239C261.707 138.334 261.719 138.429 261.752 138.519C261.784 138.608 261.836 138.69 261.903 138.757C261.97 138.824 262.052 138.876 262.141 138.909C262.231 138.941 262.326 138.953 262.421 138.945C263.073 138.901 263.694 138.654 264.198 138.239C264.942 137.57 265.53 136.748 265.924 135.829C266.317 134.909 266.506 133.915 266.476 132.916C266.506 131.704 266.224 130.506 265.657 129.435C265.09 128.364 264.258 127.458 263.239 126.802C261.695 125.969 259.957 125.56 258.203 125.616C252.265 125.616 248.104 129.563 248.104 135.14C248.104 140.547 251.842 144.091 257.498 144.091C258.955 144.091 260.403 143.882 261.8 143.47C262.918 143.129 263.98 142.627 264.953 141.98L266.667 144.458C265.578 145.172 264.39 145.722 263.14 146.089C261.208 146.687 259.197 146.991 257.174 146.992C253.21 146.992 250.121 145.863 247.892 143.639C246.823 142.537 245.984 141.233 245.423 139.802C244.863 138.372 244.592 136.845 244.627 135.309C244.585 133.689 244.868 132.077 245.458 130.567C246.048 129.058 246.933 127.682 248.061 126.52C250.65 123.929 254.049 122.658 258.415 122.658C264.967 122.658 269.636 126.894 269.636 132.768C269.661 134.02 269.437 135.265 268.979 136.431C268.52 137.597 267.835 138.66 266.963 139.559C265.581 140.991 263.69 141.82 261.702 141.867C261.239 141.901 260.775 141.817 260.352 141.625C259.929 141.432 259.562 141.137 259.282 140.766C259.132 140.501 259.047 140.203 259.036 139.898C258.59 140.469 258.016 140.927 257.361 141.235C256.705 141.543 255.986 141.692 255.262 141.67C252.477 141.67 250.706 139.587 250.706 136.375C250.706 131.617 253.831 127.671 257.569 127.671C259.141 127.671 259.931 128.066 260.693 129.252L260.975 128.264L264.332 128.242ZM258.535 136.608C259.215 135.26 259.598 133.782 259.656 132.273C259.656 131.116 259.007 130.332 258.027 130.332C257.047 130.332 255.975 131.038 255.269 132.358C254.576 133.666 254.191 135.114 254.141 136.594C254.141 138.083 254.705 138.874 255.777 138.874C256.849 138.874 257.83 138.041 258.535 136.608Z" fill="#6ECDBA"/>
<path d="M95.2552 95.5359C95.086 92.5991 95.4315 89.5212 94.2255 86.8386C93.075 84.55 91.165 82.7331 88.8231 81.6993C86.4949 80.6825 84.0707 79.902 81.5869 79.3697C75.2032 77.7251 68.9262 75.6906 62.7911 73.2773C63.4118 77.6683 67.0228 80.9581 70.3447 83.8666C69.5913 84.0319 68.8743 84.3333 68.2289 84.756C67.9115 84.974 67.658 85.2728 67.4944 85.6214C67.3308 85.9701 67.2629 86.3561 67.2979 86.7398C67.4414 87.2875 67.7461 87.7795 68.1724 88.1517C69.5602 89.5378 71.3024 90.5148 73.2081 90.9755L68.0384 93.0933C67.7887 93.1661 67.5703 93.3201 67.4178 93.531C67.1921 93.9334 67.4954 94.4205 67.8268 94.7452C70.3094 97.1737 74.2802 96.9195 77.7008 96.503C76.0158 97.3063 74.526 98.4674 73.3351 99.9057C73.2508 99.9843 73.1854 100.081 73.1438 100.189C73.1023 100.296 73.0857 100.412 73.0953 100.527C73.1729 100.802 73.5044 100.894 73.8006 100.936C76.8385 101.362 79.9347 100.899 82.7153 99.6021C81.8983 100.248 81.2618 101.094 80.8675 102.059C80.8088 102.167 80.7781 102.289 80.7781 102.412C80.7781 102.535 80.8088 102.656 80.8675 102.765C81.0095 102.896 81.1959 102.969 81.3894 102.969C83.8758 103.212 86.3608 102.495 88.3364 100.965C88.421 102.744 89.9304 104.198 91.616 104.777C93.3363 105.242 95.1322 105.36 96.8985 105.123C100.425 104.876 98.3091 102.842 97.1031 101.339C95.9188 99.6342 95.2749 97.612 95.2552 95.5359Z" fill="#6ECDBA"/>
<path d="M95.2552 95.5359C95.086 92.5991 95.4315 89.5212 94.2255 86.8386C93.075 84.55 91.165 82.7331 88.8231 81.6993C86.4949 80.6825 84.0707 79.902 81.5869 79.3697C75.2032 77.7251 68.9262 75.6906 62.7911 73.2773C63.4118 77.6683 67.0228 80.9581 70.3447 83.8666C69.5913 84.0319 68.8743 84.3333 68.2289 84.756C67.9115 84.974 67.658 85.2728 67.4944 85.6214C67.3308 85.9701 67.2629 86.3561 67.2979 86.7398C67.4414 87.2875 67.7461 87.7795 68.1724 88.1517C69.5602 89.5378 71.3024 90.5148 73.2081 90.9755L68.0384 93.0933C67.7887 93.1661 67.5703 93.3201 67.4178 93.531C67.1921 93.9334 67.4954 94.4205 67.8268 94.7452C70.3094 97.1737 74.2802 96.9195 77.7008 96.503C76.0158 97.3063 74.526 98.4674 73.3351 99.9057C73.2508 99.9843 73.1854 100.081 73.1438 100.189C73.1023 100.296 73.0857 100.412 73.0953 100.527C73.1729 100.802 73.5044 100.894 73.8006 100.936C76.8385 101.362 79.9347 100.899 82.7153 99.6021C81.8983 100.248 81.2618 101.094 80.8675 102.059C80.8088 102.167 80.7781 102.289 80.7781 102.412C80.7781 102.535 80.8088 102.656 80.8675 102.765C81.0095 102.896 81.1959 102.969 81.3894 102.969C83.8758 103.212 86.3608 102.495 88.3364 100.965C88.421 102.744 89.9304 104.198 91.616 104.777C93.3363 105.242 95.1322 105.36 96.8985 105.123C100.425 104.876 98.3091 102.842 97.1031 101.339C95.9188 99.6342 95.2749 97.612 95.2552 95.5359Z" fill="url(#paint4_linear)"/>
<path d="M90.008 95.3101C89.8951 93.3052 90.1279 91.2014 89.3027 89.373C88.5197 87.8012 87.2124 86.5526 85.607 85.8433C84.018 85.1497 82.3643 84.6152 80.6701 84.2479C76.3072 83.1263 72.0179 81.7352 67.8269 80.0828C68.243 83.083 70.6903 85.328 72.9825 87.3046C72.4796 87.4239 72.002 87.6318 71.5719 87.9188C71.3544 88.067 71.1807 88.271 71.0691 88.5095C70.9574 88.7479 70.9118 89.0121 70.9372 89.2742C71.0325 89.6471 71.2392 89.982 71.5296 90.2343C72.4803 91.1797 73.67 91.8484 74.9714 92.1686L71.445 93.6228C71.2716 93.6729 71.1201 93.7798 71.0148 93.9264C70.8596 94.2017 71.0712 94.5335 71.2969 94.7524C72.9966 96.4184 75.7119 96.2419 78.0676 95.9525C76.9165 96.5039 75.8987 97.2987 75.0842 98.2821C75.0263 98.3353 74.9815 98.4013 74.9533 98.4748C74.9252 98.5483 74.9145 98.6273 74.922 98.7057C74.9714 98.8892 75.1971 98.9528 75.3875 98.981C77.464 99.2775 79.5818 98.961 81.4811 98.0703C80.924 98.5133 80.4893 99.0917 80.2187 99.7505C80.1552 99.9128 80.0988 100.118 80.2187 100.252C80.2656 100.296 80.3209 100.331 80.3815 100.354C80.442 100.377 80.5066 100.388 80.5713 100.386C82.2715 100.555 83.9719 100.068 85.3249 99.0233C85.4026 99.6279 85.6558 100.196 86.0533 100.658C86.4507 101.12 86.9748 101.455 87.5607 101.621C88.7369 101.938 89.964 102.02 91.1717 101.861C93.6049 101.692 92.1238 100.301 91.3128 99.2704C90.4893 98.1119 90.0346 96.7316 90.008 95.3101Z" fill="#6ECDBA"/>
<path d="M90.008 95.3101C89.8951 93.3052 90.1279 91.2014 89.3027 89.373C88.5197 87.8012 87.2124 86.5526 85.607 85.8433C84.018 85.1497 82.3643 84.6152 80.6701 84.2479C76.3072 83.1263 72.0179 81.7352 67.8269 80.0828C68.243 83.083 70.6903 85.328 72.9825 87.3046C72.4796 87.4239 72.002 87.6318 71.5719 87.9188C71.3544 88.067 71.1807 88.271 71.0691 88.5095C70.9574 88.7479 70.9118 89.0121 70.9372 89.2742C71.0325 89.6471 71.2392 89.982 71.5296 90.2343C72.4803 91.1797 73.67 91.8484 74.9714 92.1686L71.445 93.6228C71.2716 93.6729 71.1201 93.7798 71.0148 93.9264C70.8596 94.2017 71.0712 94.5335 71.2969 94.7524C72.9966 96.4184 75.7119 96.2419 78.0676 95.9525C76.9165 96.5039 75.8987 97.2987 75.0842 98.2821C75.0263 98.3353 74.9815 98.4013 74.9533 98.4748C74.9252 98.5483 74.9145 98.6273 74.922 98.7057C74.9714 98.8892 75.1971 98.9528 75.3875 98.981C77.464 99.2775 79.5818 98.961 81.4811 98.0703C80.924 98.5133 80.4893 99.0917 80.2187 99.7505C80.1552 99.9128 80.0988 100.118 80.2187 100.252C80.2656 100.296 80.3209 100.331 80.3815 100.354C80.442 100.377 80.5066 100.388 80.5713 100.386C82.2715 100.555 83.9719 100.068 85.3249 99.0233C85.4026 99.6279 85.6558 100.196 86.0533 100.658C86.4507 101.12 86.9748 101.455 87.5607 101.621C88.7369 101.938 89.964 102.02 91.1717 101.861C93.6049 101.692 92.1238 100.301 91.3128 99.2704C90.4893 98.1119 90.0346 96.7316 90.008 95.3101Z" fill="url(#paint5_linear)"/>
<path d="M142.728 88.8576C142.897 85.9209 142.551 82.843 143.75 80.1604C144.901 77.8679 146.814 76.0482 149.16 75.014C151.489 73.9993 153.913 73.2189 156.396 72.6844C162.777 71.0399 169.052 69.0053 175.185 66.592C174.571 70.976 170.988 74.2657 167.638 77.1813C168.393 77.3468 169.11 77.6508 169.754 78.0778C170.074 78.2914 170.33 78.5884 170.494 78.9367C170.658 79.2849 170.724 79.6714 170.685 80.0545C170.549 80.6037 170.246 81.097 169.818 81.4664C168.428 82.8502 166.686 83.8267 164.782 84.2901L169.944 86.408C170.198 86.4813 170.419 86.638 170.572 86.8527C170.798 87.2551 170.488 87.7422 170.163 88.0599C167.673 90.4954 163.703 90.2413 160.254 89.8177C161.938 90.6259 163.427 91.7891 164.62 93.2274C164.706 93.304 164.773 93.4007 164.813 93.509C164.854 93.6173 164.867 93.734 164.852 93.8487C164.782 94.1169 164.45 94.2087 164.147 94.2511C161.11 94.6784 158.014 94.2174 155.232 92.9239C156.053 93.568 156.692 94.4146 157.087 95.3806C157.149 95.4879 157.182 95.6096 157.182 95.7335C157.182 95.8575 157.149 95.9792 157.087 96.0865C157.018 96.1533 156.936 96.2052 156.847 96.2392C156.757 96.2732 156.661 96.2885 156.565 96.2842C154.08 96.5275 151.596 95.813 149.618 94.2864C149.541 96.0653 148.024 97.5196 146.346 98.0985C144.624 98.5578 142.829 98.6729 141.063 98.4373C137.495 98.1973 139.653 96.1571 140.859 94.6535C142.163 93.0439 142.608 90.8625 142.728 88.8576Z" fill="#6ECDBA"/>
<path d="M142.728 88.8576C142.897 85.9209 142.551 82.843 143.75 80.1604C144.901 77.8679 146.814 76.0482 149.16 75.014C151.489 73.9993 153.913 73.2189 156.396 72.6844C162.777 71.0399 169.052 69.0053 175.185 66.592C174.571 70.976 170.988 74.2657 167.638 77.1813C168.393 77.3468 169.11 77.6508 169.754 78.0778C170.074 78.2914 170.33 78.5884 170.494 78.9367C170.658 79.2849 170.724 79.6714 170.685 80.0545C170.549 80.6037 170.246 81.097 169.818 81.4664C168.428 82.8502 166.686 83.8267 164.782 84.2901L169.944 86.408C170.198 86.4813 170.419 86.638 170.572 86.8527C170.798 87.2551 170.488 87.7422 170.163 88.0599C167.673 90.4954 163.703 90.2413 160.254 89.8177C161.938 90.6259 163.427 91.7891 164.62 93.2274C164.706 93.304 164.773 93.4007 164.813 93.509C164.854 93.6173 164.867 93.734 164.852 93.8487C164.782 94.1169 164.45 94.2087 164.147 94.2511C161.11 94.6784 158.014 94.2174 155.232 92.9239C156.053 93.568 156.692 94.4146 157.087 95.3806C157.149 95.4879 157.182 95.6096 157.182 95.7335C157.182 95.8575 157.149 95.9792 157.087 96.0865C157.018 96.1533 156.936 96.2052 156.847 96.2392C156.757 96.2732 156.661 96.2885 156.565 96.2842C154.08 96.5275 151.596 95.813 149.618 94.2864C149.541 96.0653 148.024 97.5196 146.346 98.0985C144.624 98.5578 142.829 98.6729 141.063 98.4373C137.495 98.1973 139.653 96.1571 140.859 94.6535C142.163 93.0439 142.608 90.8625 142.728 88.8576Z" fill="url(#paint6_linear)"/>
<path d="M147.975 88.6318C148.088 86.6269 147.855 84.5232 148.68 82.6877C149.466 81.1176 150.772 79.8698 152.376 79.158C153.965 78.4658 155.619 77.9337 157.313 77.5696C161.675 76.4414 165.964 75.0481 170.156 73.3975C169.733 76.3977 167.286 78.6497 164.993 80.6264C165.496 80.7418 165.974 80.9475 166.404 81.2335C166.622 81.3819 166.796 81.5857 166.909 81.8239C167.022 82.0622 167.069 82.3263 167.046 82.5889C166.948 82.9645 166.739 83.3017 166.446 83.556C165.497 84.5024 164.307 85.1691 163.005 85.4833L166.531 86.9446C166.702 86.9916 166.852 87.0964 166.954 87.2411C167.109 87.5164 166.898 87.8553 166.679 88.0741C164.979 89.7331 162.264 89.5566 159.908 89.2742C161.059 89.8234 162.075 90.6187 162.885 91.6039C162.945 91.6556 162.991 91.7213 163.019 91.7952C163.047 91.8691 163.057 91.9489 163.047 92.0274C162.998 92.211 162.772 92.2745 162.581 92.3027C160.505 92.5947 158.388 92.2784 156.488 91.3921C157.048 91.8333 157.486 92.4121 157.757 93.0722C157.799 93.148 157.82 93.233 157.82 93.3193C157.82 93.4056 157.799 93.4906 157.757 93.5664C157.71 93.6126 157.653 93.6489 157.592 93.6731C157.53 93.6973 157.464 93.7091 157.398 93.7076C155.699 93.8707 154.002 93.3811 152.651 92.338C152.572 92.9429 152.318 93.5116 151.921 93.9743C151.524 94.437 151.001 94.7736 150.415 94.943C149.237 95.2609 148.007 95.3401 146.797 95.1759C144.364 95.0136 145.852 93.6158 146.663 92.5922C147.484 91.4321 147.941 90.0532 147.975 88.6318Z" fill="#6ECDBA"/>
<path d="M147.975 88.6318C148.088 86.6269 147.855 84.5232 148.68 82.6877C149.466 81.1176 150.772 79.8698 152.376 79.158C153.965 78.4658 155.619 77.9337 157.313 77.5696C161.675 76.4414 165.964 75.0481 170.156 73.3975C169.733 76.3977 167.286 78.6497 164.993 80.6264C165.496 80.7418 165.974 80.9475 166.404 81.2335C166.622 81.3819 166.796 81.5857 166.909 81.8239C167.022 82.0622 167.069 82.3263 167.046 82.5889C166.948 82.9645 166.739 83.3017 166.446 83.556C165.497 84.5024 164.307 85.1691 163.005 85.4833L166.531 86.9446C166.702 86.9916 166.852 87.0964 166.954 87.2411C167.109 87.5164 166.898 87.8553 166.679 88.0741C164.979 89.7331 162.264 89.5566 159.908 89.2742C161.059 89.8234 162.075 90.6187 162.885 91.6039C162.945 91.6556 162.991 91.7213 163.019 91.7952C163.047 91.8691 163.057 91.9489 163.047 92.0274C162.998 92.211 162.772 92.2745 162.581 92.3027C160.505 92.5947 158.388 92.2784 156.488 91.3921C157.048 91.8333 157.486 92.4121 157.757 93.0722C157.799 93.148 157.82 93.233 157.82 93.3193C157.82 93.4056 157.799 93.4906 157.757 93.5664C157.71 93.6126 157.653 93.6489 157.592 93.6731C157.53 93.6973 157.464 93.7091 157.398 93.7076C155.699 93.8707 154.002 93.3811 152.651 92.338C152.572 92.9429 152.318 93.5116 151.921 93.9743C151.524 94.437 151.001 94.7736 150.415 94.943C149.237 95.2609 148.007 95.3401 146.797 95.1759C144.364 95.0136 145.852 93.6158 146.663 92.5922C147.484 91.4321 147.941 90.0532 147.975 88.6318Z" fill="url(#paint7_linear)"/>
<path d="M145.351 96.8454L92.5186 102.32L95.8896 134.915L148.722 129.441L145.351 96.8454Z" fill="#6ECDBA"/>
<path d="M148.723 129.436L95.8901 134.907L92.5188 102.313L146.318 96.3196L148.723 129.436Z" fill="url(#paint8_linear)"/>
<path d="M92.5188 102.313L121.809 126.492L145.598 97.3008L92.5188 102.313Z" fill="url(#paint9_linear)"/>
<path d="M146.981 103.916C151.067 103.916 154.379 100.6 154.379 96.5101C154.379 92.4202 151.067 89.1047 146.981 89.1047C142.895 89.1047 139.582 92.4202 139.582 96.5101C139.582 100.6 142.895 103.916 146.981 103.916Z" fill="#6ECDBA"/>
<path d="M147.129 104.014C151.215 104.014 154.527 100.699 154.527 96.609C154.527 92.5191 151.215 89.2036 147.129 89.2036C143.043 89.2036 139.73 92.5191 139.73 96.609C139.73 100.699 143.043 104.014 147.129 104.014Z" fill="url(#paint10_linear)"/>
<path d="M244.727 133.884L197.192 125.82L192.225 155.15L239.76 163.214L244.727 133.884Z" fill="#6ECDBA"/>
<path d="M239.746 163.229L192.203 155.16L197.175 125.835L245.685 133.678L239.746 163.229Z" fill="url(#paint11_linear)"/>
<path d="M197.175 125.835L216.916 154.108L244.817 134.363L197.175 125.835Z" fill="url(#paint12_linear)"/>
<path d="M224.566 114.934L189.84 109.042L186.211 130.472L220.937 136.364L224.566 114.934Z" fill="#6ECDBA"/>
<path d="M220.929 136.376L186.201 130.481L189.833 109.056L225.267 114.788L220.929 136.376Z" fill="url(#paint13_linear)"/>
<path d="M189.833 109.055L204.256 129.711L224.632 115.288L189.833 109.055Z" fill="url(#paint14_linear)"/>
</g>
<defs>
<linearGradient id="paint0_linear" x1="246.446" y1="252.567" x2="245.09" y2="133.784" gradientUnits="userSpaceOnUse">
<stop stop-color="#010101" stop-opacity="0"/>
<stop offset="0.95" stop-color="#010101"/>
</linearGradient>
<linearGradient id="paint1_linear" x1="10169.1" y1="12065.3" x2="12417.7" y2="12065.3" gradientUnits="userSpaceOnUse">
<stop stop-color="#010101" stop-opacity="0"/>
<stop offset="0.95" stop-color="#010101"/>
</linearGradient>
<linearGradient id="paint2_linear" x1="35520.4" y1="10059.8" x2="35029.7" y2="21757.9" gradientUnits="userSpaceOnUse">
<stop stop-color="#010101" stop-opacity="0"/>
<stop offset="0.95" stop-color="#010101"/>
</linearGradient>
<linearGradient id="paint3_linear" x1="22038" y1="1549.05" x2="22038.6" y2="1687.31" gradientUnits="userSpaceOnUse">
<stop stop-color="#010101" stop-opacity="0"/>
<stop offset="0.95" stop-color="#010101"/>
</linearGradient>
<linearGradient id="paint4_linear" x1="61.6063" y1="99.7504" x2="87.3466" y2="85.2498" gradientUnits="userSpaceOnUse">
<stop stop-color="white" stop-opacity="0"/>
<stop offset="0.95" stop-color="white"/>
</linearGradient>
<linearGradient id="paint5_linear" x1="3609.11" y1="2776.58" x2="3275.35" y2="3242.1" gradientUnits="userSpaceOnUse">
<stop stop-color="white" stop-opacity="0"/>
<stop offset="0.95" stop-color="white"/>
</linearGradient>
<linearGradient id="paint6_linear" x1="-9923.32" y1="4606.79" x2="-11157.9" y2="3820.58" gradientUnits="userSpaceOnUse">
<stop stop-color="white" stop-opacity="0"/>
<stop offset="0.95" stop-color="white"/>
</linearGradient>
<linearGradient id="paint7_linear" x1="-7682.02" y1="2563.67" x2="-7347.96" y2="3029.19" gradientUnits="userSpaceOnUse">
<stop stop-color="white" stop-opacity="0"/>
<stop offset="0.95" stop-color="white"/>
</linearGradient>
<linearGradient id="paint8_linear" x1="9750.59" y1="5112.64" x2="9685.13" y2="9131.14" gradientUnits="userSpaceOnUse">
<stop stop-color="white" stop-opacity="0"/>
<stop offset="0.95" stop-color="white"/>
</linearGradient>
<linearGradient id="paint9_linear" x1="41305.2" y1="-17118.1" x2="41836.8" y2="-15921" gradientUnits="userSpaceOnUse">
<stop stop-color="white" stop-opacity="0"/>
<stop offset="0.95" stop-color="white"/>
</linearGradient>
<linearGradient id="paint10_linear" x1="3218.8" y1="2122.28" x2="3357.4" y2="2011.18" gradientUnits="userSpaceOnUse">
<stop stop-color="white" stop-opacity="0"/>
<stop offset="0.95" stop-color="white"/>
</linearGradient>
<linearGradient id="paint11_linear" x1="44165.1" y1="1737.57" x2="43944.8" y2="4514.15" gradientUnits="userSpaceOnUse">
<stop stop-color="white" stop-opacity="0"/>
<stop offset="0.95" stop-color="white"/>
</linearGradient>
<linearGradient id="paint12_linear" x1="37330.7" y1="-1241.92" x2="37463.9" y2="-113.435" gradientUnits="userSpaceOnUse">
<stop stop-color="white" stop-opacity="0"/>
<stop offset="0.95" stop-color="white"/>
</linearGradient>
<linearGradient id="paint13_linear" x1="31575.1" y1="669.592" x2="31457.3" y2="2151.48" gradientUnits="userSpaceOnUse">
<stop stop-color="white" stop-opacity="0"/>
<stop offset="0.95" stop-color="white"/>
</linearGradient>
<linearGradient id="paint14_linear" x1="26740.2" y1="-1367.91" x2="26811.3" y2="-765.661" gradientUnits="userSpaceOnUse">
<stop stop-color="white" stop-opacity="0"/>
<stop offset="0.95" stop-color="white"/>
</linearGradient>
<clipPath id="clip0">
<rect width="367" height="306" fill="white"/>
</clipPath>
</defs>
</svg>
