<svg width="179" height="134" viewBox="0 0 179 134" fill="none" xmlns="http://www.w3.org/2000/svg">
<path d="M75.6587 102.765C59.3474 102.765 46.8532 102.702 46.4817 102.514C46.4314 102.488 46.393 102.443 46.3745 102.389C46.3559 102.336 46.3587 102.277 46.3821 102.225C46.4055 102.173 46.4478 102.132 46.5004 102.111C46.553 102.089 46.6119 102.088 46.6652 102.108C48.3075 102.488 116.153 102.264 151.828 102.108C151.857 102.107 151.886 102.113 151.914 102.123C151.941 102.134 151.966 102.15 151.987 102.17C152.008 102.191 152.025 102.215 152.037 102.242C152.049 102.269 152.055 102.297 152.056 102.327C152.056 102.386 152.033 102.444 151.991 102.486C151.949 102.529 151.892 102.553 151.832 102.555C145.026 102.572 104.42 102.765 75.6587 102.765Z" fill="#D1D3D4"/>
<path d="M59.4951 86.5461L144.354 86.5461V22.4361L59.4951 22.4361L59.4951 86.5461Z" fill="white"/>
<path d="M144.354 86.7695H59.4906C59.4313 86.7695 59.3743 86.7459 59.3324 86.704C59.2904 86.6622 59.2668 86.6054 59.2668 86.5461V22.4405C59.2668 22.3813 59.2904 22.3245 59.3324 22.2826C59.3743 22.2407 59.4313 22.2172 59.4906 22.2172H144.354C144.414 22.2172 144.471 22.2407 144.513 22.2826C144.555 22.3245 144.578 22.3813 144.578 22.4405V86.5461C144.578 86.6054 144.555 86.6622 144.513 86.704C144.471 86.7459 144.414 86.7695 144.354 86.7695ZM59.7143 86.3228H144.131V22.6638H59.7143V86.3228Z" fill="#231F20"/>
<path d="M82.152 55.3464H77.5249V78.0014H82.152V55.3464Z" fill="#6ECDBA"/>
<path d="M90.1311 63.0381H85.5039V78.0014H90.1311V63.0381Z" fill="#E6E7E8"/>
<path d="M98.1145 58.6608H93.4873V78.0014H98.1145V58.6608Z" fill="#E6E7E8"/>
<path d="M101.708 78.0505H74.2404C74.181 78.0505 74.1241 78.027 74.0821 77.9851C74.0402 77.9432 74.0166 77.8864 74.0166 77.8272C74.0166 77.768 74.0402 77.7112 74.0821 77.6693C74.1241 77.6274 74.181 77.6039 74.2404 77.6039H101.708C101.767 77.6039 101.824 77.6274 101.866 77.6693C101.908 77.7112 101.932 77.768 101.932 77.8272C101.931 77.8861 101.907 77.9422 101.865 77.9839C101.823 78.0255 101.767 78.0494 101.708 78.0505Z" fill="#E6E7E8"/>
<path d="M51.1357 88.9135L66.4089 53.0551L98.3291 61.6445L79.3103 104.341L51.1357 88.9135Z" fill="white"/>
<path d="M79.3105 104.565C79.2729 104.559 79.2375 104.543 79.2076 104.52L51.0151 89.11C50.9668 89.0834 50.9301 89.04 50.9119 88.9881C50.8938 88.9361 50.8954 88.8793 50.9166 88.8286L66.1898 52.9657C66.2115 52.9167 66.25 52.8772 66.2985 52.8542C66.347 52.8313 66.4021 52.8264 66.4538 52.8406L98.374 61.43C98.4051 61.4373 98.4342 61.4515 98.459 61.4716C98.4838 61.4917 98.5037 61.5172 98.5172 61.5462C98.5314 61.5754 98.5388 61.6075 98.5388 61.64C98.5388 61.6725 98.5314 61.7046 98.5172 61.7338L79.4984 104.431C79.4857 104.459 79.4672 104.484 79.444 104.505C79.4209 104.526 79.3937 104.542 79.3642 104.551C79.347 104.558 79.3289 104.563 79.3105 104.565ZM51.4223 88.8152L79.2076 104.029L98.0026 61.7918L66.5209 53.3052L51.4223 88.8152Z" fill="#231F20"/>
<path d="M59.4505 91.0664C59.4197 91.0745 59.3873 91.0745 59.3565 91.0664C59.3298 91.0544 59.3058 91.0371 59.2859 91.0157C59.2659 90.9943 59.2505 90.9691 59.2405 90.9416C59.2305 90.9141 59.2261 90.8849 59.2276 90.8557C59.2291 90.8265 59.2364 90.7979 59.2491 90.7716L74.5313 57.5217C74.5557 57.4679 74.6005 57.4259 74.6558 57.405C74.7112 57.3841 74.7726 57.3859 74.8266 57.41C74.8809 57.4353 74.923 57.4808 74.9439 57.5368C74.9648 57.5928 74.9629 57.6547 74.9385 57.7093L59.6564 90.9592C59.6345 90.9935 59.6039 91.0214 59.5678 91.0402C59.5317 91.059 59.4912 91.0681 59.4505 91.0664Z" fill="#E6E7E8"/>
<path d="M90.7127 70.274H90.6456L65.8093 62.6807C65.7806 62.6725 65.7538 62.6587 65.7306 62.64C65.7073 62.6213 65.688 62.5982 65.6738 62.572C65.6596 62.5458 65.6509 62.517 65.648 62.4873C65.6451 62.4577 65.6483 62.4277 65.6572 62.3993C65.6757 62.3429 65.7155 62.296 65.7681 62.2684C65.8208 62.2409 65.8821 62.235 65.9391 62.2519L90.7754 69.8452C90.8323 69.8618 90.8804 69.9003 90.9089 69.9522C90.9374 70.0042 90.9441 70.0653 90.9275 70.1222C90.9118 70.1665 90.8827 70.2049 90.8442 70.2321C90.8058 70.2593 90.7598 70.2739 90.7127 70.274Z" fill="#E6E7E8"/>
<path d="M77.9187 99.955C77.8922 99.9613 77.8647 99.9613 77.8382 99.955L53.2257 90.3383C53.1971 90.3275 53.1711 90.3108 53.1495 90.2892C53.1279 90.2677 53.1111 90.2417 53.1004 90.2132C53.0782 90.1572 53.0782 90.095 53.1004 90.039L68.6242 55.8109C68.6467 55.7618 68.6864 55.7225 68.7357 55.7003C68.7851 55.6782 68.8408 55.6746 68.8926 55.6903L93.7557 62.8951C93.7862 62.9039 93.8144 62.9193 93.8384 62.9401C93.8623 62.961 93.8815 62.9867 93.8945 63.0157C93.9067 63.0447 93.9129 63.0758 93.9129 63.1072C93.9129 63.1387 93.9067 63.1698 93.8945 63.1988L78.1022 99.8255C78.0851 99.8608 78.0592 99.8912 78.0272 99.9138C77.9951 99.9365 77.9578 99.9506 77.9187 99.955ZM53.624 89.9899L77.7889 99.4458L93.3977 63.2345L68.9598 56.1549L53.624 89.9899Z" fill="#E6E7E8"/>
<path d="M58.7075 64.2664C58.7075 64.2664 60.1753 58.5133 62.5471 57.5351C64.9188 56.5569 69.0985 56.2576 67.9171 57.41C66.7357 58.5624 63.4108 59.2324 63.4108 59.2324C63.4108 59.2324 64.7264 66.6516 61.7013 67.469C58.6762 68.2864 58.7075 64.2664 58.7075 64.2664Z" fill="white"/>
<path d="M60.9451 67.8039C60.4887 67.8125 60.0427 67.6678 59.6787 67.393C58.4838 66.4729 58.4838 64.3557 58.4838 64.2663C58.4816 64.2485 58.4816 64.2305 58.4838 64.2127C58.5465 63.976 60.0098 58.3435 62.4576 57.3341C64.2745 56.5837 67.7695 56.0611 68.2751 56.8249C68.3557 56.9499 68.4407 57.2135 68.0738 57.5753C67.0266 58.6026 64.4311 59.2413 63.6659 59.4111C63.8673 60.6751 64.6817 66.8972 61.7595 67.6923C61.4939 67.7637 61.2202 67.8012 60.9451 67.8039ZM58.9313 64.2931C58.9313 64.5299 58.9985 66.3031 59.9561 67.0401C60.2004 67.2081 60.4815 67.3152 60.7758 67.3525C61.0701 67.3899 61.369 67.3562 61.6477 67.2545C64.4401 66.4997 63.2094 59.3441 63.196 59.2726C63.1866 59.2153 63.1994 59.1567 63.2318 59.1085C63.2642 59.0604 63.3139 59.0264 63.3705 59.0135C63.4063 59.0135 66.6507 58.3435 67.765 57.2537C67.8992 57.1197 67.9037 57.0616 67.9037 57.0571C67.7068 56.7132 64.7712 56.8606 62.6322 57.745C60.4931 58.6294 59.0432 63.8733 58.9313 64.2931Z" fill="#231F20"/>
<path d="M40.6643 52.8897C37.7287 52.1795 36.0193 48.8697 35.1153 46.2522C34.0905 43.2551 32.9405 40.8163 33.9966 37.578C34.2382 36.832 34.6499 36.0459 35.3883 35.7913C35.5732 35.755 35.7494 35.6838 35.9074 35.5814C36.0295 35.4471 36.1157 35.2843 36.158 35.1079C37.6929 30.8914 42.6467 30.5117 46.4013 30.8958C48.5761 31.1192 51.4267 31.95 52.2188 34.1252C53.6687 38.1452 52.8676 42.6119 50.7912 46.2567C48.8401 49.6826 45.0543 53.9528 40.6643 52.8897Z" fill="white"/>
<path d="M42.0158 53.2739C41.5426 53.2732 41.071 53.2178 40.6106 53.1086C37.5587 52.3671 35.8224 49.0127 34.905 46.3282C34.7887 45.9843 34.6678 45.6448 34.5515 45.3143C33.6252 42.7057 32.8241 40.4456 33.7863 37.5199C34.1264 36.4747 34.641 35.8271 35.3167 35.5993L35.4644 35.5546C35.5696 35.531 35.6696 35.4886 35.7597 35.4295C35.8434 35.3331 35.9032 35.2183 35.9343 35.0945V35.0499C37.5095 30.7217 42.4991 30.2929 46.4102 30.6904C47.9004 30.8467 51.4715 31.481 52.4112 34.0672C53.785 37.8728 53.2615 42.3618 50.9703 46.3863C48.9923 49.8613 45.6942 53.2739 42.0158 53.2739ZM44.2264 31.0075C40.9776 31.0075 37.5721 31.9009 36.3683 35.1883V35.233C36.3294 35.419 36.2351 35.5889 36.0977 35.7204C35.9604 35.8519 35.7864 35.9389 35.5986 35.97C35.5584 35.97 35.5136 35.97 35.4733 36.0102C34.9408 36.1889 34.5202 36.7383 34.2248 37.645C33.3298 40.4411 34.0861 42.6298 34.9856 45.1669L35.3436 46.1808C36.2386 48.7625 37.8764 51.9875 40.7136 52.6709C44.7008 53.6401 48.4329 49.9373 50.5899 46.1495C52.8274 42.2412 53.3286 37.8862 51.9995 34.2057C51.1493 31.8562 47.7796 31.2666 46.37 31.1237C45.6579 31.0483 44.9425 31.0095 44.2264 31.0075Z" fill="#231F20"/>
<path d="M53.3242 43.943C53.3242 43.943 56.6268 47.6369 56.1882 48.566C55.7497 49.4951 53.8075 49.2047 53.8075 49.2047" fill="white"/>
<path d="M54.4696 49.4683C54.2377 49.4688 54.006 49.4539 53.776 49.4236C53.7167 49.4147 53.6633 49.3827 53.6276 49.3345C53.592 49.2863 53.5769 49.226 53.5858 49.1668C53.5947 49.1075 53.6268 49.0543 53.6751 49.0187C53.7234 48.9831 53.7838 48.9681 53.8431 48.9769C54.3354 49.0529 55.6868 49.102 55.9867 48.4677C56.2194 47.9764 54.6979 45.7877 53.1585 44.0859C53.1375 44.0652 53.1209 44.0405 53.1095 44.0133C53.0981 43.986 53.0923 43.9568 53.0923 43.9274C53.0923 43.8979 53.0981 43.8687 53.1095 43.8415C53.1209 43.8143 53.1375 43.7896 53.1585 43.7688C53.2003 43.7279 53.2565 43.705 53.3151 43.705C53.3737 43.705 53.4299 43.7279 53.4717 43.7688C54.04 44.4075 56.8503 47.628 56.376 48.6375C56.0717 49.3432 55.1319 49.4683 54.4696 49.4683Z" fill="#231F20"/>
<path d="M51.9593 38.6233C53.888 39.7757 53.8209 42.8175 54.0849 44.7515C54.4608 47.4673 54.7726 50.1934 55.0202 52.93C55.1768 54.6631 50.7153 55.3465 49.8561 54.9445L51.5431 61.6445L41.64 59.4111L40.7942 51.5185C40.7942 51.5185 43.7477 51.1121 44.9828 47.3511C46.2179 43.5902 45.3587 38.2123 45.3587 38.2123C45.3587 38.2123 50.0798 37.4932 51.9593 38.6233Z" fill="white"/>
<path d="M51.5431 61.8677H51.4939L41.5907 59.6344C41.5449 59.6236 41.5035 59.5989 41.4722 59.5638C41.441 59.5286 41.4214 59.4846 41.4162 59.4379L40.5704 51.5453C40.5641 51.4873 40.5806 51.4292 40.6166 51.3834C40.6525 51.3375 40.705 51.3074 40.7628 51.2996C40.8792 51.2996 43.5955 50.8529 44.7903 47.2796C45.9941 43.6125 45.1707 38.2971 45.1618 38.2435C45.157 38.214 45.1581 38.1838 45.165 38.1547C45.1719 38.1255 45.1845 38.0981 45.202 38.0738C45.238 38.0262 45.2908 37.9942 45.3497 37.9845C45.5421 37.9577 50.1693 37.2698 52.098 38.4311C53.7985 39.4495 54.0267 41.7856 54.2147 43.6661C54.2505 44.0413 54.2863 44.3941 54.331 44.7202C54.7025 47.427 55.0157 50.1829 55.2663 52.9076C55.2762 53.1799 55.2099 53.4495 55.0747 53.6862C54.9395 53.923 54.7409 54.1173 54.5011 54.2476C53.3913 55.0293 51.2254 55.3821 50.1827 55.2481L51.7803 61.5908C51.7889 61.6278 51.7881 61.6665 51.778 61.7031C51.7678 61.7398 51.7486 61.7734 51.7221 61.8007C51.6997 61.8252 51.6718 61.8441 51.6407 61.8557C51.6096 61.8673 51.5761 61.8715 51.5431 61.8677ZM41.8413 59.2279L51.2388 61.3451L49.6412 54.998C49.6313 54.957 49.6331 54.914 49.6466 54.874C49.6601 54.834 49.6846 54.7987 49.7174 54.772C49.7502 54.7454 49.7898 54.7285 49.8318 54.7235C49.8738 54.7184 49.9163 54.7253 49.9545 54.7434C50.5139 55.0025 53.0378 54.7166 54.2281 53.8858C54.3998 53.7959 54.5438 53.6612 54.6447 53.496C54.7456 53.3308 54.7996 53.1413 54.8009 52.9478C54.5548 50.2321 54.2415 47.4806 53.8701 44.7783C53.8209 44.4522 53.7851 44.0904 53.7493 43.7107C53.5748 41.9241 53.3555 39.6907 51.8474 38.7974C50.2856 37.8594 46.5624 38.2614 45.6182 38.382C45.7659 39.4585 46.3074 44.0279 45.1976 47.4047C44.1146 50.7055 41.7652 51.5051 41.0403 51.6793L41.8413 59.2279Z" fill="#231F20"/>
<path d="M54.6576 50.9199C54.6576 50.9199 51.9726 51.0673 51.1357 47.4806L54.6576 50.9199Z" fill="white"/>
<path d="M54.6354 51.1343C54.2997 51.1343 51.7356 51.0182 50.9211 47.5253C50.9144 47.496 50.9135 47.4656 50.9185 47.4359C50.9235 47.4062 50.9343 47.3778 50.9503 47.3523C50.9663 47.3268 50.9871 47.3047 51.0117 47.2872C51.0363 47.2698 51.064 47.2573 51.0934 47.2506C51.1228 47.2438 51.1532 47.2429 51.183 47.2479C51.2127 47.2529 51.2411 47.2637 51.2667 47.2797C51.2923 47.2956 51.3144 47.3165 51.3319 47.341C51.3494 47.3655 51.3619 47.3932 51.3686 47.4225C52.1517 50.7859 54.6309 50.6921 54.6622 50.6877C54.6916 50.6865 54.7209 50.6911 54.7486 50.7012C54.7762 50.7113 54.8015 50.7268 54.8231 50.7467C54.8447 50.7666 54.8622 50.7906 54.8745 50.8173C54.8868 50.8439 54.8938 50.8727 54.8949 50.9021C54.8967 50.9312 54.8927 50.9604 54.8831 50.9879C54.8734 51.0154 54.8583 51.0408 54.8387 51.0624C54.8191 51.084 54.7954 51.1016 54.7689 51.1139C54.7425 51.1263 54.7138 51.1332 54.6846 51.1343H54.6354Z" fill="#231F20"/>
<path d="M48.3614 46.4532C48.1847 45.7858 47.827 45.1799 47.3276 44.7023C46.9951 44.2844 46.6031 43.9172 46.1641 43.6124C45.9422 43.4612 45.6889 43.3618 45.4232 43.3216C45.1575 43.2814 44.8861 43.3014 44.6292 43.3802C44.4103 43.4703 44.213 43.6057 44.0503 43.7773C43.8876 43.949 43.7631 44.1531 43.685 44.3762C43.5347 44.8245 43.4858 45.3005 43.5418 45.7698C43.6452 46.7983 44.0182 47.7814 44.623 48.6204C45.2279 49.4594 46.0434 50.1246 46.9875 50.5492L46.813 50.4107" fill="white"/>
<path d="M46.9875 50.7547C46.9581 50.7614 46.9275 50.7614 46.898 50.7547C45.9196 50.3109 45.0744 49.6195 44.4464 48.749C43.8184 47.8785 43.4294 46.8591 43.318 45.7922C43.2575 45.2877 43.3126 44.776 43.4791 44.2959C43.5669 44.0424 43.7082 43.8107 43.8935 43.6165C44.0788 43.4223 44.3038 43.2701 44.5531 43.1703C44.8414 43.0799 45.1464 43.0555 45.4454 43.0988C45.7444 43.1421 46.0298 43.252 46.2805 43.4204C46.7386 43.7384 47.1486 44.1204 47.4977 44.5549C48.025 45.0634 48.4 45.7083 48.5806 46.4175C48.5853 46.4469 48.5842 46.4768 48.5773 46.5057C48.5704 46.5346 48.5579 46.5619 48.5404 46.5859C48.523 46.61 48.5009 46.6304 48.4756 46.6459C48.4502 46.6615 48.4221 46.6719 48.3927 46.6766C48.3633 46.6813 48.3333 46.6802 48.3043 46.6733C48.2754 46.6664 48.2481 46.6539 48.224 46.6365C48.1999 46.619 48.1795 46.597 48.1639 46.5717C48.1483 46.5464 48.1378 46.5183 48.1331 46.489C47.9614 45.864 47.6227 45.2973 47.1531 44.8497C46.8409 44.4361 46.4665 44.073 46.0433 43.7733C45.8499 43.6394 45.6289 43.5507 45.3965 43.5136C45.1641 43.4765 44.9264 43.4919 44.7008 43.5589C44.511 43.6371 44.3402 43.7548 44.1997 43.9043C44.0593 44.0537 43.9524 44.2314 43.8864 44.4254C43.7462 44.842 43.7018 45.2847 43.7566 45.7207C43.8522 46.6492 44.1753 47.5399 44.6974 48.3142C45.2195 49.0885 45.9246 49.7226 46.7504 50.1606C46.7845 50.1534 46.8197 50.1537 46.8537 50.1614C46.8877 50.1691 46.9196 50.1841 46.9473 50.2053L47.1173 50.3437C47.1601 50.3773 47.1892 50.4253 47.1991 50.4788C47.209 50.5322 47.199 50.5874 47.171 50.6341C47.1527 50.6677 47.1264 50.6963 47.0944 50.7173C47.0624 50.7384 47.0257 50.7512 46.9875 50.7547Z" fill="#231F20"/>
<path d="M49.8559 54.94C49.8559 54.94 47.4349 54.5603 46.1282 53.131C46.1282 53.131 46.7502 56.7043 50.4734 57.4056L49.8559 54.94Z" fill="#231F20"/>
<path d="M50.4735 57.6199H50.4332C46.6026 56.9187 45.9135 53.2024 45.9045 53.1533C45.8967 53.105 45.9047 53.0554 45.9272 53.012C45.9498 52.9685 45.9858 52.9335 46.0298 52.9121C46.0726 52.891 46.121 52.8844 46.1679 52.8932C46.2147 52.9021 46.2574 52.926 46.2894 52.9612C47.529 54.3012 49.8694 54.6987 49.8694 54.7032C49.9129 54.7097 49.9534 54.7289 49.9861 54.7582C50.0187 54.7876 50.0419 54.826 50.0529 54.8685L50.6749 57.3341C50.6833 57.3701 50.6829 57.4076 50.6735 57.4434C50.6641 57.4792 50.6462 57.5122 50.6212 57.5395C50.6031 57.562 50.5807 57.5806 50.5554 57.5944C50.53 57.6082 50.5022 57.6169 50.4735 57.6199ZM46.54 53.8233C46.8166 54.631 47.2923 55.3563 47.9234 55.9324C48.5545 56.5084 49.3206 56.9167 50.1513 57.1197L49.6725 55.1409C48.5463 54.9291 47.4784 54.4799 46.54 53.8233Z" fill="#231F20"/>
<path d="M51.8899 42.296C51.9027 41.7534 51.7408 41.3095 51.5283 41.3045C51.3158 41.2995 51.1332 41.7353 51.1204 42.2779C51.1076 42.8204 51.2694 43.2643 51.4819 43.2693C51.6944 43.2743 51.877 42.8385 51.8899 42.296Z" fill="#231F20"/>
<path d="M83.1633 81.1191C86.1884 77.5189 89.576 72.9406 87.4056 67.9737C87.1953 67.5002 86.8194 66.9865 86.3048 67.0223C86.086 67.0574 85.8779 67.1414 85.6962 67.2679L83.8167 68.4114C83.8749 67.8977 83.226 67.5181 82.7248 67.6744C82.2405 67.8667 81.8364 68.2181 81.5792 68.6705C79.6415 71.4264 78.384 74.0305 78.4959 77.4385" fill="white"/>
<path d="M83.1589 81.3425C83.1065 81.3416 83.0559 81.3227 83.0157 81.2889C82.9931 81.2703 82.9743 81.2475 82.9607 81.2216C82.947 81.1957 82.9387 81.1674 82.9362 81.1382C82.9337 81.1091 82.937 81.0797 82.9461 81.0519C82.9551 81.024 82.9697 80.9983 82.9889 80.9762C86.1214 77.2465 89.2986 72.8647 87.1999 68.0631C87.1104 67.8621 86.7971 67.2144 86.3049 67.2457C86.1227 67.2798 85.9502 67.3529 85.7992 67.4601L83.9197 68.6035C83.8843 68.6262 83.8432 68.6383 83.8011 68.6383C83.7591 68.6383 83.7179 68.6262 83.6825 68.6035C83.6476 68.5815 83.6195 68.5501 83.6013 68.5131C83.5832 68.476 83.5757 68.4347 83.5796 68.3936C83.5845 68.3278 83.5728 68.2617 83.5454 68.2016C83.518 68.1415 83.4759 68.0893 83.423 68.0497C83.336 67.9769 83.2336 67.925 83.1234 67.8979C83.0133 67.8708 82.8984 67.8692 82.7875 67.8933C82.356 68.0693 81.9955 68.3836 81.7627 68.7867C80.1115 71.1317 78.6034 73.7983 78.7197 77.4163C78.7209 77.4456 78.7163 77.4749 78.7062 77.5025C78.696 77.53 78.6805 77.5553 78.6606 77.5769C78.6406 77.5984 78.6166 77.6159 78.5899 77.6282C78.5632 77.6405 78.5343 77.6474 78.5049 77.6485C78.4462 77.6487 78.3896 77.6267 78.3464 77.587C78.3033 77.5472 78.2768 77.4926 78.2722 77.4341C78.1514 73.6821 79.7042 70.9351 81.4047 68.5321C81.6885 68.0323 82.1379 67.647 82.6756 67.4422C82.8597 67.3977 83.0516 67.3972 83.2359 67.4406C83.4202 67.4841 83.5916 67.5703 83.7362 67.6923C83.8479 67.7847 83.9354 67.9027 83.9913 68.0363L85.5889 67.067C85.7993 66.9194 86.0415 66.823 86.2959 66.7856C86.815 66.7454 87.2983 67.1429 87.6384 67.871C90.0191 73.3293 85.6873 78.4793 83.3603 81.271C83.3354 81.2987 83.3039 81.3198 83.2687 81.3323C83.2336 81.3448 83.1958 81.3483 83.1589 81.3425Z" fill="#231F20"/>
<path d="M81.5793 71.69L84.8282 61.64L85.8396 61.9259L83.7945 71.8642C83.7945 71.8642 82.3401 73.2534 81.5793 71.69Z" fill="#231F20"/>
<path d="M82.5727 72.6414C82.5057 72.648 82.4383 72.648 82.3713 72.6414C82.15 72.5937 81.9438 72.4926 81.7706 72.347C81.5974 72.2014 81.4626 72.0157 81.3779 71.8061C81.3555 71.7518 81.3555 71.6908 81.3779 71.6364L84.6312 61.573C84.6389 61.5451 84.6521 61.519 84.6702 61.4963C84.6882 61.4737 84.7106 61.4549 84.7361 61.4411C84.7616 61.4273 84.7897 61.4189 84.8186 61.4162C84.8474 61.4135 84.8766 61.4167 84.9042 61.4256L85.9155 61.7115C85.97 61.7262 86.0167 61.7614 86.0459 61.8096C86.0751 61.8579 86.0845 61.9155 86.0721 61.9705L84.0136 71.9133C84.0036 71.9557 83.9819 71.9944 83.951 72.025C83.5748 72.3803 83.0888 72.5977 82.5727 72.6414ZM81.8209 71.6677C81.8769 71.7973 81.9628 71.9118 82.0717 72.0019C82.1806 72.092 82.3094 72.155 82.4474 72.1858C82.8728 72.1906 83.2835 72.0305 83.593 71.7391L85.5799 62.0867L84.9758 61.9125L81.8209 71.6677Z" fill="#231F20"/>
<path d="M77.5428 75.2053L69.0985 90.6733C69.0985 90.6733 66.6193 64.253 60.7258 60.434C54.8322 56.615 44.3786 56.414 35.5002 60.7109C28.4207 64.1235 26.1519 97.6369 27.5571 111.559H63.0125L62.6724 105.413C62.6724 105.413 64.8562 111.72 71.242 110.193C77.6278 108.665 85.0832 78.7205 85.0832 78.7205L77.5428 75.2053Z" fill="#6ECDBA"/>
<path d="M62.6725 105.614C62.6351 105.614 62.5984 105.604 62.5657 105.586C62.5329 105.568 62.505 105.543 62.4845 105.512C58.457 99.5039 56.1076 81.8963 56.0092 81.1459C56.0016 81.0873 56.0175 81.028 56.0536 80.9812C56.0897 80.9343 56.1429 80.9036 56.2016 80.8958C56.2601 80.8893 56.3189 80.9057 56.3656 80.9415C56.4123 80.9773 56.4433 81.0297 56.4522 81.0878C56.4522 81.271 58.9 99.3431 62.8604 105.266C62.8928 105.315 62.9044 105.375 62.8927 105.433C62.8809 105.491 62.8468 105.541 62.7978 105.574C62.7611 105.6 62.7174 105.614 62.6725 105.614Z" fill="#231F20"/>
<path d="M106.433 45.7699C106.433 49.6271 107.968 53.3263 110.701 56.0537C113.434 58.7811 117.14 60.3134 121.004 60.3134C124.868 60.3134 128.574 58.7811 131.307 56.0537C134.039 53.3263 135.575 49.6271 135.575 45.7699H121.004V31.2264C117.14 31.2264 113.434 32.7587 110.701 35.4861C107.968 38.2135 106.433 41.9127 106.433 45.7699Z" fill="#6ECDBA"/>
<path d="M123.358 29.078V43.6259H137.933C137.933 39.7676 136.397 36.0673 133.664 33.339C130.931 30.6107 127.223 29.078 123.358 29.078Z" fill="#E6E7E8"/>
<path d="M141.522 83.2407H132.124V91.4862H141.522V83.2407Z" fill="#6ECDBA"/>
<path d="M137.253 82.3877H136.161V84.0448H137.253V82.3877Z" fill="#E6E7E8"/>
<path d="M136.716 85.8984H133.865C133.806 85.8973 133.75 85.8734 133.708 85.8318C133.666 85.7901 133.643 85.734 133.641 85.6751C133.641 85.6159 133.665 85.5591 133.707 85.5172C133.749 85.4753 133.806 85.4518 133.865 85.4518H136.716C136.775 85.4518 136.832 85.4753 136.874 85.5172C136.916 85.5591 136.939 85.6159 136.939 85.6751C136.938 85.734 136.914 85.7901 136.873 85.8318C136.831 85.8734 136.775 85.8973 136.716 85.8984Z" fill="white"/>
<path d="M138.899 87.6673H133.865C133.806 87.6661 133.75 87.6422 133.708 87.6006C133.666 87.5589 133.643 87.5028 133.641 87.4439C133.641 87.3847 133.665 87.3279 133.707 87.286C133.749 87.2441 133.806 87.2206 133.865 87.2206H138.899C138.959 87.2206 139.016 87.2441 139.058 87.286C139.1 87.3279 139.123 87.3847 139.123 87.4439C139.122 87.5028 139.098 87.5589 139.056 87.6006C139.015 87.6422 138.958 87.6661 138.899 87.6673Z" fill="white"/>
<path d="M140.067 85.9521H137.969C137.909 85.9521 137.852 85.9285 137.81 85.8866C137.768 85.8448 137.745 85.7879 137.745 85.7287C137.745 85.6695 137.768 85.6127 137.81 85.5708C137.852 85.5289 137.909 85.5054 137.969 85.5054H140.067C140.127 85.5054 140.184 85.5289 140.226 85.5708C140.268 85.6127 140.291 85.6695 140.291 85.7287C140.291 85.7879 140.268 85.8448 140.226 85.8866C140.184 85.9285 140.127 85.9521 140.067 85.9521Z" fill="white"/>
<path d="M99.994 33.0533H95.0267C94.9993 33.0539 94.9721 33.049 94.9466 33.0389C94.9211 33.0289 94.8979 33.0138 94.8783 32.9947C94.8587 32.9756 94.8431 32.9527 94.8325 32.9275C94.8219 32.9022 94.8164 32.8752 94.8164 32.8478C94.8176 32.7929 94.8403 32.7406 94.8796 32.7022C94.9189 32.6638 94.9717 32.6423 95.0267 32.6423H99.994C100.048 32.6435 100.1 32.6655 100.138 32.7038C100.177 32.7421 100.199 32.7937 100.2 32.8478C100.2 32.8748 100.194 32.9015 100.184 32.9264C100.174 32.9514 100.159 32.974 100.14 32.9931C100.12 33.0122 100.098 33.0273 100.073 33.0376C100.048 33.0479 100.021 33.0533 99.994 33.0533Z" fill="#D1D3D4"/>
<path d="M101.864 33.0533H100.92C100.893 33.0539 100.866 33.049 100.841 33.0389C100.816 33.0288 100.793 33.0136 100.773 32.9944C100.754 32.9752 100.739 32.9523 100.729 32.9271C100.719 32.9019 100.714 32.8749 100.714 32.8478C100.714 32.7933 100.736 32.741 100.775 32.7025C100.813 32.664 100.866 32.6423 100.92 32.6423H101.864C101.919 32.6435 101.97 32.6655 102.009 32.7038C102.047 32.7421 102.069 32.7937 102.07 32.8478C102.07 32.9023 102.049 32.9546 102.01 32.9931C101.971 33.0316 101.919 33.0533 101.864 33.0533Z" fill="#D1D3D4"/>
<path d="M102.307 36.0147H94.9817C94.9275 36.0136 94.8758 35.9916 94.8374 35.9533C94.7991 35.915 94.777 35.8634 94.7759 35.8093C94.7759 35.7548 94.7976 35.7025 94.8362 35.664C94.8748 35.6255 94.9271 35.6038 94.9817 35.6038H102.307C102.335 35.6032 102.362 35.6081 102.387 35.6182C102.412 35.6283 102.435 35.6434 102.454 35.6626C102.473 35.6818 102.489 35.7047 102.499 35.7299C102.509 35.7551 102.514 35.7821 102.513 35.8093C102.513 35.8638 102.491 35.916 102.453 35.9546C102.414 35.9931 102.362 36.0147 102.307 36.0147Z" fill="#D1D3D4"/>
<path d="M97.3851 38.994H95.0088C94.9589 38.9867 94.9132 38.9617 94.8803 38.9235C94.8473 38.8854 94.8291 38.8367 94.8291 38.7863C94.8291 38.7359 94.8473 38.6872 94.8803 38.6491C94.9132 38.611 94.9589 38.5859 95.0088 38.5786H97.3851C97.435 38.5859 97.4806 38.611 97.5136 38.6491C97.5466 38.6872 97.5648 38.7359 97.5648 38.7863C97.5648 38.8367 97.5466 38.8854 97.5136 38.9235C97.4806 38.9617 97.435 38.9867 97.3851 38.994Z" fill="#D1D3D4"/>
<path d="M103.091 38.8867H98.8573C98.8027 38.8867 98.7503 38.865 98.7117 38.8265C98.6731 38.788 98.6514 38.7357 98.6514 38.6812C98.6508 38.6541 98.6557 38.6271 98.6658 38.6019C98.676 38.5767 98.6911 38.5538 98.7104 38.5346C98.7296 38.5154 98.7525 38.5003 98.7778 38.4902C98.803 38.48 98.8301 38.4751 98.8573 38.4758H103.091C103.145 38.4758 103.198 38.4974 103.236 38.5359C103.275 38.5745 103.296 38.6267 103.296 38.6812C103.295 38.7354 103.273 38.787 103.235 38.8253C103.197 38.8635 103.145 38.8856 103.091 38.8867Z" fill="#D1D3D4"/>
<path d="M99.994 33.0533H95.0267C94.9993 33.0539 94.9721 33.049 94.9466 33.0389C94.9211 33.0289 94.8979 33.0138 94.8783 32.9947C94.8587 32.9756 94.8431 32.9527 94.8325 32.9275C94.8219 32.9022 94.8164 32.8752 94.8164 32.8478C94.8176 32.7929 94.8403 32.7406 94.8796 32.7022C94.9189 32.6638 94.9717 32.6423 95.0267 32.6423H99.994C100.048 32.6435 100.1 32.6655 100.138 32.7038C100.177 32.7421 100.199 32.7937 100.2 32.8478C100.2 32.8748 100.194 32.9015 100.184 32.9264C100.174 32.9514 100.159 32.974 100.14 32.9931C100.12 33.0122 100.098 33.0273 100.073 33.0376C100.048 33.0479 100.021 33.0533 99.994 33.0533Z" stroke="#E6E7E8" stroke-linecap="round" stroke-linejoin="round"/>
<path d="M101.864 33.0533H100.92C100.893 33.0539 100.866 33.049 100.841 33.0389C100.816 33.0288 100.793 33.0136 100.773 32.9944C100.754 32.9752 100.739 32.9523 100.729 32.9271C100.719 32.9019 100.714 32.8749 100.714 32.8478C100.714 32.7933 100.736 32.741 100.775 32.7025C100.813 32.664 100.866 32.6423 100.92 32.6423H101.864C101.919 32.6435 101.97 32.6655 102.009 32.7038C102.047 32.7421 102.069 32.7937 102.07 32.8478C102.07 32.9023 102.049 32.9546 102.01 32.9931C101.971 33.0316 101.919 33.0533 101.864 33.0533Z" stroke="#E6E7E8" stroke-linecap="round" stroke-linejoin="round"/>
<path d="M102.307 36.0147H94.9817C94.9275 36.0136 94.8758 35.9916 94.8374 35.9533C94.7991 35.915 94.777 35.8634 94.7759 35.8093C94.7759 35.7548 94.7976 35.7025 94.8362 35.664C94.8748 35.6255 94.9271 35.6038 94.9817 35.6038H102.307C102.335 35.6032 102.362 35.6081 102.387 35.6182C102.412 35.6283 102.435 35.6434 102.454 35.6626C102.473 35.6818 102.489 35.7047 102.499 35.7299C102.509 35.7551 102.514 35.7821 102.513 35.8093C102.513 35.8638 102.491 35.916 102.453 35.9546C102.414 35.9931 102.362 36.0147 102.307 36.0147Z" stroke="#E6E7E8" stroke-linecap="round" stroke-linejoin="round"/>
<path d="M97.3851 38.994H95.0088C94.9589 38.9867 94.9132 38.9617 94.8803 38.9235C94.8473 38.8854 94.8291 38.8367 94.8291 38.7863C94.8291 38.7359 94.8473 38.6872 94.8803 38.6491C94.9132 38.611 94.9589 38.5859 95.0088 38.5786H97.3851C97.435 38.5859 97.4806 38.611 97.5136 38.6491C97.5466 38.6872 97.5648 38.7359 97.5648 38.7863C97.5648 38.8367 97.5466 38.8854 97.5136 38.9235C97.4806 38.9617 97.435 38.9867 97.3851 38.994V38.994Z" stroke="#E6E7E8" stroke-linecap="round" stroke-linejoin="round"/>
<path d="M103.091 38.8867H98.8573C98.8027 38.8867 98.7503 38.865 98.7117 38.8265C98.6731 38.788 98.6514 38.7357 98.6514 38.6812C98.6508 38.6541 98.6557 38.6271 98.6658 38.6019C98.676 38.5767 98.6911 38.5538 98.7104 38.5346C98.7296 38.5154 98.7525 38.5003 98.7778 38.4902C98.803 38.48 98.8301 38.4751 98.8573 38.4758H103.091C103.145 38.4758 103.198 38.4974 103.236 38.5359C103.275 38.5745 103.296 38.6267 103.296 38.6812C103.295 38.7354 103.273 38.787 103.235 38.8253C103.197 38.8635 103.145 38.8856 103.091 38.8867V38.8867Z" stroke="#E6E7E8" stroke-linecap="round" stroke-linejoin="round"/>
<path d="M131.883 66.656H107.718C107.658 66.656 107.601 66.6325 107.559 66.5906C107.517 66.5487 107.494 66.4919 107.494 66.4327C107.494 66.3734 107.517 66.3166 107.559 66.2748C107.601 66.2329 107.658 66.2094 107.718 66.2094H131.883C131.942 66.2094 131.999 66.2329 132.041 66.2748C132.083 66.3166 132.106 66.3734 132.106 66.4327C132.106 66.4919 132.083 66.5487 132.041 66.5906C131.999 66.6325 131.942 66.656 131.883 66.656Z" fill="#D1D3D4"/>
<path d="M126.674 72.0071H108.085C108.025 72.0071 107.968 71.9836 107.926 71.9417C107.884 71.8998 107.861 71.843 107.861 71.7838C107.861 71.7245 107.884 71.6677 107.926 71.6258C107.968 71.584 108.025 71.5604 108.085 71.5604H126.674C126.733 71.5604 126.79 71.584 126.832 71.6258C126.874 71.6677 126.897 71.7245 126.897 71.7838C126.897 71.843 126.874 71.8998 126.832 71.9417C126.79 71.9836 126.733 72.0071 126.674 72.0071Z" fill="#D1D3D4"/>
<path d="M129.278 77.1662H107.727C107.668 77.165 107.611 77.1411 107.57 77.0995C107.528 77.0578 107.504 77.0017 107.503 76.9428C107.503 76.8836 107.527 76.8268 107.568 76.7849C107.61 76.743 107.667 76.7195 107.727 76.7195H129.278C129.338 76.7195 129.395 76.743 129.437 76.7849C129.478 76.8268 129.502 76.8836 129.502 76.9428C129.502 77.002 129.478 77.0589 129.437 77.1007C129.395 77.1426 129.338 77.1662 129.278 77.1662Z" fill="#D1D3D4"/>
<path d="M132.711 71.7525H129.278C129.219 71.7525 129.162 71.7289 129.12 71.687C129.078 71.6452 129.055 71.5884 129.055 71.5291C129.055 71.4699 129.078 71.4131 129.12 71.3712C129.162 71.3293 129.219 71.3058 129.278 71.3058H132.711C132.77 71.3058 132.827 71.3293 132.869 71.3712C132.911 71.4131 132.935 71.4699 132.935 71.5291C132.935 71.5884 132.911 71.6452 132.869 71.687C132.827 71.7289 132.77 71.7525 132.711 71.7525Z" fill="#D1D3D4"/>
<path d="M95.04 49.7139H73.7167C73.6573 49.7139 73.6004 49.6904 73.5585 49.6485C73.5165 49.6066 73.4929 49.5498 73.4929 49.4906V32.0349C73.4929 31.9756 73.5165 31.9188 73.5585 31.8769C73.6004 31.8351 73.6573 31.8115 73.7167 31.8115C73.776 31.8115 73.8329 31.8351 73.8749 31.8769C73.9168 31.9188 73.9404 31.9756 73.9404 32.0349V49.2673H95.04C95.0994 49.2673 95.1563 49.2908 95.1982 49.3327C95.2402 49.3746 95.2638 49.4314 95.2638 49.4906C95.2638 49.5498 95.2402 49.6066 95.1982 49.6485C95.1563 49.6904 95.0994 49.7139 95.04 49.7139Z" fill="#E6E7E8"/>
<path d="M73.7166 49.7139C73.6599 49.7127 73.6056 49.6904 73.5644 49.6514C73.5235 49.6096 73.5005 49.5535 73.5005 49.495C73.5005 49.4366 73.5235 49.3805 73.5644 49.3387L82.5145 39.7577C82.5384 39.7335 82.5675 39.715 82.5996 39.7035C82.6316 39.692 82.6659 39.6878 82.6998 39.6912C82.7337 39.6946 82.7664 39.7056 82.7955 39.7233C82.8246 39.741 82.8494 39.765 82.868 39.7934L84.8415 42.9469L91.0438 36.1442C91.0642 36.1234 91.0886 36.1069 91.1155 36.0956C91.1424 36.0843 91.1713 36.0785 91.2004 36.0785C91.2296 36.0785 91.2585 36.0843 91.2854 36.0956C91.3123 36.1069 91.3366 36.1234 91.3571 36.1442C91.378 36.1649 91.3947 36.1896 91.406 36.2169C91.4174 36.2441 91.4232 36.2733 91.4232 36.3028C91.4232 36.3322 91.4174 36.3614 91.406 36.3886C91.3947 36.4159 91.378 36.4406 91.3571 36.4613L84.9578 43.4829C84.9342 43.5089 84.9051 43.5292 84.8725 43.5424C84.84 43.5555 84.8049 43.5612 84.7699 43.5588C84.7358 43.5551 84.7031 43.5435 84.6743 43.5249C84.6455 43.5063 84.6216 43.4812 84.6043 43.4516L82.6263 40.2937L73.8688 49.6737C73.824 49.7037 73.7704 49.7178 73.7166 49.7139Z" fill="#E6E7E8"/>
</svg>
