<svg width="303" height="232" viewBox="0 0 303 232" fill="none" xmlns="http://www.w3.org/2000/svg">
<path d="M205.79 222.99L203.91 229.93L174.63 219.33L185.04 216.79" fill="white"/>
<path d="M203.91 230.43C203.854 230.441 203.796 230.441 203.74 230.43L174.46 219.83C174.358 219.794 174.271 219.725 174.212 219.635C174.152 219.545 174.124 219.438 174.13 219.33C174.134 219.223 174.173 219.119 174.242 219.036C174.311 218.953 174.405 218.895 174.51 218.87L184.92 216.34C185.053 216.309 185.192 216.331 185.309 216.402C185.425 216.473 185.508 216.588 185.54 216.72C185.572 216.853 185.55 216.993 185.478 217.109C185.407 217.225 185.293 217.309 185.16 217.34L176.35 219.48L203.57 229.34L205.3 222.92C205.335 222.791 205.42 222.68 205.536 222.613C205.652 222.546 205.79 222.527 205.92 222.56C206.046 222.6 206.153 222.686 206.218 222.801C206.283 222.916 206.301 223.052 206.27 223.18L204.39 230.12C204.352 230.256 204.262 230.37 204.14 230.44C204.063 230.452 203.985 230.449 203.91 230.43Z" fill="#231F20"/>
<path d="M100.51 211.1C100.377 211.1 100.25 211.047 100.156 210.954C100.063 210.86 100.01 210.733 100.01 210.6V1.12012C100.01 0.987509 100.063 0.860332 100.156 0.766563C100.25 0.672795 100.377 0.620117 100.51 0.620117C100.643 0.620117 100.77 0.672795 100.864 0.766563C100.957 0.860332 101.01 0.987509 101.01 1.12012V210.6C101.01 210.733 100.957 210.86 100.864 210.954C100.77 211.047 100.643 211.1 100.51 211.1Z" fill="#D1D3D4"/>
<path d="M119.47 230.62C119.335 230.62 119.206 230.566 119.11 230.47L100.6 211.35L82.0902 230.47C82.0437 230.517 81.9884 230.554 81.9275 230.58C81.8665 230.605 81.8012 230.618 81.7352 230.618C81.6692 230.618 81.6038 230.605 81.5429 230.58C81.4819 230.554 81.4267 230.517 81.3802 230.47C81.2879 230.375 81.2363 230.248 81.2363 230.115C81.2363 229.983 81.2879 229.855 81.3802 229.76L100.25 210.28C100.346 210.185 100.475 210.131 100.61 210.131C100.745 210.131 100.875 210.185 100.97 210.28L119.84 229.76C119.887 229.807 119.924 229.862 119.95 229.923C119.975 229.984 119.988 230.049 119.988 230.115C119.988 230.181 119.975 230.246 119.95 230.307C119.924 230.368 119.887 230.424 119.84 230.47C119.792 230.52 119.735 230.559 119.671 230.584C119.607 230.61 119.539 230.622 119.47 230.62Z" fill="#D1D3D4"/>
<path d="M100.51 211.1C100.377 211.1 100.25 211.047 100.156 210.954C100.063 210.86 100.01 210.733 100.01 210.6V1.12012C100.01 0.987509 100.063 0.860332 100.156 0.766563C100.25 0.672795 100.377 0.620117 100.51 0.620117C100.643 0.620117 100.77 0.672795 100.864 0.766563C100.957 0.860332 101.01 0.987509 101.01 1.12012V210.6C101.01 210.733 100.957 210.86 100.864 210.954C100.77 211.047 100.643 211.1 100.51 211.1Z" fill="#231F20"/>
<path d="M119.47 230.62C119.335 230.62 119.206 230.566 119.11 230.47L100.6 211.35L82.0902 230.47C82.0437 230.517 81.9884 230.554 81.9275 230.58C81.8665 230.605 81.8012 230.618 81.7352 230.618C81.6692 230.618 81.6038 230.605 81.5429 230.58C81.4819 230.554 81.4267 230.517 81.3802 230.47C81.2879 230.375 81.2363 230.248 81.2363 230.115C81.2363 229.983 81.2879 229.855 81.3802 229.76L100.25 210.28C100.346 210.185 100.475 210.131 100.61 210.131C100.745 210.131 100.875 210.185 100.97 210.28L119.84 229.76C119.887 229.807 119.924 229.862 119.95 229.923C119.975 229.984 119.988 230.049 119.988 230.115C119.988 230.181 119.975 230.246 119.95 230.307C119.924 230.368 119.887 230.424 119.84 230.47C119.792 230.52 119.735 230.559 119.671 230.584C119.607 230.61 119.539 230.622 119.47 230.62Z" fill="#231F20"/>
<path d="M182.17 5.6001H19.04V126.17H182.17V5.6001Z" fill="white"/>
<path d="M182.16 126.69H19C18.8621 126.69 18.7298 126.636 18.6323 126.538C18.5348 126.441 18.48 126.308 18.48 126.17V5.60043C18.48 5.5326 18.4935 5.46546 18.5197 5.40292C18.546 5.34039 18.5845 5.28371 18.6329 5.23622C18.6813 5.18873 18.7387 5.15138 18.8017 5.12634C18.8648 5.10131 18.9322 5.0891 19 5.09043H182.16C182.228 5.0891 182.295 5.10131 182.358 5.12634C182.421 5.15138 182.479 5.18873 182.527 5.23622C182.576 5.28371 182.614 5.34039 182.64 5.40292C182.666 5.46546 182.68 5.5326 182.68 5.60043V126.17C182.68 126.239 182.667 126.306 182.64 126.369C182.614 126.433 182.576 126.49 182.528 126.538C182.479 126.586 182.422 126.625 182.359 126.651C182.296 126.677 182.228 126.69 182.16 126.69ZM19.55 125.69H181.65V6.12043H19.55V125.69Z" fill="#231F20"/>
<path d="M55.0599 60.0603C56.5124 60.0603 57.6899 58.8828 57.6899 57.4303C57.6899 55.9778 56.5124 54.8003 55.0599 54.8003C53.6074 54.8003 52.4299 55.9778 52.4299 57.4303C52.4299 58.8828 53.6074 60.0603 55.0599 60.0603Z" fill="white"/>
<path d="M85.65 50.1101C87.1025 50.1101 88.28 48.9326 88.28 47.4801C88.28 46.0276 87.1025 44.8501 85.65 44.8501C84.1975 44.8501 83.02 46.0276 83.02 47.4801C83.02 48.9326 84.1975 50.1101 85.65 50.1101Z" fill="white"/>
<path d="M104.61 61.9402C106.062 61.9402 107.24 60.7627 107.24 59.3102C107.24 57.8577 106.062 56.6802 104.61 56.6802C103.157 56.6802 101.98 57.8577 101.98 59.3102C101.98 60.7627 103.157 61.9402 104.61 61.9402Z" fill="white"/>
<path d="M71.7601 73.2004C73.2126 73.2004 74.3901 72.0229 74.3901 70.5704C74.3901 69.1179 73.2126 67.9404 71.7601 67.9404C70.3076 67.9404 69.1301 69.1179 69.1301 70.5704C69.1301 72.0229 70.3076 73.2004 71.7601 73.2004Z" fill="white"/>
<path d="M208.12 101.32C208.12 101.32 190.85 154.63 185 216.79L205.74 222.99L233.74 132.89L244.25 223.89L266.2 224.36C266.2 224.36 266.4 170.01 260.77 101.36C249.4 101.12 208.12 101.32 208.12 101.32Z" fill="#231F20"/>
<path d="M153.6 73.8102C153.6 73.8102 176.11 101.93 186.49 101.03C196.87 100.13 209.74 78.9102 209.74 78.9102L199.13 60.1802C199.13 60.1802 185.59 76.6502 183.13 75.5302C180.67 74.4102 163.95 62.2102 163.95 62.2102" fill="white"/>
<path d="M186 101.55C175.29 101.55 154.12 75.2604 153.21 74.1204C153.163 74.07 153.126 74.0103 153.103 73.9451C153.08 73.8799 153.07 73.8106 153.075 73.7415C153.08 73.6725 153.099 73.6052 153.131 73.5439C153.164 73.4827 153.208 73.4288 153.263 73.3857C153.317 73.3427 153.379 73.3113 153.446 73.2937C153.513 73.276 153.583 73.2725 153.652 73.2832C153.72 73.294 153.785 73.3189 153.844 73.3563C153.902 73.3936 153.952 73.4427 153.99 73.5004C154.22 73.7704 176.46 101.39 186.45 100.5C195.86 99.6804 207.67 81.2404 209.15 78.8704L199.05 61.0204C197.99 62.2904 195.28 65.5004 192.41 68.5904C184.77 76.8104 183.46 76.2104 182.9 75.9504C180.4 74.8104 164.31 63.0804 163.62 62.5804C163.515 62.5007 163.444 62.3832 163.424 62.2526C163.403 62.122 163.434 61.9885 163.51 61.8804C163.59 61.7743 163.708 61.7041 163.839 61.6854C163.971 61.6666 164.104 61.7008 164.21 61.7804C164.38 61.9004 180.9 73.9504 183.31 75.0404C184.31 75.4904 190.53 69.8304 198.74 59.8304C198.791 59.767 198.857 59.7174 198.932 59.686C199.007 59.6545 199.089 59.6423 199.17 59.6504C199.251 59.6557 199.329 59.6815 199.397 59.7252C199.465 59.7689 199.521 59.8292 199.56 59.9004L210.17 78.6304C210.217 78.7072 210.242 78.7954 210.242 78.8854C210.242 78.9753 210.217 79.0635 210.17 79.1404C209.64 80.0204 197.06 100.58 186.54 101.5L186 101.55Z" fill="#231F20"/>
<path d="M258.13 69.1202L272 63.4102C267.07 52.8902 261.52 46.6402 257.69 44.2002C252.8 40.1302 240.69 39.8502 229.56 39.4202C226.006 39.1991 222.439 39.5366 218.99 40.4202C205.99 44.0102 193.99 62.7802 193.99 62.7802L205.6 69.7002C205.6 69.7002 204.31 95.2402 205.98 103.88C205.98 103.88 236.09 116.88 261.37 109.77C261.35 109.8 257.83 72.4202 258.13 69.1202Z" fill="#6ECDBA"/>
<path d="M231.49 36.0001L229.76 44.3401C229.76 44.3401 231.61 49.8801 237.21 49.3401C238.868 49.15 240.463 48.5938 241.879 47.7118C243.295 46.8297 244.498 45.6439 245.4 44.2401L247.4 28.9101C247.4 28.9101 243.66 26.2201 246.02 17.6401C241.32 18.955 236.353 18.9792 231.64 17.7101C231.64 17.7101 227.9 26.8601 227.99 31.1601C228.08 35.4601 231.49 36.0001 231.49 36.0001Z" fill="white"/>
<path d="M236.4 49.87C231.12 49.87 229.29 44.57 229.27 44.52C229.245 44.4317 229.245 44.3383 229.27 44.25L230.91 36.37C229.855 35.9798 228.953 35.2609 228.337 34.3192C227.722 33.3776 227.425 32.2631 227.49 31.14C227.4 26.78 231.02 17.86 231.17 17.48C231.217 17.3637 231.305 17.2689 231.418 17.2136C231.53 17.1582 231.659 17.1463 231.78 17.18C236.396 18.41 241.255 18.3893 245.86 17.12C245.949 17.0899 246.044 17.0842 246.135 17.1035C246.227 17.1229 246.311 17.1666 246.38 17.23C246.448 17.2941 246.497 17.3755 246.521 17.4654C246.546 17.5554 246.546 17.6503 246.52 17.74C244.31 25.82 247.68 28.44 247.71 28.46C247.785 28.5158 247.844 28.5906 247.881 28.6767C247.918 28.7627 247.932 28.8571 247.92 28.95L245.92 44.28C245.911 44.3462 245.891 44.4105 245.86 44.47C244.922 45.9471 243.663 47.1947 242.178 48.1206C240.693 49.0466 239.02 49.6273 237.28 49.82C237 49.85 236.68 49.87 236.4 49.87ZM230.29 44.31C230.6 45.12 232.43 49.31 237.16 48.79C238.721 48.6031 240.223 48.0776 241.559 47.2502C242.896 46.4229 244.036 45.3137 244.9 44L246.84 29C246.03 28.23 243.62 25.25 245.28 18.26C240.893 19.3095 236.318 19.2889 231.94 18.2C231.22 20.03 228.42 27.4 228.5 31.02C228.58 34.82 231.5 35.39 231.58 35.41C231.649 35.4219 231.715 35.4476 231.774 35.4856C231.832 35.5235 231.883 35.5729 231.922 35.6307C231.961 35.6886 231.988 35.7538 232.002 35.8224C232.015 35.891 232.015 35.9616 232 36.03L230.29 44.31Z" fill="#231F20"/>
<path d="M244.24 28.1903C244.523 27.4661 245.036 26.8548 245.7 26.4503C246.324 26.1095 247 25.873 247.7 25.7503C248.085 25.6607 248.485 25.6607 248.87 25.7503C249.138 25.8301 249.389 25.9589 249.61 26.1303C250.159 26.4965 250.559 27.0459 250.74 27.6803C250.818 28.204 250.77 28.7389 250.6 29.2403C250.453 29.798 250.238 30.3354 249.96 30.8403C249.665 31.3334 249.275 31.7632 248.813 32.1049C248.351 32.4466 247.826 32.6934 247.268 32.831C246.711 32.9686 246.131 32.9943 245.563 32.9067C244.995 32.819 244.45 32.6197 243.96 32.3203" fill="white"/>
<path d="M246.27 33.42C245.371 33.4212 244.489 33.1756 243.72 32.71C243.604 32.6377 243.521 32.5227 243.489 32.3898C243.458 32.257 243.479 32.1169 243.55 32C243.585 31.9416 243.631 31.8907 243.686 31.8504C243.741 31.8101 243.803 31.7812 243.869 31.7654C243.935 31.7495 244.004 31.7471 244.071 31.7582C244.138 31.7693 244.202 31.7937 244.26 31.83C244.692 32.0942 245.172 32.27 245.672 32.3472C246.172 32.4243 246.683 32.4013 247.174 32.2794C247.665 32.1575 248.127 31.9392 248.534 31.6371C248.94 31.3351 249.282 30.9554 249.54 30.52C249.804 30.0596 250.002 29.5649 250.13 29.05C250.276 28.6296 250.32 28.1808 250.26 27.74C250.107 27.2295 249.777 26.7901 249.33 26.5C249.169 26.3629 248.982 26.2607 248.78 26.2C248.47 26.1316 248.15 26.1316 247.84 26.2C247.185 26.3072 246.553 26.5235 245.97 26.84C245.404 27.1855 244.966 27.7047 244.72 28.32C244.671 28.4485 244.573 28.5522 244.447 28.6084C244.321 28.6646 244.179 28.6688 244.05 28.62C243.925 28.5668 243.825 28.4676 243.771 28.3429C243.717 28.2182 243.713 28.0775 243.76 27.95C244.086 27.1202 244.672 26.4184 245.43 25.95C246.116 25.5734 246.859 25.3132 247.63 25.18C248.09 25.0696 248.57 25.0696 249.03 25.18C249.365 25.2725 249.678 25.4324 249.95 25.65C250.598 26.0883 251.066 26.7449 251.27 27.5C251.369 28.1065 251.317 28.728 251.12 29.31C250.972 29.9128 250.739 30.4918 250.43 31.03C249.765 32.1413 248.686 32.9433 247.43 33.26C247.052 33.3633 246.662 33.4171 246.27 33.42Z" fill="#231F20"/>
<path d="M248.16 37.1802C248.046 37.165 247.94 37.1122 247.859 37.0301C247.778 36.948 247.726 36.8413 247.713 36.7267C247.699 36.6122 247.724 36.4963 247.783 36.3974C247.842 36.2985 247.933 36.2221 248.04 36.1802C249.609 35.781 251.079 35.0661 252.362 34.0792C253.644 33.0922 254.712 31.854 255.5 30.4402C257.937 26.1358 258.716 21.089 257.69 16.2502C257.02 13.5802 256.15 12.8202 255.53 12.6502C255.229 12.6115 254.923 12.6418 254.636 12.7388C254.348 12.8358 254.086 12.997 253.87 13.2102C253.795 13.2873 253.698 13.3392 253.593 13.3589C253.487 13.3786 253.378 13.3651 253.28 13.3202C253.185 13.2725 253.107 13.1975 253.055 13.1048C253.004 13.0121 252.981 12.906 252.99 12.8002C252.99 12.6602 253.28 9.44021 249.99 6.20021C247.54 3.83021 239.52 0.880212 233.45 1.67021C230.33 2.08021 228.09 3.39021 226.79 5.56021C225.4 7.90022 224.99 10.0602 225.57 11.9902C226.292 13.9439 227.719 15.5566 229.57 16.5102C229.631 16.5391 229.686 16.5797 229.731 16.6298C229.777 16.6799 229.812 16.7384 229.835 16.802C229.857 16.8656 229.867 16.933 229.864 17.0005C229.861 17.068 229.844 17.1341 229.815 17.1952C229.786 17.2563 229.746 17.3111 229.696 17.3564C229.645 17.4018 229.587 17.4368 229.523 17.4596C229.395 17.5055 229.253 17.4986 229.13 17.4402C227.001 16.3805 225.363 14.5389 224.56 12.3002C223.88 10.0802 224.32 7.63021 225.88 5.03021C227.34 2.58021 229.83 1.10022 233.28 0.650215C239.87 -0.219785 248.12 2.97021 250.68 5.46021C252.507 7.13482 253.684 9.40189 254 11.8602C254.55 11.5599 255.193 11.4777 255.8 11.6302C257.08 11.9802 258.05 13.4402 258.69 15.9802C259.782 21.0944 258.96 26.4316 256.38 30.9802C255.521 32.5091 254.361 33.8483 252.971 34.9172C251.581 35.9861 249.988 36.7627 248.29 37.2002L248.16 37.1802Z" fill="#231F20"/>
<path d="M230.82 40.18C231.808 40.4274 232.838 40.4607 233.84 40.2779C234.842 40.0951 235.793 39.7003 236.63 39.12C239.33 37.12 239.3 35.77 239.3 35.77C239.3 35.77 235.16 37.36 231.7 36.17L230.82 40.18Z" fill="#231F20"/>
<path d="M232.59 40.9004C231.946 40.9059 231.303 40.8252 230.68 40.6604C230.56 40.6253 230.458 40.5458 230.395 40.4379C230.332 40.3301 230.312 40.2022 230.34 40.0804L231.21 36.0804C231.225 36.0119 231.254 35.9472 231.296 35.8904C231.337 35.8336 231.39 35.786 231.45 35.7504C231.515 35.7232 231.585 35.7092 231.655 35.7092C231.725 35.7092 231.795 35.7232 231.86 35.7504C235.1 36.8704 239.08 35.3704 239.12 35.3504C239.195 35.3214 239.276 35.311 239.357 35.3201C239.437 35.3292 239.513 35.3576 239.58 35.4028C239.647 35.4479 239.702 35.5086 239.74 35.5796C239.778 35.6506 239.799 35.7298 239.8 35.8104C239.8 35.9704 239.75 37.4904 236.92 39.5704C235.656 40.4661 234.139 40.9323 232.59 40.9004ZM231.42 39.8004C233.135 40.1056 234.901 39.7171 236.33 38.7204C237.181 38.1408 237.914 37.4044 238.49 36.5504C236.407 37.1833 234.197 37.2728 232.07 36.8104L231.42 39.8004Z" fill="#231F20"/>
<path d="M206 104.41C205.873 104.408 205.752 104.359 205.659 104.272C205.567 104.185 205.51 104.067 205.5 103.94C204.989 86.5019 206.422 69.0612 209.77 51.94C209.782 51.8761 209.807 51.8151 209.842 51.7608C209.878 51.7064 209.924 51.6597 209.978 51.6234C210.032 51.5871 210.093 51.5619 210.157 51.5493C210.221 51.5367 210.286 51.537 210.35 51.55C210.415 51.562 210.478 51.5868 210.533 51.6231C210.589 51.6593 210.636 51.7063 210.674 51.7612C210.711 51.8161 210.737 51.8779 210.75 51.9429C210.763 52.008 210.763 52.075 210.75 52.14C207.421 69.1693 205.996 86.5158 206.5 103.86C206.504 103.926 206.495 103.992 206.474 104.054C206.452 104.116 206.419 104.173 206.375 104.223C206.332 104.272 206.279 104.312 206.219 104.341C206.16 104.369 206.096 104.386 206.03 104.39L206 104.41Z" fill="#231F20"/>
<path d="M233.14 99.7302C233.14 98.9502 229.02 67.7302 229.02 67.7302L198.84 66.1802L204 97.1802L233.14 99.7302Z" fill="#231F20"/>
<path d="M270.92 60.5303C270.92 60.5303 294.29 101.92 279.37 104.45C268.98 106.22 248.25 101.45 240.51 97.4503C232.77 93.4503 229.56 90.5303 229.56 90.5303C229.56 90.5303 220.92 89.8903 221.95 87.8303C222.24 87.2498 222.715 86.7824 223.299 86.5017C223.884 86.221 224.546 86.1431 225.18 86.2803C225.18 86.2803 221.05 85.8903 221.57 83.9603C222.09 82.0303 225.44 82.6703 225.44 82.6703C225.44 82.6703 219.63 80.6003 221.18 79.4403C222.73 78.2803 225.69 79.1803 225.69 79.1803C225.69 79.1803 221.69 78.4603 221.83 76.7303C222.07 73.8003 234.59 76.9903 237.04 79.3103C239.49 81.6303 254.41 83.9603 257.12 84.2203L250.12 69.3003" fill="white"/>
<path d="M274.15 105.33C263.02 105.33 247.01 101.33 240.28 97.86C236.399 95.9823 232.736 93.6817 229.36 91C227.88 90.88 222.44 90.34 221.53 88.72C221.432 88.546 221.38 88.3497 221.38 88.15C221.38 87.9503 221.432 87.7539 221.53 87.58C221.8 87.0089 222.231 86.5293 222.77 86.2C222.208 86.0094 221.712 85.6625 221.34 85.2C221.198 85.0051 221.103 84.7803 221.061 84.5428C221.02 84.3053 221.033 84.0615 221.1 83.83C221.228 83.4044 221.475 83.0241 221.812 82.7337C222.148 82.4432 222.56 82.2547 223 82.19C221.76 81.59 220.57 80.82 220.45 80.03C220.42 79.8376 220.446 79.6404 220.526 79.4628C220.606 79.2851 220.736 79.1347 220.9 79.03C221.333 78.7252 221.828 78.5203 222.35 78.43C222.043 78.2529 221.789 77.9976 221.614 77.6901C221.438 77.3827 221.347 77.0341 221.35 76.68C221.383 76.3661 221.51 76.0697 221.716 75.8302C221.921 75.5908 222.195 75.4197 222.5 75.34C225.5 74.18 235.12 76.77 237.41 78.94C239.5 80.94 251.97 83.07 256.31 83.61L249.65 69.5C249.621 69.4403 249.605 69.3755 249.601 69.3094C249.598 69.2433 249.608 69.1771 249.63 69.1148C249.652 69.0525 249.687 68.9952 249.732 68.9463C249.776 68.8974 249.83 68.8579 249.89 68.83C250.011 68.7748 250.149 68.769 250.274 68.8138C250.399 68.8586 250.502 68.9505 250.56 69.07L257.56 84C257.604 84.076 257.627 84.1622 257.627 84.25C257.627 84.3377 257.604 84.424 257.56 84.5C257.509 84.5697 257.44 84.6255 257.362 84.6622C257.283 84.6988 257.197 84.7153 257.11 84.71C254.62 84.47 239.37 82.16 236.73 79.71C234.73 77.79 225.52 75.3 222.86 76.31C222.38 76.5 222.36 76.72 222.35 76.81C222.3 77.51 223.68 78.17 224.97 78.53C225.275 78.5778 225.576 78.648 225.87 78.74C225.992 78.7751 226.096 78.8562 226.159 78.9663C226.223 79.0763 226.241 79.2067 226.21 79.33C226.181 79.454 226.106 79.5623 226 79.6329C225.894 79.7035 225.766 79.7311 225.64 79.71C225.52 79.71 225.18 79.62 224.74 79.5C223.654 79.2242 222.505 79.3558 221.51 79.87C221.51 80.36 223.51 81.47 225.63 82.23C225.751 82.2691 225.851 82.3535 225.911 82.4654C225.971 82.5773 225.985 82.708 225.95 82.83C225.917 82.9523 225.839 83.0575 225.731 83.1244C225.623 83.1912 225.494 83.2146 225.37 83.19C225.37 83.19 222.46 82.68 222.08 84.11C222.049 84.2021 222.042 84.3003 222.057 84.3961C222.073 84.4918 222.112 84.5824 222.17 84.66C222.9 85.2944 223.816 85.6766 224.78 85.75C224.962 85.7595 225.142 85.7829 225.32 85.82C225.453 85.8412 225.571 85.9142 225.65 86.023C225.729 86.1318 225.761 86.2674 225.74 86.4C225.719 86.5326 225.646 86.6513 225.537 86.7301C225.428 86.8089 225.293 86.8412 225.16 86.82L224.72 86.76C224.254 86.7103 223.783 86.802 223.369 87.0231C222.956 87.2442 222.618 87.5846 222.4 88C222.38 88.0296 222.37 88.0644 222.37 88.1C222.37 88.1356 222.38 88.1704 222.4 88.2C222.91 89.1 226.92 89.78 229.6 89.99C229.711 89.9933 229.817 90.0358 229.9 90.11C229.9 90.11 233.17 93.05 240.74 96.96C248.31 100.87 269.07 105.68 279.28 103.96C280.094 103.862 280.868 103.556 281.53 103.073C282.192 102.59 282.719 101.945 283.06 101.2C287.69 91.46 270.66 61.08 270.48 60.77C270.424 60.6553 270.413 60.5233 270.451 60.4011C270.489 60.279 270.572 60.1759 270.683 60.1132C270.795 60.0504 270.926 60.0327 271.05 60.0638C271.174 60.0948 271.281 60.1722 271.35 60.28C272.07 61.55 288.82 91.43 283.96 101.63C283.551 102.519 282.922 103.289 282.133 103.868C281.344 104.447 280.421 104.816 279.45 104.94C277.697 105.218 275.925 105.348 274.15 105.33Z" fill="#231F20"/>
<path d="M166.55 64.2801C166.55 64.2801 160.55 48.28 159.24 48.84C157.93 49.4 160.24 59.3301 160.24 59.3301C160.24 59.3301 150.65 48.8901 149.41 49.5701C148.17 50.2501 148.95 52.83 152.56 58.13C152.56 58.13 146.19 50.78 145.18 52.31C144.17 53.84 150.42 60.4301 150.42 60.4301C150.42 60.4301 144.42 54.08 143.57 55.35C142.72 56.62 149.24 63.2201 149.24 63.2201C149.24 63.2201 143.14 56.1201 142.72 58.3201C142.3 60.5201 154.39 74.84 157.86 78.7801" fill="white"/>
<path d="M157.87 79.2803C157.799 79.2823 157.729 79.268 157.665 79.2385C157.601 79.209 157.544 79.1652 157.5 79.1103C157.34 78.9303 141.68 61.1103 142.24 58.2203C142.26 58.0353 142.336 57.8608 142.457 57.7197C142.579 57.5787 142.74 57.4778 142.92 57.4303C143.223 57.3761 143.535 57.4217 143.81 57.5603C143.14 56.4903 142.81 55.5603 143.16 55.0803C143.233 54.9674 143.332 54.8733 143.449 54.8055C143.565 54.7378 143.696 54.6983 143.83 54.6903C144.547 54.768 145.223 55.0609 145.77 55.5303C144.84 54.0803 144.29 52.7503 144.77 52.0303C144.856 51.9058 144.969 51.8025 145.101 51.728C145.232 51.6535 145.379 51.6099 145.53 51.6003C146.47 51.5403 148.08 52.8203 149.6 54.2703C148.31 51.8103 148.28 50.7503 148.43 50.1303C148.474 49.919 148.565 49.72 148.694 49.5473C148.824 49.3745 148.99 49.2322 149.18 49.1303C150.18 48.5903 153.58 51.4503 159.35 57.6203C158.42 53.3303 157.78 48.8503 159.06 48.3703C159.15 48.3315 159.247 48.3115 159.345 48.3115C159.443 48.3115 159.54 48.3315 159.63 48.3703C161.33 49.1403 165.72 60.5903 167.02 64.0803C167.05 64.1995 167.035 64.3255 166.978 64.4344C166.921 64.5433 166.826 64.6275 166.711 64.6708C166.596 64.714 166.469 64.7135 166.355 64.6691C166.24 64.6248 166.146 64.5398 166.09 64.4303C163.56 57.6703 160.44 50.4303 159.35 49.4303C159.03 50.3703 159.76 55.1203 160.74 59.2303C160.766 59.3368 160.755 59.4487 160.71 59.5484C160.665 59.6481 160.587 59.7298 160.49 59.7803C160.392 59.8345 160.278 59.854 160.168 59.8359C160.057 59.8177 159.956 59.763 159.88 59.6803C155.63 55.0003 150.67 50.2303 149.6 50.0003C149.494 50.0813 149.423 50.1991 149.4 50.3303C149.22 51.0703 149.69 52.9803 152.98 57.8103C153.051 57.9157 153.08 58.0443 153.06 58.17C153.04 58.2956 152.972 58.4089 152.872 58.4867C152.771 58.5645 152.644 58.6009 152.518 58.5886C152.391 58.5762 152.274 58.5161 152.19 58.4203C149.33 55.1203 146.25 52.4203 145.58 52.5603C145.18 53.1803 147.58 56.6603 150.77 60.0203C150.862 60.1171 150.911 60.2463 150.907 60.3795C150.903 60.5126 150.847 60.6388 150.75 60.7303C150.653 60.8218 150.524 60.8711 150.391 60.8674C150.258 60.8636 150.131 60.8071 150.04 60.7103C147.45 57.9703 144.76 55.7103 144.04 55.7103C144.04 56.2703 145.23 57.9903 147.04 60.0403C148.04 61.0403 149.04 62.1903 149.71 62.9203C149.796 63.0144 149.844 63.1376 149.844 63.2653C149.844 63.3931 149.796 63.5162 149.71 63.6103C149.617 63.7019 149.491 63.7533 149.36 63.7533C149.229 63.7533 149.103 63.7019 149.01 63.6103C148.2 62.7803 147.22 61.7503 146.3 60.6903C144.86 59.2903 143.66 58.3603 143.3 58.4203C143.06 59.9603 151.91 71.1403 158.38 78.4803C158.466 78.5818 158.509 78.7129 158.499 78.8455C158.49 78.9781 158.429 79.1019 158.33 79.1903C158.267 79.2418 158.191 79.2769 158.111 79.2926C158.031 79.3083 157.948 79.3041 157.87 79.2803Z" fill="#231F20"/>
<path d="M160.25 59.3301C159.331 59.9198 158.647 60.813 158.319 61.8544C157.99 62.8957 158.036 64.0194 158.45 65.0301" fill="white"/>
<path d="M158.45 65.5303C158.346 65.5295 158.245 65.4976 158.16 65.4388C158.074 65.38 158.008 65.2969 157.97 65.2003C157.523 64.0809 157.478 62.8412 157.843 61.6925C158.208 60.5437 158.959 59.557 159.97 58.9003C160.026 58.8664 160.089 58.8442 160.154 58.835C160.219 58.8257 160.285 58.8296 160.348 58.8464C160.412 58.8632 160.471 58.8925 160.523 58.9327C160.575 58.9729 160.618 59.0231 160.65 59.0803C160.717 59.1933 160.736 59.3278 160.704 59.455C160.672 59.5822 160.592 59.6918 160.48 59.7603C159.657 60.2871 159.046 61.0875 158.755 62.0204C158.465 62.9534 158.512 63.959 158.89 64.8603C158.932 64.9863 158.923 65.1237 158.865 65.2432C158.807 65.3627 158.705 65.4549 158.58 65.5003C158.538 65.5167 158.495 65.5268 158.45 65.5303Z" fill="#231F20"/>
<path d="M244.26 223.93L244.89 230.66H276.18C273.049 228.267 269.701 226.171 266.18 224.4" fill="white"/>
<path d="M276.18 231.16H244.89C244.765 231.159 244.645 231.111 244.552 231.026C244.46 230.941 244.402 230.825 244.39 230.7L243.77 223.97C243.763 223.905 243.769 223.839 243.788 223.777C243.808 223.714 243.839 223.656 243.881 223.605C243.923 223.555 243.975 223.514 244.033 223.484C244.091 223.453 244.155 223.435 244.22 223.43C244.285 223.424 244.351 223.43 244.414 223.449C244.477 223.468 244.535 223.499 244.585 223.541C244.636 223.583 244.677 223.635 244.707 223.693C244.737 223.751 244.755 223.815 244.76 223.88L245.35 230.16H274.69C271.919 228.18 269.008 226.402 265.98 224.84C265.862 224.779 265.773 224.674 265.733 224.547C265.692 224.421 265.704 224.283 265.765 224.165C265.826 224.047 265.931 223.958 266.058 223.918C266.185 223.878 266.322 223.889 266.44 223.95C269.978 225.742 273.342 227.858 276.49 230.27C276.572 230.333 276.632 230.42 276.661 230.519C276.69 230.618 276.686 230.724 276.65 230.82C276.616 230.918 276.552 231.003 276.468 231.064C276.384 231.125 276.284 231.158 276.18 231.16Z" fill="#231F20"/>
<path d="M302.34 231.1H0.550049C0.418242 231.098 0.292548 231.044 0.199329 230.951C0.10611 230.858 0.0526089 230.732 0.0500488 230.6C0.0500488 230.467 0.102727 230.34 0.196495 230.247C0.290263 230.153 0.417441 230.1 0.550049 230.1H302.34C302.473 230.1 302.6 230.153 302.694 230.247C302.787 230.34 302.84 230.467 302.84 230.6C302.84 230.733 302.787 230.86 302.694 230.954C302.6 231.047 302.473 231.1 302.34 231.1Z" fill="#231F20"/>
<path d="M242.76 136.77C242.707 136.78 242.653 136.78 242.6 136.77L226.83 131.13C226.707 131.087 226.606 130.996 226.55 130.877C226.493 130.759 226.486 130.624 226.53 130.5C226.574 130.377 226.665 130.276 226.783 130.22C226.901 130.164 227.037 130.157 227.16 130.2L242.93 135.83C242.996 135.841 243.059 135.865 243.115 135.901C243.171 135.936 243.22 135.983 243.259 136.037C243.297 136.091 243.325 136.153 243.34 136.217C243.354 136.282 243.356 136.35 243.345 136.415C243.334 136.481 243.31 136.544 243.275 136.6C243.239 136.657 243.193 136.705 243.139 136.744C243.084 136.782 243.023 136.81 242.958 136.825C242.893 136.84 242.826 136.841 242.76 136.83V136.77Z" fill="white"/>
<path d="M204.66 121.37C204.528 121.377 204.398 121.33 204.299 121.241C204.201 121.152 204.142 121.028 204.135 120.895C204.129 120.762 204.175 120.633 204.264 120.534C204.353 120.436 204.478 120.377 204.61 120.37C211.66 119.67 213.16 111.11 213.18 111.02C213.202 110.89 213.274 110.775 213.381 110.698C213.488 110.621 213.62 110.59 213.75 110.61C213.88 110.634 213.996 110.709 214.073 110.817C214.149 110.925 214.181 111.059 214.16 111.19C214.16 111.28 212.51 120.58 204.71 121.36L204.66 121.37Z" fill="white"/>
<path d="M260.22 121.37C260.174 121.38 260.126 121.38 260.08 121.37C258.23 120.893 256.595 119.805 255.44 118.282C254.286 116.759 253.68 114.891 253.72 112.98C253.723 112.915 253.738 112.852 253.766 112.793C253.794 112.734 253.833 112.682 253.882 112.639C253.93 112.596 253.987 112.563 254.049 112.543C254.11 112.523 254.175 112.515 254.24 112.52C254.305 112.523 254.369 112.538 254.429 112.566C254.488 112.594 254.541 112.633 254.585 112.681C254.628 112.73 254.662 112.786 254.684 112.848C254.705 112.91 254.714 112.975 254.71 113.04C254.667 114.731 255.204 116.385 256.232 117.728C257.26 119.071 258.717 120.021 260.36 120.42C260.493 120.439 260.613 120.509 260.693 120.616C260.774 120.723 260.809 120.858 260.79 120.99C260.772 121.123 260.701 121.243 260.594 121.323C260.487 121.404 260.353 121.439 260.22 121.42V121.37Z" fill="white"/>
<path d="M236.5 23.5303C236.5 23.5303 232.95 27.2703 233.5 28.1203C234.05 28.9703 236.02 28.8103 236.02 28.8103" fill="white"/>
<path d="M235.61 29.3204C235.144 29.3659 234.674 29.3059 234.234 29.145C233.794 28.984 233.396 28.7261 233.07 28.3904C232.44 27.3904 234.39 25.0204 236.13 23.1904C236.176 23.1435 236.232 23.1063 236.293 23.0809C236.354 23.0556 236.419 23.0425 236.485 23.0425C236.551 23.0425 236.616 23.0556 236.677 23.0809C236.738 23.1063 236.794 23.1435 236.84 23.1904C236.887 23.236 236.924 23.2905 236.949 23.3506C236.974 23.4107 236.987 23.4752 236.987 23.5404C236.987 23.6056 236.974 23.6701 236.949 23.7302C236.924 23.7903 236.887 23.8448 236.84 23.8904C235.23 25.5904 233.84 27.4704 233.92 27.8904C234.15 28.2404 235.27 28.3604 235.92 28.3004C236.051 28.2892 236.181 28.3302 236.282 28.4145C236.384 28.4987 236.447 28.6194 236.46 28.7504C236.467 28.8156 236.461 28.8815 236.442 28.9442C236.423 29.0069 236.391 29.0651 236.349 29.1155C236.307 29.1658 236.256 29.2073 236.197 29.2373C236.139 29.2673 236.075 29.2854 236.01 29.2904L235.61 29.3204Z" fill="#231F20"/>
<path d="M234.89 31.7401C234.89 31.7401 237.89 33.3001 239.24 30.3901L234.89 31.7401Z" fill="white"/>
<path d="M236.65 32.65C235.957 32.6405 235.275 32.4801 234.65 32.18C234.592 32.1505 234.54 32.1095 234.498 32.0596C234.455 32.0097 234.423 31.9518 234.404 31.8893C234.384 31.8269 234.377 31.7612 234.384 31.696C234.39 31.6309 234.409 31.5676 234.44 31.51C234.5 31.3923 234.604 31.303 234.73 31.2618C234.855 31.2206 234.992 31.2307 235.11 31.29C235.817 31.6407 236.625 31.7293 237.39 31.54C237.702 31.4197 237.986 31.237 238.225 31.0032C238.464 30.7694 238.653 30.4893 238.78 30.18C238.845 30.0758 238.945 29.9989 239.062 29.9638C239.18 29.9287 239.306 29.938 239.417 29.9898C239.528 30.0416 239.616 30.1324 239.665 30.2448C239.713 30.3573 239.719 30.4837 239.68 30.6C239.448 31.2064 239.037 31.7276 238.501 32.0939C237.964 32.4602 237.329 32.6542 236.68 32.65H236.65Z" fill="#231F20"/>
<path d="M241.96 24.496C242.166 23.9836 242.039 23.4496 241.675 23.3032C241.311 23.1568 240.849 23.4535 240.643 23.9658C240.437 24.4782 240.564 25.0122 240.928 25.1586C241.292 25.305 241.754 25.0083 241.96 24.496Z" fill="#231F20"/>
<path d="M234.596 23.285C234.802 22.7727 234.674 22.2386 234.31 22.0923C233.947 21.9459 233.485 22.2426 233.278 22.7549C233.072 23.2673 233.2 23.8013 233.564 23.9477C233.927 24.0941 234.39 23.7974 234.596 23.285Z" fill="#231F20"/>
<path d="M47.9101 211.44H34.9101C34.8238 211.441 34.7388 211.419 34.6635 211.377C34.5881 211.335 34.525 211.274 34.4801 211.2C30.6201 204.72 26.0901 194.71 26.4001 183.8C26.401 183.718 26.4225 183.637 26.4627 183.566C26.5029 183.494 26.5605 183.434 26.6301 183.39C26.7012 183.353 26.78 183.334 26.8601 183.334C26.9401 183.334 27.019 183.353 27.0901 183.39C30.7759 185.044 34.1804 187.264 37.1801 189.97C37.2594 190.062 37.3027 190.179 37.3017 190.301C37.3007 190.422 37.2557 190.539 37.1749 190.63C37.0941 190.72 36.9831 190.778 36.8626 190.793C36.7421 190.808 36.6204 190.778 36.5201 190.71C33.7693 188.272 30.6974 186.223 27.3901 184.62C27.3101 194.87 31.5301 204.27 35.1901 210.48H47.8901C48.0227 210.48 48.1499 210.533 48.2436 210.626C48.3374 210.72 48.3901 210.847 48.3901 210.98C48.3901 211.113 48.3374 211.24 48.2436 211.334C48.1499 211.427 48.0227 211.48 47.8901 211.48L47.9101 211.44Z" fill="#231F20"/>
<path d="M55.3199 211.44H41.3199C41.2163 211.438 41.1159 211.404 41.0319 211.344C40.9479 211.283 40.8845 211.198 40.8499 211.1C38.5289 204.383 37.0116 197.415 36.3299 190.34C35.4504 182.115 36.2673 173.797 38.7299 165.9C38.7553 165.825 38.7986 165.756 38.856 165.7C38.9134 165.645 38.9833 165.603 39.0599 165.58C39.1368 165.56 39.2174 165.557 39.2954 165.573C39.3734 165.589 39.4468 165.622 39.5099 165.67C39.6499 165.78 52.7299 176.44 55.9199 193.07C55.9318 193.136 55.9305 193.203 55.9163 193.269C55.9021 193.334 55.8752 193.396 55.8371 193.45C55.7991 193.505 55.7506 193.552 55.6944 193.588C55.6383 193.624 55.5756 193.649 55.5099 193.66C55.4443 193.672 55.3769 193.671 55.3117 193.657C55.2466 193.643 55.1848 193.616 55.13 193.578C55.0752 193.54 55.0285 193.491 54.9924 193.435C54.9564 193.379 54.9318 193.316 54.9199 193.25C52.1799 178.96 41.9199 169.15 39.4299 166.93C37.1986 174.489 36.4782 182.413 37.3099 190.25C37.973 197.126 39.4328 203.902 41.6599 210.44H55.2599C55.3925 210.44 55.5197 210.493 55.6135 210.587C55.7073 210.681 55.7599 210.808 55.7599 210.94C55.7599 211.073 55.7073 211.2 55.6135 211.294C55.5197 211.388 55.3925 211.44 55.2599 211.44H55.3199Z" fill="#231F20"/>
<path d="M62.3602 211.44H50.0002C49.871 211.441 49.7467 211.391 49.6535 211.301C49.5603 211.212 49.5053 211.09 49.5002 210.96C49.3902 207.49 50.1202 201.78 54.2502 194.31C54.5202 193.83 54.7802 193.36 55.0402 192.91C62.2702 180.68 68.9302 180.67 69.1902 180.67C69.3037 180.673 69.4131 180.714 69.5003 180.786C69.5876 180.859 69.6475 180.959 69.6702 181.07C72.4802 194.07 66.5602 205.52 62.7802 211.22C62.7338 211.289 62.6712 211.345 62.5979 211.383C62.5246 211.422 62.4429 211.441 62.3602 211.44ZM50.4902 210.44H62.1002C65.7502 204.86 71.2602 193.96 68.7902 181.71C67.3102 181.93 61.7902 183.41 55.9102 193.42C55.6502 193.86 55.3902 194.32 55.1202 194.8C51.2902 201.73 50.4702 207.06 50.4902 210.44Z" fill="#231F20"/>
<path d="M60.11 230.54H35.87L31.97 210.95H64.02L60.11 230.54Z" fill="#231F20"/>
<path d="M34.5901 51.2401C34.7352 59.2744 38.0287 66.9306 43.7618 72.5612C49.495 78.1917 57.2095 81.3464 65.2451 81.3464C73.2807 81.3464 80.9952 78.1917 86.7283 72.5612C92.4615 66.9306 95.755 59.2744 95.9001 51.2401H65.2501V20.5801C57.1194 20.5827 49.3224 23.8138 43.5731 29.5631C37.8238 35.3124 34.5927 43.1093 34.5901 51.2401Z" fill="#6ECDBA"/>
<path d="M70.2 16.0601V46.7201H100.86C100.857 38.5893 97.6262 30.7924 91.8769 25.0431C86.1276 19.2938 78.3307 16.0627 70.2 16.0601Z" fill="#E6E7E8"/>
<path d="M59.99 118.08H38.99V136.54H59.99V118.08Z" fill="#6ECDBA"/>
<path d="M50.45 116.17H48.01V119.88H50.45V116.17Z" fill="#E6E7E8"/>
<path d="M49.2401 124H42.8801C42.7475 124 42.6203 123.947 42.5266 123.854C42.4328 123.76 42.3801 123.633 42.3801 123.5C42.3801 123.367 42.4328 123.24 42.5266 123.146C42.6203 123.053 42.7475 123 42.8801 123H49.2401C49.3727 123 49.4999 123.053 49.5937 123.146C49.6874 123.24 49.7401 123.367 49.7401 123.5C49.7401 123.633 49.6874 123.76 49.5937 123.854C49.4999 123.947 49.3727 124 49.2401 124Z" fill="white"/>
<path d="M54.1201 128H42.8801C42.7475 128 42.6203 127.947 42.5266 127.854C42.4328 127.76 42.3801 127.633 42.3801 127.5C42.3801 127.367 42.4328 127.24 42.5266 127.146C42.6203 127.053 42.7475 127 42.8801 127H54.1201C54.2527 127 54.3799 127.053 54.4737 127.146C54.5675 127.24 54.6201 127.367 54.6201 127.5C54.6201 127.633 54.5675 127.76 54.4737 127.854C54.3799 127.947 54.2527 128 54.1201 128Z" fill="white"/>
<path d="M56.7501 124.15H52.0601C51.9275 124.15 51.8003 124.098 51.7065 124.004C51.6127 123.91 51.5601 123.783 51.5601 123.65C51.5601 123.518 51.6127 123.391 51.7065 123.297C51.8003 123.203 51.9275 123.15 52.0601 123.15H56.7501C56.8827 123.15 57.0098 123.203 57.1036 123.297C57.1974 123.391 57.2501 123.518 57.2501 123.65C57.2501 123.783 57.1974 123.91 57.1036 124.004C57.0098 124.098 56.8827 124.15 56.7501 124.15Z" fill="white"/>
<path d="M31.4799 11.6304H12.9399V27.9204H31.4799V11.6304Z" fill="#6ECDBA"/>
<path d="M23.0401 9.9502H20.8901V13.2302H23.0401V9.9502Z" fill="#E6E7E8"/>
<path d="M28.35 16.7801H16.35C16.2598 16.7801 16.1734 16.7443 16.1096 16.6805C16.0458 16.6168 16.01 16.5303 16.01 16.4401C16.01 16.3499 16.0458 16.2634 16.1096 16.1997C16.1734 16.1359 16.2598 16.1001 16.35 16.1001H28.35C28.4402 16.1001 28.5267 16.1359 28.5904 16.1997C28.6542 16.2634 28.69 16.3499 28.69 16.4401C28.69 16.5303 28.6542 16.6168 28.5904 16.6805C28.5267 16.7443 28.4402 16.7801 28.35 16.7801Z" fill="white"/>
<path d="M28.3501 20.2804H16.3501C16.2687 20.2665 16.1948 20.2243 16.1416 20.1611C16.0883 20.098 16.0591 20.0181 16.0591 19.9355C16.0591 19.8528 16.0883 19.7729 16.1416 19.7098C16.1948 19.6466 16.2687 19.6044 16.3501 19.5904H28.3501C28.4004 19.5819 28.4518 19.5844 28.501 19.5977C28.5502 19.6111 28.5958 19.6351 28.6348 19.6679C28.6737 19.7008 28.705 19.7417 28.7265 19.788C28.748 19.8342 28.7591 19.8845 28.7591 19.9355C28.7591 19.9864 28.748 20.0367 28.7265 20.0829C28.705 20.1292 28.6737 20.1701 28.6348 20.203C28.5958 20.2358 28.5502 20.2598 28.501 20.2732C28.4518 20.2865 28.4004 20.289 28.3501 20.2804Z" fill="white"/>
<path d="M24 23.7703H16.37C16.2799 23.7703 16.1934 23.7345 16.1296 23.6707C16.0659 23.607 16.03 23.5205 16.03 23.4303C16.03 23.3402 16.0659 23.2537 16.1296 23.1899C16.1934 23.1262 16.2799 23.0903 16.37 23.0903H24C24.0902 23.0903 24.1767 23.1262 24.2404 23.1899C24.3042 23.2537 24.34 23.3402 24.34 23.4303C24.34 23.5205 24.3042 23.607 24.2404 23.6707C24.1767 23.7345 24.0902 23.7703 24 23.7703Z" fill="white"/>
<path d="M69.93 94.7801H36C35.8884 94.7637 35.7864 94.7077 35.7127 94.6223C35.639 94.5369 35.5984 94.4279 35.5984 94.3151C35.5984 94.2023 35.639 94.0932 35.7127 94.0079C35.7864 93.9225 35.8884 93.8665 36 93.8501H69.93C70.0416 93.8665 70.1436 93.9225 70.2173 94.0079C70.2911 94.0932 70.3316 94.2023 70.3316 94.3151C70.3316 94.4279 70.2911 94.5369 70.2173 94.6223C70.1436 94.7077 70.0416 94.7637 69.93 94.7801Z" fill="#D1D3D4"/>
<path d="M82.72 94.7801H76.26C76.1484 94.7637 76.0465 94.7077 75.9727 94.6223C75.899 94.5369 75.8584 94.4279 75.8584 94.3151C75.8584 94.2023 75.899 94.0932 75.9727 94.0079C76.0465 93.9225 76.1484 93.8665 76.26 93.8501H82.72C82.8316 93.8665 82.9336 93.9225 83.0074 94.0079C83.0811 94.0932 83.1217 94.2023 83.1217 94.3151C83.1217 94.4279 83.0811 94.5369 83.0074 94.6223C82.9336 94.7077 82.8316 94.7637 82.72 94.7801Z" fill="#D1D3D4"/>
<path d="M94.66 94.2101H88.21C88.088 94.2101 87.971 94.1616 87.8847 94.0753C87.7985 93.9891 87.75 93.872 87.75 93.75C87.7526 93.6288 87.8018 93.5133 87.8876 93.4276C87.9733 93.3419 88.0888 93.2926 88.21 93.29H94.66C94.782 93.29 94.899 93.3385 94.9853 93.4248C95.0715 93.511 95.12 93.628 95.12 93.75C95.1214 93.8108 95.1104 93.8713 95.0878 93.9277C95.0651 93.9841 95.0313 94.0354 94.9883 94.0784C94.9453 94.1213 94.8941 94.1552 94.8376 94.1778C94.7812 94.2004 94.7208 94.2114 94.66 94.2101Z" fill="#D1D3D4"/>
<path d="M85.74 102.66H35.74C35.6188 102.658 35.5033 102.609 35.4176 102.523C35.3319 102.437 35.2826 102.322 35.28 102.2C35.28 102.078 35.3285 101.961 35.4148 101.875C35.501 101.789 35.618 101.74 35.74 101.74H85.74C85.8008 101.739 85.8612 101.75 85.9177 101.773C85.9741 101.795 86.0254 101.829 86.0683 101.872C86.1113 101.915 86.1452 101.966 86.1678 102.023C86.1904 102.079 86.2014 102.14 86.2 102.2C86.2 102.261 86.1881 102.321 86.165 102.376C86.1419 102.432 86.108 102.483 86.0653 102.526C86.0226 102.568 85.9719 102.602 85.9161 102.625C85.8603 102.648 85.8004 102.66 85.74 102.66Z" fill="#D1D3D4"/>
<path d="M52.1302 110.54H35.8802C35.7582 110.54 35.6412 110.492 35.5549 110.405C35.4686 110.319 35.4202 110.202 35.4202 110.08C35.4227 109.959 35.472 109.843 35.5577 109.758C35.6434 109.672 35.759 109.623 35.8802 109.62H52.1302C52.2514 109.623 52.3669 109.672 52.4526 109.758C52.5383 109.843 52.5876 109.959 52.5902 110.08C52.5902 110.202 52.5417 110.319 52.4554 110.405C52.3692 110.492 52.2522 110.54 52.1302 110.54Z" fill="#D1D3D4"/>
<path d="M91.0801 110.26H62.1701C62.1093 110.262 62.0489 110.251 61.9924 110.228C61.936 110.205 61.8848 110.172 61.8418 110.129C61.7988 110.086 61.7649 110.034 61.7423 109.978C61.7197 109.922 61.7087 109.861 61.7101 109.8C61.7101 109.678 61.7585 109.561 61.8448 109.475C61.9311 109.389 62.0481 109.34 62.1701 109.34H91.0801C91.2013 109.343 91.3168 109.392 91.4025 109.478C91.4882 109.564 91.5375 109.679 91.5401 109.8C91.5401 109.922 91.4916 110.039 91.4053 110.126C91.3191 110.212 91.2021 110.26 91.0801 110.26Z" fill="#D1D3D4"/>
<path d="M69.93 94.8101H36C35.8674 94.8101 35.7402 94.7574 35.6464 94.6636C35.5527 94.5699 35.5 94.4427 35.5 94.3101C35.5026 94.1783 35.5561 94.0526 35.6493 93.9593C35.7425 93.8661 35.8682 93.8126 36 93.8101H69.93C70.0626 93.8101 70.1898 93.8627 70.2836 93.9565C70.3773 94.0503 70.43 94.1775 70.43 94.3101C70.43 94.4427 70.3773 94.5699 70.2836 94.6636C70.1898 94.7574 70.0626 94.8101 69.93 94.8101Z" fill="#E6E7E8"/>
<path d="M82.72 94.8101H76.26C76.1274 94.8101 76.0002 94.7574 75.9065 94.6636C75.8127 94.5699 75.76 94.4427 75.76 94.3101C75.7626 94.1783 75.8161 94.0526 75.9093 93.9593C76.0025 93.8661 76.1282 93.8126 76.26 93.8101H82.72C82.8518 93.8126 82.9775 93.8661 83.0707 93.9593C83.164 94.0526 83.2175 94.1783 83.22 94.3101C83.22 94.4427 83.1673 94.5699 83.0736 94.6636C82.9798 94.7574 82.8526 94.8101 82.72 94.8101Z" fill="#E6E7E8"/>
<path d="M94.66 94.25H88.21C88.0774 94.25 87.9502 94.1973 87.8564 94.1035C87.7626 94.0098 87.71 93.8826 87.71 93.75C87.71 93.6174 87.7626 93.4902 87.8564 93.3965C87.9502 93.3027 88.0774 93.25 88.21 93.25H94.66C94.7926 93.25 94.9197 93.3027 95.0135 93.3965C95.1073 93.4902 95.16 93.6174 95.16 93.75C95.16 93.8826 95.1073 94.0098 95.0135 94.1035C94.9197 94.1973 94.7926 94.25 94.66 94.25Z" fill="#E6E7E8"/>
<path d="M85.74 102.7H35.74C35.6074 102.7 35.4802 102.648 35.3864 102.554C35.2927 102.46 35.24 102.333 35.24 102.2C35.24 102.068 35.2927 101.94 35.3864 101.847C35.4802 101.753 35.6074 101.7 35.74 101.7H85.74C85.8726 101.7 85.9998 101.753 86.0935 101.847C86.1873 101.94 86.24 102.068 86.24 102.2C86.24 102.333 86.1873 102.46 86.0935 102.554C85.9998 102.648 85.8726 102.7 85.74 102.7Z" fill="#E6E7E8"/>
<path d="M52.1301 110.58H35.8801C35.7475 110.58 35.6203 110.527 35.5266 110.434C35.4328 110.34 35.3801 110.213 35.3801 110.08C35.3827 109.948 35.4362 109.823 35.5294 109.729C35.6226 109.636 35.7483 109.583 35.8801 109.58H52.1301C52.2627 109.58 52.3899 109.633 52.4837 109.727C52.5774 109.82 52.6301 109.947 52.6301 110.08C52.6301 110.213 52.5774 110.34 52.4837 110.434C52.3899 110.527 52.2627 110.58 52.1301 110.58Z" fill="#E6E7E8"/>
<path d="M91.0802 110.3H62.1702C62.0376 110.3 61.9104 110.248 61.8166 110.154C61.7228 110.06 61.6702 109.933 61.6702 109.8C61.6702 109.668 61.7228 109.54 61.8166 109.447C61.9104 109.353 62.0376 109.3 62.1702 109.3H91.0802C91.2128 109.3 91.3399 109.353 91.4337 109.447C91.5275 109.54 91.5802 109.668 91.5802 109.8C91.5802 109.933 91.5275 110.06 91.4337 110.154C91.3399 110.248 91.2128 110.3 91.0802 110.3Z" fill="#E6E7E8"/>
<path d="M124.17 85.4902H113.83V114.81H124.17V85.4902Z" fill="#6ECDBA"/>
<path d="M142.01 95.4502H131.67V114.82H142.01V95.4502Z" fill="#E6E7E8"/>
<path d="M159.84 89.7803H149.5V114.81H159.84V89.7803Z" fill="#E6E7E8"/>
<path d="M164.33 22.5503H110.33C110.197 22.5503 110.07 22.4976 109.977 22.4038C109.883 22.3101 109.83 22.1829 109.83 22.0503C109.83 21.9177 109.883 21.7905 109.977 21.6967C110.07 21.603 110.197 21.5503 110.33 21.5503H164.33C164.463 21.5503 164.59 21.603 164.684 21.6967C164.777 21.7905 164.83 21.9177 164.83 22.0503C164.828 22.1821 164.774 22.3078 164.681 22.401C164.588 22.4942 164.462 22.5477 164.33 22.5503Z" fill="#D1D3D4"/>
<path d="M152.68 30.4302H111.14C111.008 30.4302 110.88 30.3775 110.787 30.2837C110.693 30.19 110.64 30.0628 110.64 29.9302C110.643 29.7984 110.696 29.6727 110.789 29.5795C110.883 29.4862 111.008 29.4327 111.14 29.4302H152.68C152.813 29.4302 152.94 29.4829 153.034 29.5766C153.127 29.6704 153.18 29.7976 153.18 29.9302C153.18 30.0628 153.127 30.19 153.034 30.2837C152.94 30.3775 152.813 30.4302 152.68 30.4302Z" fill="#D1D3D4"/>
<path d="M158.51 38H110.35C110.217 38 110.09 37.9473 109.997 37.8536C109.903 37.7598 109.85 37.6326 109.85 37.5C109.85 37.3674 109.903 37.2402 109.997 37.1464C110.09 37.0527 110.217 37 110.35 37H158.51C158.642 37.0026 158.768 37.0561 158.861 37.1493C158.954 37.2425 159.008 37.3682 159.01 37.5C159.01 37.6326 158.957 37.7598 158.864 37.8536C158.77 37.9473 158.643 38 158.51 38Z" fill="#D1D3D4"/>
<path d="M166.18 30.0601H158.51C158.377 30.0601 158.25 30.0074 158.156 29.9136C158.063 29.8198 158.01 29.6927 158.01 29.5601C158.01 29.4275 158.063 29.3003 158.156 29.2065C158.25 29.1127 158.377 29.0601 158.51 29.0601H166.18C166.313 29.0601 166.44 29.1127 166.534 29.2065C166.627 29.3003 166.68 29.4275 166.68 29.5601C166.68 29.6927 166.627 29.8198 166.534 29.9136C166.44 30.0074 166.313 30.0601 166.18 30.0601Z" fill="#D1D3D4"/>
<path d="M139.43 76.5102H111.27C111.137 76.5102 111.01 76.4575 110.916 76.3637C110.823 76.27 110.77 76.1428 110.77 76.0102V52.9302C110.77 52.7976 110.823 52.6704 110.916 52.5766C111.01 52.4829 111.137 52.4302 111.27 52.4302C111.403 52.4302 111.53 52.4829 111.624 52.5766C111.717 52.6704 111.77 52.7976 111.77 52.9302V75.5102H139.43C139.563 75.5102 139.69 75.5629 139.784 75.6566C139.877 75.7504 139.93 75.8776 139.93 76.0102C139.93 76.1428 139.877 76.27 139.784 76.3637C139.69 76.4575 139.563 76.5102 139.43 76.5102Z" fill="#E6E7E8"/>
<path d="M111.27 76.5101C111.171 76.5137 111.074 76.4872 110.99 76.4342C110.907 76.3813 110.841 76.3043 110.802 76.2135C110.763 76.1226 110.753 76.0221 110.772 75.9251C110.791 75.8281 110.839 75.7393 110.91 75.6701L122.73 63.0001C122.784 62.9443 122.85 62.9018 122.922 62.8757C122.995 62.8497 123.073 62.8409 123.15 62.8501C123.226 62.8566 123.298 62.8808 123.363 62.9208C123.427 62.9607 123.481 63.0153 123.52 63.0801L126 67.0001L134 58.2001C134.047 58.1533 134.102 58.1161 134.163 58.0907C134.224 58.0653 134.289 58.0522 134.355 58.0522C134.421 58.0522 134.486 58.0653 134.547 58.0907C134.608 58.1161 134.664 58.1533 134.71 58.2001C134.757 58.2458 134.794 58.3002 134.819 58.3603C134.844 58.4204 134.857 58.485 134.857 58.5501C134.857 58.6153 134.844 58.6799 134.819 58.74C134.794 58.8001 134.757 58.8545 134.71 58.9001L126.27 68.1901C126.217 68.2483 126.152 68.2939 126.08 68.3233C126.007 68.3527 125.928 68.3653 125.85 68.3601C125.772 68.3534 125.697 68.328 125.631 68.2863C125.565 68.2445 125.51 68.1876 125.47 68.1201L123 64.1201L111.62 76.3101C111.579 76.3664 111.527 76.4133 111.467 76.4478C111.406 76.4823 111.339 76.5035 111.27 76.5101Z" fill="#E6E7E8"/>
<path d="M167.87 115.09H106.49C106.357 115.09 106.23 115.038 106.136 114.944C106.043 114.85 105.99 114.723 105.99 114.59C105.99 114.458 106.043 114.331 106.136 114.237C106.23 114.143 106.357 114.09 106.49 114.09H167.87C168.003 114.09 168.13 114.143 168.224 114.237C168.317 114.331 168.37 114.458 168.37 114.59C168.367 114.722 168.314 114.848 168.221 114.941C168.127 115.034 168.002 115.088 167.87 115.09Z" fill="#E6E7E8"/>
</svg>
