<svg width="483" height="402" viewBox="0 0 483 402" fill="none" xmlns="http://www.w3.org/2000/svg">
<g clip-path="url(#clip0)">
<path opacity="0.24" d="M482.732 305.727C482.494 308.332 482.03 310.912 481.346 313.437C479.794 319.27 477.446 324.863 474.369 330.056C456.552 361.126 421.696 379.075 386.581 386.378C351.466 393.682 315.232 392.112 279.387 393.765C231.067 395.981 182.82 404.124 134.445 401.521C111.513 400.245 88.7789 396.565 66.6168 390.543C-40.2257 390.543 12.0035 227.514 18.1487 165.707C20.8008 139.079 23.8965 111.167 39.1069 89.1464C57.0988 63.0537 88.9519 50.0535 120.121 44.4028C151.291 38.7522 183.347 39.0384 214.378 32.5475C265.008 21.9295 313.957 -6.72086 365.003 1.44121C415.116 9.4463 455.776 57.126 455.748 107.816C455.748 143.4 439.586 178.781 448.864 214.218C456.931 245.001 485.874 272.257 482.732 305.727Z" fill="#6ECDBA"/>
<path opacity="0.24" d="M154.728 97.1323C143.187 99.1358 131.58 101.5 120.925 106.365C112.951 109.994 105.678 114.961 98.498 119.984C76.8559 135.136 54.7241 152.522 45.6404 177.322C41.8284 187.754 40.5761 198.947 41.9885 209.963C43.401 220.978 47.4371 231.495 53.7581 240.63C60.0791 249.764 68.5007 257.251 78.3162 262.462C88.1318 267.673 99.0549 270.455 110.169 270.576C103.552 265.209 98.118 258.532 94.208 250.966C90.2981 243.399 87.997 235.106 87.4493 226.608C86.9017 218.11 88.1194 209.591 91.0259 201.585C93.9324 193.58 98.4648 186.262 104.338 180.092C111.287 172.788 119.937 167.285 129.002 162.863C157.981 148.736 191.147 145.431 223.369 146.696C255.592 147.96 267.91 140.343 300.068 143.002C292.888 125.145 303.7 121.092 293.489 104.768C278.482 80.762 262.292 84.8061 236.685 87.0405C209.259 89.5242 181.85 92.4234 154.728 97.1323Z" fill="#6ECDBA"/>
<path d="M149.508 93.079C137.966 95.0825 126.359 97.4462 115.705 102.312C107.739 105.941 100.457 110.908 93.2864 115.931C71.6443 131.092 49.5125 148.478 40.438 173.278C36.6263 183.709 35.3738 194.902 36.7858 205.916C38.1979 216.931 42.2331 227.447 48.5531 236.582C54.8731 245.716 63.2934 253.204 73.1077 258.415C82.9221 263.626 93.8441 266.41 104.958 266.532C98.3473 261.165 92.919 254.491 89.0135 246.928C85.1081 239.365 82.8098 231.077 82.2631 222.584C81.7164 214.092 82.9331 205.578 85.8367 197.577C88.7403 189.577 93.2681 182.262 99.1358 176.094C106.076 168.79 114.725 163.287 123.79 158.865C152.779 144.738 185.944 141.433 218.167 142.698C250.39 143.963 269.103 147.443 301.233 150.084C294.053 132.227 298.461 117.076 288.296 100.752C273.289 76.7456 257.108 80.7897 231.502 83.0241C204.038 85.4709 176.639 88.3701 149.508 93.079Z" fill="url(#paint0_linear)"/>
<path opacity="0.24" d="M481.383 313.436C479.831 319.269 477.483 324.862 474.406 330.056C456.59 361.125 421.733 379.074 386.618 386.378C351.503 393.681 315.27 392.111 279.424 393.764C231.067 395.98 182.821 404.124 134.445 401.52C111.513 400.244 88.7792 396.564 66.6172 390.542C51.7671 386.498 21.0783 381.225 12.0962 367.459C6.4778 358.881 5.55371 342.807 5.3689 329.271C8.73256 329.797 12.0593 330.591 14.9978 330.868C24.941 331.791 35.0043 331.893 44.9751 332.198C66.0873 332.881 87.215 333.333 108.358 333.555C192.517 334.448 276.609 331.678 360.633 325.245C400.96 322.143 441.21 318.206 481.383 313.436Z" fill="#6ECDBA"/>
<path d="M135.341 267.474H122.764V344.995H135.341V267.474Z" fill="#6ECDBA"/>
<path d="M135.341 267.474H122.764V344.995H135.341V267.474Z" fill="url(#paint1_linear)"/>
<path d="M164.921 243.68V274.398H78.7319V243.68C78.7331 241.577 79.1491 239.494 79.9561 237.552C80.763 235.609 81.9452 233.844 83.4349 232.358C84.9247 230.872 86.6929 229.694 88.6385 228.891C90.5841 228.089 92.669 227.677 94.774 227.679H148.888C153.137 227.679 157.213 229.364 160.219 232.364C163.225 235.365 164.916 239.435 164.921 243.68Z" fill="#6ECDBA"/>
<path d="M94.8388 230.347C96.6591 230.347 98.4616 230.706 100.143 231.402C101.825 232.098 103.353 233.118 104.64 234.404C105.927 235.69 106.948 237.217 107.645 238.897C108.342 240.577 108.7 242.378 108.7 244.197V274.223H80.9776V244.216C80.9751 242.395 81.3319 240.592 82.0274 238.91C82.7229 237.227 83.7435 235.698 85.0309 234.41C86.3183 233.122 87.8471 232.101 89.5301 231.403C91.213 230.706 93.017 230.347 94.8388 230.347Z" fill="url(#paint2_linear)"/>
<path d="M164.931 243.68V274.389H111.823V241.879C110.234 233.385 104.246 229.479 99.3298 227.679H148.888C153.139 227.677 157.217 229.361 160.225 232.361C163.233 235.362 164.926 239.433 164.931 243.68Z" fill="url(#paint3_linear)"/>
<path d="M109.615 269.994H53.2642C52.0445 269.994 51.0557 270.98 51.0557 272.196C51.0557 273.413 52.0445 274.399 53.2642 274.399H109.615C110.835 274.399 111.823 273.413 111.823 272.196C111.823 270.98 110.835 269.994 109.615 269.994Z" fill="#6ECDBA"/>
<path d="M109.615 269.994H53.2642C52.0445 269.994 51.0557 270.98 51.0557 272.196C51.0557 273.413 52.0445 274.399 53.2642 274.399H109.615C110.835 274.399 111.823 273.413 111.823 272.196C111.823 270.98 110.835 269.994 109.615 269.994Z" fill="url(#paint4_linear)"/>
<path opacity="0.24" d="M95.7351 338.199C88.4071 339.51 81.1438 341.2 73.7419 341.892C68.9367 342.354 63.6325 342.594 60.1487 345.936C59.3197 346.647 58.7697 347.629 58.5962 348.706C58.4021 351.015 60.814 352.63 62.9764 353.48C69.2878 355.973 76.1353 356.684 82.9088 357.118C93.9239 357.81 104.976 357.829 116.028 357.838H148.925C158.647 357.838 169.422 357.441 176.38 350.673C177.849 349.404 178.846 347.676 179.208 345.77C179.596 342.686 177.249 339.778 174.412 338.485C169.505 336.251 162.158 336.713 156.854 336.122C149.862 335.401 142.866 334.989 135.868 334.884C122.416 334.726 108.979 335.836 95.7351 338.199Z" fill="#6ECDBA"/>
<path d="M141.856 248.343C141.736 248.74 141.385 249.931 141.283 250.365L140.11 254.714C140.052 254.905 140.024 255.104 140.026 255.304C140.02 255.373 140.029 255.442 140.053 255.506C140.078 255.57 140.116 255.628 140.166 255.675C140.216 255.722 140.276 255.757 140.341 255.778C140.407 255.798 140.476 255.804 140.544 255.794C140.996 255.756 141.426 255.578 141.773 255.286C142.29 254.822 142.7 254.252 142.974 253.614C143.248 252.976 143.381 252.287 143.362 251.593C143.384 250.751 143.188 249.917 142.793 249.173C142.398 248.429 141.817 247.8 141.108 247.346C140.03 246.768 138.818 246.484 137.596 246.524C133.456 246.524 130.554 249.294 130.554 253.144C130.554 256.994 133.17 259.33 137.125 259.33C138.141 259.33 139.153 259.184 140.128 258.896C140.906 258.656 141.646 258.308 142.327 257.862L143.519 259.589C142.76 260.078 141.935 260.461 141.071 260.724C139.722 261.133 138.321 261.342 136.912 261.343C135.733 261.411 134.552 261.24 133.44 260.84C132.328 260.44 131.309 259.82 130.444 259.016C129.699 258.249 129.114 257.341 128.724 256.345C128.334 255.35 128.145 254.287 128.17 253.218C128.141 252.091 128.338 250.97 128.749 249.92C129.16 248.87 129.777 247.913 130.564 247.105C131.518 246.187 132.651 245.475 133.893 245.013C135.134 244.551 136.458 244.348 137.781 244.419C142.355 244.419 145.608 247.355 145.608 251.454C145.626 252.324 145.473 253.188 145.155 253.998C144.838 254.808 144.364 255.547 143.76 256.172C143.281 256.671 142.707 257.07 142.073 257.346C141.438 257.622 140.755 257.769 140.063 257.779C139.741 257.801 139.419 257.743 139.125 257.609C138.832 257.475 138.576 257.27 138.381 257.013C138.273 256.831 138.212 256.624 138.206 256.412C137.895 256.81 137.494 257.128 137.036 257.342C136.579 257.555 136.077 257.657 135.572 257.64C133.632 257.64 132.403 256.191 132.403 253.947C132.403 250.642 134.574 247.9 137.18 247.9C137.612 247.843 138.051 247.918 138.44 248.114C138.829 248.309 139.15 248.618 139.361 248.998L139.555 248.306L141.856 248.343ZM137.818 254.169C138.289 253.229 138.553 252.2 138.594 251.15C138.594 250.346 138.15 249.792 137.457 249.792C137.037 249.827 136.635 249.977 136.296 250.226C135.957 250.476 135.693 250.815 135.535 251.205C135.056 252.112 134.787 253.116 134.75 254.141C134.75 255.184 135.147 255.729 135.896 255.729C136.644 255.729 137.3 255.166 137.818 254.169Z" fill="#6ECDBA"/>
<path d="M421.493 108.572L301.233 150.13L282.844 110.493L421.493 108.572Z" fill="#6ECDBA"/>
<path d="M421.493 108.572L301.233 150.13L282.844 110.493L421.493 108.572Z" fill="url(#paint5_linear)"/>
<path d="M288.97 124.204L393.715 117.251L421.493 108.572L282.844 110.493L288.97 124.204Z" fill="url(#paint6_linear)"/>
<path d="M258.559 66.6077L429.218 109.837L280.764 92.1372L258.559 66.6077Z" fill="#6ECDBA"/>
<path d="M181.24 117.325L280.764 92.1372L429.218 109.837L181.24 117.325Z" fill="#6ECDBA"/>
<path d="M258.559 66.6077L429.218 109.837L280.764 92.1372L258.559 66.6077Z" fill="url(#paint7_linear)"/>
<path d="M210.53 132.769L174.775 131.677L174.102 153.697L209.856 154.789L210.53 132.769Z" fill="#6ECDBA"/>
<path d="M209.869 154.784L174.116 153.694L174.781 131.673L211.236 132.495L209.869 154.784Z" fill="url(#paint8_linear)"/>
<path d="M174.781 131.673L192.163 150.407L210.663 133.095L174.781 131.673Z" fill="url(#paint9_linear)"/>
<path d="M146.319 116.538L114.048 101.118L104.535 120.992L136.806 136.413L146.319 116.538Z" fill="#6ECDBA"/>
<path d="M136.801 136.419L104.532 120.99L114.05 101.121L147.059 116.586L136.801 136.419Z" fill="url(#paint10_linear)"/>
<path d="M114.051 101.121L122.377 125.275L146.292 116.891L114.051 101.121Z" fill="url(#paint11_linear)"/>
<path d="M96.2488 166.951L74.0491 174.624L78.7825 188.297L100.982 180.625L96.2488 166.951Z" fill="#6ECDBA"/>
<path d="M100.984 180.636L78.7782 188.309L74.0469 174.635L96.613 166.639L100.984 180.636Z" fill="url(#paint12_linear)"/>
<path d="M74.0469 174.635L89.091 182.077L96.4005 167.138L74.0469 174.635Z" fill="url(#paint13_linear)"/>
<path d="M60.3895 152.4L38.7051 159.894L43.3268 173.245L65.0112 165.751L60.3895 152.4Z" fill="#6ECDBA"/>
<path d="M65.0001 165.762L43.3211 173.25L38.7007 159.899L60.7308 152.088L65.0001 165.762Z" fill="url(#paint14_linear)"/>
<path d="M38.7007 159.899L53.3936 167.174L60.5275 152.577L38.7007 159.899Z" fill="url(#paint15_linear)"/>
<path d="M66.3872 215.715L49.5747 210.257L46.208 220.61L63.0205 226.068L66.3872 215.715Z" fill="#6ECDBA"/>
<path d="M63.0039 226.063L46.1948 220.616L49.5677 210.256L66.7372 215.685L63.0039 226.063Z" fill="url(#paint16_linear)"/>
<path d="M49.5679 210.256L55.214 221.548L66.3862 215.888L49.5679 210.256Z" fill="url(#paint17_linear)"/>
<path d="M216.915 69.9291L187.169 81.6187L194.38 99.9377L224.126 88.2482L216.915 69.9291Z" fill="#6ECDBA"/>
<path d="M224.127 88.2591L194.381 99.9482L187.164 81.6298L217.391 69.479L224.127 88.2591Z" fill="url(#paint18_linear)"/>
<path d="M187.164 81.6299L208.048 90.8999L217.132 70.1716L187.164 81.6299Z" fill="url(#paint19_linear)"/>
<path d="M339.897 70.4269L301.29 66.6311L298.948 90.4115L337.555 94.2074L339.897 70.4269Z" fill="#6ECDBA"/>
<path d="M337.568 94.196L298.95 90.4012L301.297 66.6167L340.673 70.1807L337.568 94.196Z" fill="url(#paint20_linear)"/>
<path d="M301.297 66.6167L318.735 88.1575L340.016 70.7808L301.297 66.6167Z" fill="url(#paint21_linear)"/>
<path d="M181.24 117.325L280.764 92.1372L429.218 109.837L181.24 117.325Z" fill="url(#paint22_linear)"/>
</g>
<defs>
<linearGradient id="paint0_linear" x1="179.79" y1="232.785" x2="135.819" y2="9.27462" gradientUnits="userSpaceOnUse">
<stop stop-color="white" stop-opacity="0"/>
<stop offset="0.95" stop-color="white"/>
</linearGradient>
<linearGradient id="paint1_linear" x1="129.381" y1="334.857" x2="128.44" y2="252.202" gradientUnits="userSpaceOnUse">
<stop stop-color="#010101" stop-opacity="0"/>
<stop offset="0.95" stop-color="#010101"/>
</linearGradient>
<linearGradient id="paint2_linear" x1="2509.75" y1="12219.4" x2="3342.53" y2="12219.4" gradientUnits="userSpaceOnUse">
<stop stop-color="#010101" stop-opacity="0"/>
<stop offset="0.95" stop-color="#010101"/>
</linearGradient>
<linearGradient id="paint3_linear" x1="10866.4" y1="11950.6" x2="10684.8" y2="16281.4" gradientUnits="userSpaceOnUse">
<stop stop-color="#010101" stop-opacity="0"/>
<stop offset="0.95" stop-color="#010101"/>
</linearGradient>
<linearGradient id="paint4_linear" x1="5385.85" y1="1543.14" x2="5386.07" y2="1594.32" gradientUnits="userSpaceOnUse">
<stop stop-color="#010101" stop-opacity="0"/>
<stop offset="0.95" stop-color="#010101"/>
</linearGradient>
<linearGradient id="paint5_linear" x1="52294.4" y1="6719.65" x2="52479.6" y2="2534.11" gradientUnits="userSpaceOnUse">
<stop stop-color="white" stop-opacity="0"/>
<stop offset="0.95" stop-color="white"/>
</linearGradient>
<linearGradient id="paint6_linear" x1="52984.9" y1="2181.64" x2="52996.6" y2="713.847" gradientUnits="userSpaceOnUse">
<stop stop-color="#010101" stop-opacity="0"/>
<stop offset="0.95" stop-color="#010101"/>
</linearGradient>
<linearGradient id="paint7_linear" x1="64491.5" y1="2815.13" x2="64376.3" y2="6245.5" gradientUnits="userSpaceOnUse">
<stop stop-color="white" stop-opacity="0"/>
<stop offset="0.95" stop-color="white"/>
</linearGradient>
<linearGradient id="paint8_linear" x1="4137.12" y1="4011.16" x2="3856.59" y2="5962.56" gradientUnits="userSpaceOnUse">
<stop stop-color="white" stop-opacity="0"/>
<stop offset="0.95" stop-color="white"/>
</linearGradient>
<linearGradient id="paint9_linear" x1="6712.57" y1="-30297.7" x2="7738" y2="-29071.5" gradientUnits="userSpaceOnUse">
<stop stop-color="white" stop-opacity="0"/>
<stop offset="0.95" stop-color="white"/>
</linearGradient>
<linearGradient id="paint10_linear" x1="-15508.9" y1="5622.71" x2="-17111.4" y2="8172.26" gradientUnits="userSpaceOnUse">
<stop stop-color="white" stop-opacity="0"/>
<stop offset="0.95" stop-color="white"/>
</linearGradient>
<linearGradient id="paint11_linear" x1="1017.28" y1="-28567.5" x2="1582.05" y2="-26585.9" gradientUnits="userSpaceOnUse">
<stop stop-color="white" stop-opacity="0"/>
<stop offset="0.95" stop-color="white"/>
</linearGradient>
<linearGradient id="paint12_linear" x1="8692.96" y1="680.994" x2="8955.39" y2="1866.25" gradientUnits="userSpaceOnUse">
<stop stop-color="white" stop-opacity="0"/>
<stop offset="0.95" stop-color="white"/>
</linearGradient>
<linearGradient id="paint13_linear" x1="4507.91" y1="-18635.1" x2="5237.49" y2="-18224" gradientUnits="userSpaceOnUse">
<stop stop-color="white" stop-opacity="0"/>
<stop offset="0.95" stop-color="white"/>
</linearGradient>
<linearGradient id="paint14_linear" x1="7465.08" y1="387.643" x2="7715.16" y2="1517.89" gradientUnits="userSpaceOnUse">
<stop stop-color="white" stop-opacity="0"/>
<stop offset="0.95" stop-color="white"/>
</linearGradient>
<linearGradient id="paint15_linear" x1="4092.55" y1="-18177.8" x2="4788.69" y2="-17785.7" gradientUnits="userSpaceOnUse">
<stop stop-color="white" stop-opacity="0"/>
<stop offset="0.95" stop-color="white"/>
</linearGradient>
<linearGradient id="paint16_linear" x1="-6414.05" y1="4690.72" x2="-6690.79" y2="5296.84" gradientUnits="userSpaceOnUse">
<stop stop-color="white" stop-opacity="0"/>
<stop offset="0.95" stop-color="white"/>
</linearGradient>
<linearGradient id="paint17_linear" x1="2914.79" y1="-4182.48" x2="3104.79" y2="-3746.06" gradientUnits="userSpaceOnUse">
<stop stop-color="white" stop-opacity="0"/>
<stop offset="0.95" stop-color="white"/>
</linearGradient>
<linearGradient id="paint18_linear" x1="17553.9" y1="-4352.79" x2="18149.2" y2="-2108.17" gradientUnits="userSpaceOnUse">
<stop stop-color="white" stop-opacity="0"/>
<stop offset="0.95" stop-color="white"/>
</linearGradient>
<linearGradient id="paint19_linear" x1="1611.28" y1="-33562.8" x2="3019.51" y2="-32844.6" gradientUnits="userSpaceOnUse">
<stop stop-color="white" stop-opacity="0"/>
<stop offset="0.95" stop-color="white"/>
</linearGradient>
<linearGradient id="paint20_linear" x1="7585.99" y1="4039.23" x2="7051.85" y2="6534.54" gradientUnits="userSpaceOnUse">
<stop stop-color="white" stop-opacity="0"/>
<stop offset="0.95" stop-color="white"/>
</linearGradient>
<linearGradient id="paint21_linear" x1="9923.03" y1="-37419.7" x2="11094.9" y2="-35807.3" gradientUnits="userSpaceOnUse">
<stop stop-color="white" stop-opacity="0"/>
<stop offset="0.95" stop-color="white"/>
</linearGradient>
<linearGradient id="paint22_linear" x1="305.89" y1="83.5874" x2="304.156" y2="162.623" gradientUnits="userSpaceOnUse">
<stop stop-color="white" stop-opacity="0"/>
<stop offset="0.39" stop-color="white"/>
</linearGradient>
<clipPath id="clip0">
<rect width="483" height="402" fill="white"/>
</clipPath>
</defs>
</svg>
