<svg width="582" height="388" viewBox="0 0 582 388" fill="none" xmlns="http://www.w3.org/2000/svg">
<path d="M579.429 369.025H47.7032C47.4403 369.025 47.1881 368.921 47.0022 368.735C46.8163 368.549 46.7119 368.296 46.7119 368.033V1.25551C46.7119 0.9925 46.8163 0.740265 47.0022 0.554291C47.1881 0.368318 47.4403 0.26384 47.7032 0.26384C47.9661 0.26384 48.2182 0.368318 48.4041 0.554291C48.59 0.740265 48.6944 0.9925 48.6944 1.25551V367.042H579.429C579.692 367.042 579.945 367.146 580.13 367.332C580.316 367.518 580.421 367.77 580.421 368.033C580.421 368.296 580.316 368.549 580.13 368.735C579.945 368.921 579.692 369.025 579.429 369.025Z" fill="#D1D3D4"/>
<path d="M343.572 108.792H233.226V367.002H343.572V108.792Z" fill="white"/>
<path d="M343.552 108.792V367.002H233.226V108.792H343.552ZM343.552 106.809H233.226C232.7 106.809 232.196 107.017 231.824 107.389C231.452 107.761 231.243 108.266 231.243 108.792V367.002C231.243 367.528 231.452 368.032 231.824 368.404C232.196 368.776 232.7 368.985 233.226 368.985H343.552C344.078 368.985 344.582 368.776 344.954 368.404C345.325 368.032 345.534 367.528 345.534 367.002V108.792C345.534 108.266 345.325 107.761 344.954 107.389C344.582 107.017 344.078 106.809 343.552 106.809Z" fill="#231F20"/>
<path d="M192.207 196.059H81.8616V367.002H192.207V196.059Z" fill="white"/>
<path d="M192.208 196.058V367.002H81.8617V196.058H192.208ZM192.208 194.075H81.8617C81.3359 194.075 80.8316 194.284 80.4598 194.656C80.088 195.028 79.8792 195.532 79.8792 196.058V367.002C79.8792 367.528 80.088 368.032 80.4598 368.404C80.8316 368.776 81.3359 368.985 81.8617 368.985H192.208C192.733 368.985 193.238 368.776 193.609 368.404C193.981 368.032 194.19 367.528 194.19 367.002V196.058C194.19 195.532 193.981 195.028 193.609 194.656C193.238 194.284 192.733 194.075 192.208 194.075Z" fill="#231F20"/>
<path d="M494.935 7.80051H384.589V367.002H494.935V7.80051Z" fill="white"/>
<path d="M494.916 7.80053V367.002H384.589V7.80053H494.916ZM494.916 5.81719H384.589C384.064 5.81719 383.559 6.02615 383.188 6.3981C382.816 6.77004 382.607 7.27451 382.607 7.80053V367.002C382.607 367.528 382.816 368.032 383.188 368.404C383.559 368.776 384.064 368.985 384.589 368.985H494.916C495.441 368.985 495.946 368.776 496.317 368.404C496.689 368.032 496.898 367.528 496.898 367.002V7.80053C496.898 7.27451 496.689 6.77004 496.317 6.3981C495.946 6.02615 495.441 5.81719 494.916 5.81719Z" fill="#231F20"/>
<path d="M451.618 60.101L428.839 69.4227L457.129 82.5325L451.618 60.101Z" fill="#6ECDBA"/>
<path d="M306.36 333.741C310.338 330.182 314.838 327.252 319.702 325.054C320.099 339.315 314.31 352.444 308.957 361.429H291.571" fill="white"/>
<path d="M308.957 362.421H291.57C291.307 362.421 291.055 362.316 290.869 362.13C290.684 361.944 290.579 361.692 290.579 361.429C290.579 361.166 290.684 360.914 290.869 360.728C291.055 360.542 291.307 360.437 291.57 360.437H308.342C313.14 352.246 318.632 339.969 318.671 326.582C314.433 328.698 310.494 331.366 306.955 334.515C306.769 334.697 306.52 334.799 306.261 334.799C306.001 334.799 305.752 334.697 305.567 334.515C305.474 334.423 305.4 334.313 305.35 334.192C305.3 334.071 305.274 333.942 305.274 333.811C305.274 333.68 305.3 333.55 305.35 333.43C305.4 333.309 305.474 333.199 305.567 333.107C309.621 329.459 314.215 326.462 319.187 324.222C319.328 324.149 319.484 324.11 319.643 324.11C319.801 324.11 319.958 324.149 320.099 324.222C320.232 324.309 320.342 324.426 320.421 324.564C320.501 324.702 320.546 324.856 320.555 325.015C320.971 339.731 314.865 353.218 309.671 361.925C309.6 362.058 309.498 362.173 309.374 362.259C309.25 362.345 309.107 362.4 308.957 362.421Z" fill="#231F20"/>
<path d="M281.42 337.589C285.702 315.277 303.227 301.235 303.227 301.235C306.486 311.741 307.565 322.803 306.399 333.741C305.52 343.2 303.524 352.52 300.452 361.508H281.757" fill="white"/>
<path d="M300.412 362.42H281.717C281.455 362.42 281.202 362.316 281.017 362.13C280.831 361.944 280.726 361.692 280.726 361.429C280.726 361.166 280.831 360.914 281.017 360.728C281.202 360.542 281.455 360.437 281.717 360.437H299.719C302.65 351.762 304.572 342.778 305.448 333.662C306.54 323.358 305.631 312.939 302.772 302.98C298.807 306.49 286.019 319.323 282.491 337.768C282.438 338.027 282.286 338.254 282.067 338.403C281.849 338.551 281.581 338.608 281.321 338.561C281.062 338.508 280.834 338.356 280.686 338.137C280.538 337.919 280.481 337.651 280.528 337.391C284.83 314.979 302.474 300.62 302.653 300.461C302.777 300.364 302.923 300.297 303.078 300.266C303.232 300.235 303.392 300.241 303.545 300.283C303.699 300.33 303.839 300.415 303.953 300.529C304.067 300.643 304.151 300.783 304.199 300.937C307.517 311.568 308.617 322.767 307.43 333.841C306.515 343.349 304.479 352.716 301.364 361.746C301.294 361.943 301.166 362.114 300.995 362.234C300.825 362.355 300.621 362.42 300.412 362.42Z" fill="#231F20"/>
<path d="M272.182 361.429H288.755C288.914 356.53 287.804 349.092 282.491 339.453C282.114 338.799 281.777 338.184 281.42 337.589C271.825 321.326 263.042 321.504 263.042 321.504C259.335 338.62 267.166 353.872 272.182 361.429Z" fill="white"/>
<path d="M288.755 362.421H272.182C272.021 362.421 271.862 362.381 271.72 362.305C271.578 362.229 271.458 362.119 271.369 361.984C266.274 354.289 258.284 338.779 262.071 321.306C262.119 321.087 262.239 320.89 262.411 320.746C262.583 320.603 262.798 320.521 263.023 320.513C263.399 320.513 272.479 320.513 282.273 337.074L283.343 339.057C288.914 349.152 289.905 356.907 289.747 361.568C289.713 361.806 289.594 362.024 289.411 362.181C289.229 362.338 288.996 362.423 288.755 362.421ZM272.717 360.437H287.784C287.479 353.192 285.359 346.14 281.618 339.93L280.568 338.085C273.074 325.392 266.115 323.032 263.835 322.595C260.762 338.68 267.88 353 272.657 360.437H272.717Z" fill="#231F20"/>
<path d="M275.195 387.708H307.708L312.922 361.429H269.961L275.195 387.708Z" fill="#231F20"/>
<path d="M66.3188 368.886H1.57035C1.30746 368.886 1.05533 368.782 0.869439 368.596C0.683543 368.41 0.579102 368.158 0.579102 367.895C0.579102 367.631 0.683543 367.379 0.869439 367.193C1.05533 367.007 1.30746 366.903 1.57035 366.903H66.3188C66.5817 366.903 66.8338 367.007 67.0197 367.193C67.2056 367.379 67.3101 367.631 67.3101 367.895C67.3101 368.158 67.2056 368.41 67.0197 368.596C66.8338 368.782 66.5817 368.886 66.3188 368.886Z" fill="#D1D3D4"/>
<path d="M54.2456 362.698C53.6685 362.704 53.1027 362.538 52.6199 362.222C51.9616 361.792 51.5002 361.119 51.3367 360.35C51.1733 359.58 51.321 358.777 51.7476 358.117L139.255 222.417C139.501 222.036 139.831 221.717 140.219 221.483C140.607 221.249 141.044 221.108 141.495 221.068C141.946 221.025 142.401 221.086 142.824 221.248C143.247 221.41 143.627 221.667 143.934 222L212.826 296.633L292.621 150.144C292.854 149.714 293.189 149.347 293.597 149.078C294.005 148.808 294.474 148.643 294.961 148.597C295.447 148.555 295.935 148.633 296.385 148.823C296.834 149.013 297.23 149.31 297.538 149.688L367.917 236.261L453.977 95.7018C454.391 95.0323 455.053 94.5541 455.818 94.3719C456.584 94.1898 457.39 94.3185 458.061 94.73C458.396 94.9312 458.688 95.1975 458.919 95.5132C459.15 95.8288 459.316 96.1876 459.407 96.5682C459.497 96.9489 459.511 97.3438 459.446 97.7297C459.382 98.1157 459.241 98.4849 459.032 98.8157L370.791 243.083C370.543 243.489 370.201 243.829 369.794 244.074C369.387 244.319 368.926 244.462 368.452 244.492C367.978 244.525 367.504 244.444 367.069 244.254C366.634 244.064 366.251 243.771 365.954 243.401L295.714 157.026L216.057 303.258C215.831 303.672 215.511 304.026 215.121 304.291C214.732 304.557 214.285 304.726 213.817 304.785C213.348 304.836 212.873 304.779 212.429 304.617C211.986 304.456 211.586 304.194 211.26 303.853L142.169 228.962L56.7435 361.449C56.46 361.844 56.0844 362.165 55.6491 362.383C55.2139 362.6 54.7321 362.709 54.2456 362.698Z" fill="#6ECDBA"/>
<path d="M538.123 320.936L555.704 311.943L480.174 164.155L462.592 173.147L538.123 320.936Z" fill="#231F20"/>
<path d="M537.48 321.247L461.946 173.449C461.862 173.282 461.846 173.09 461.901 172.912C461.957 172.734 462.08 172.585 462.244 172.497L479.829 163.492C479.913 163.448 480.005 163.421 480.1 163.413C480.195 163.405 480.291 163.416 480.381 163.446C480.472 163.476 480.555 163.523 480.627 163.585C480.699 163.648 480.758 163.724 480.8 163.81L556.313 311.608C556.361 311.689 556.391 311.779 556.401 311.872C556.412 311.965 556.403 312.06 556.375 312.149C556.347 312.239 556.301 312.322 556.239 312.392C556.177 312.463 556.101 312.52 556.016 312.56L538.431 321.564C538.259 321.631 538.068 321.631 537.896 321.564C537.809 321.541 537.727 321.502 537.656 321.447C537.584 321.393 537.524 321.325 537.48 321.247ZM479.848 165.099L463.532 173.429L538.411 319.957L554.727 311.627L479.848 165.099Z" fill="#231F20"/>
<path d="M561.431 352.618L567.68 349.421C575.069 345.642 577.997 336.585 574.219 329.192L526.061 234.963C522.283 227.571 513.23 224.642 505.84 228.422L499.592 231.618C492.202 235.398 489.274 244.455 493.053 251.847L541.21 346.076C544.988 353.468 554.041 356.397 561.431 352.618Z" fill="#231F20"/>
<path d="M440.932 226.066C417.127 226.07 394.057 217.815 375.653 202.709C357.249 187.603 344.651 166.581 340.004 143.223C335.358 119.866 338.95 95.6196 350.17 74.6154C361.391 53.6113 379.544 37.1491 401.536 28.0341C423.529 18.9191 448.001 17.7152 470.781 24.6276C493.562 31.54 513.242 46.141 526.467 65.9426C539.693 85.7441 545.647 109.521 543.313 133.222C540.98 156.922 530.503 179.08 513.67 195.92C504.14 205.506 492.805 213.107 480.319 218.282C467.834 223.456 454.447 226.102 440.932 226.066ZM440.932 22.1995C420.973 22.1969 401.462 28.1155 384.866 39.2068C368.27 50.2981 355.334 66.0639 347.694 84.5104C340.055 102.957 338.055 123.255 341.947 142.839C345.84 162.423 355.45 180.412 369.562 194.531C381.296 206.26 395.739 214.914 411.613 219.726C427.487 224.538 444.303 225.361 460.57 222.12C476.838 218.88 492.056 211.678 504.878 201.15C517.699 190.622 527.729 177.095 534.077 161.764C540.426 146.434 542.899 129.774 541.277 113.26C539.655 96.7457 533.988 80.8861 524.777 67.0856C515.567 53.2851 503.097 41.9692 488.472 34.14C473.848 26.3107 457.519 22.2095 440.932 22.1995Z" fill="#231F20"/>
<path d="M368.392 195.721C351.575 178.926 341.1 156.815 338.753 133.159C336.406 109.502 342.333 85.7629 355.522 65.9881C368.712 46.2133 388.349 31.6267 411.085 24.7144C433.821 17.8021 458.25 18.992 480.208 28.0813C502.166 37.1706 520.293 53.5967 531.5 74.5599C542.707 95.523 546.3 119.726 541.667 143.042C537.034 166.359 524.462 187.347 506.093 202.429C487.724 217.51 464.695 225.752 440.932 225.749C413.732 225.744 387.644 214.945 368.392 195.721Z" fill="white"/>
<path d="M440.932 226.721C416.977 226.705 393.769 218.379 375.261 203.164C356.754 187.948 344.092 166.784 339.434 143.276C334.775 119.769 338.408 95.3726 349.713 74.2442C361.018 53.1157 379.296 36.5622 401.433 27.4041C423.57 18.2459 448.196 17.0497 471.116 24.0192C494.035 30.9886 513.831 45.6926 527.129 65.626C540.427 85.5593 546.405 109.489 544.045 133.337C541.685 157.186 531.132 179.478 514.185 196.416C504.588 206.066 493.171 213.714 480.596 218.917C468.022 224.119 454.54 226.771 440.932 226.721ZM440.932 21.545C417.437 21.5587 394.673 29.7214 376.519 44.6425C358.364 59.5636 345.943 80.32 341.37 103.376C336.797 126.431 340.356 150.36 351.44 171.085C362.524 191.81 380.448 208.05 402.158 217.037C423.868 226.024 448.021 227.203 470.503 220.373C492.984 213.543 512.404 199.127 525.452 179.58C538.501 160.033 544.371 136.564 542.064 113.173C539.756 89.7811 529.414 67.9134 512.798 51.295C503.368 41.8444 492.165 34.3511 479.832 29.2456C467.499 24.1401 454.279 21.5231 440.932 21.545Z" fill="#231F20"/>
<path d="M496.184 67.8955C488.93 60.6353 480.317 54.8757 470.837 50.9455C461.358 47.0153 451.198 44.9915 440.936 44.9897C420.213 44.986 400.336 53.2183 385.68 67.8757C371.023 82.533 362.787 102.415 362.784 123.147C362.78 143.879 371.009 163.764 385.66 178.427L386.949 179.676C393.984 186.448 402.247 191.813 411.294 195.483C427.992 202.34 446.548 203.2 463.808 197.916C481.069 192.633 495.967 181.532 505.971 166.502C515.974 151.471 520.466 133.438 518.682 115.469C516.898 97.4998 508.948 80.7034 496.184 67.9352V67.8955Z" fill="white"/>
<path d="M440.932 45.0277C452.456 45.0472 463.833 47.6182 474.246 52.556C484.66 57.4939 493.852 64.6763 501.163 73.5879C508.474 82.4995 513.722 92.9194 516.533 104.1C519.343 115.281 519.645 126.945 517.416 138.257C515.188 149.568 510.485 160.245 503.645 169.524C496.805 178.802 487.996 186.45 477.852 191.92C467.708 197.391 456.479 200.547 444.972 201.163C433.464 201.779 421.963 199.839 411.294 195.483C402.256 191.79 394.007 186.405 386.988 179.617L385.7 178.367C374.776 167.439 367.336 153.515 364.322 138.357C361.309 123.198 362.855 107.486 368.767 93.2073C374.679 78.9285 384.691 66.7242 397.536 58.1377C410.381 49.5512 425.483 44.9682 440.932 44.9682V45.0277ZM440.932 42.9848C425.098 42.9904 409.62 47.6914 396.455 56.4937C383.291 65.296 373.029 77.8047 366.968 92.4392C360.906 107.074 359.317 123.177 362.401 138.715C365.484 154.253 373.102 168.528 384.292 179.736L385.64 181.025C392.836 187.949 401.287 193.436 410.54 197.189C421.484 201.687 433.289 203.703 445.105 203.092C456.921 202.48 468.455 199.257 478.876 193.653C489.298 188.05 498.349 180.205 505.379 170.684C512.408 161.163 517.241 150.201 519.53 138.588C521.819 126.975 521.506 114.999 518.616 103.521C515.725 92.0426 510.328 81.3481 502.812 72.2062C495.296 63.0644 485.849 55.7024 475.149 50.6497C464.45 45.5971 452.764 42.9794 440.932 42.9848Z" fill="#231F20"/>
<path d="M475.645 79.0418L471.938 164.821C471.911 165.48 471.713 166.12 471.364 166.679C471.015 167.238 470.527 167.697 469.947 168.011C469.368 168.325 468.717 168.483 468.058 168.469C467.399 168.456 466.755 168.272 466.189 167.935L441.011 152.901L411.274 195.444C402.246 191.76 394.004 186.389 386.988 179.617L416.091 137.967L389.208 122.1C388.62 121.75 388.138 121.247 387.811 120.646C387.485 120.044 387.326 119.366 387.353 118.681C387.379 117.997 387.589 117.333 387.961 116.758C388.333 116.184 388.853 115.72 389.466 115.416L470.174 75.5512C470.759 75.2661 471.408 75.136 472.058 75.1734C472.708 75.2107 473.337 75.4142 473.886 75.7644C474.435 76.1145 474.885 76.5997 475.193 77.1735C475.501 77.7474 475.657 78.3906 475.645 79.0418Z" fill="#6ECDBA"/>
<path d="M297.181 165.099C305.031 165.099 311.395 158.732 311.395 150.878C311.395 143.024 305.031 136.658 297.181 136.658C289.33 136.658 282.966 143.024 282.966 150.878C282.966 158.732 289.33 165.099 297.181 165.099Z" fill="#6ECDBA"/>
<path d="M143.716 237.51C151.566 237.51 157.93 231.143 157.93 223.29C157.93 215.436 151.566 209.069 143.716 209.069C135.865 209.069 129.501 215.436 129.501 223.29C129.501 231.143 135.865 237.51 143.716 237.51Z" fill="#6ECDBA"/>
<path d="M153.866 130.688H88.9788C88.7175 130.683 88.4683 130.577 88.2835 130.392C88.0987 130.207 87.9926 129.958 87.9875 129.696C87.9875 129.433 88.092 129.181 88.2779 128.995C88.4638 128.809 88.7159 128.704 88.9788 128.704H153.866C154.129 128.704 154.381 128.809 154.567 128.995C154.753 129.181 154.857 129.433 154.857 129.696C154.852 129.958 154.746 130.207 154.561 130.392C154.377 130.577 154.127 130.683 153.866 130.688Z" fill="#D1D3D4"/>
<path d="M192.208 109.784H88.9788C88.7175 109.778 88.4683 109.672 88.2835 109.487C88.0987 109.303 87.9926 109.053 87.9875 108.792C87.9875 108.529 88.092 108.277 88.2779 108.091C88.4638 107.905 88.7159 107.8 88.9788 107.8H192.208C192.47 107.8 192.723 107.905 192.909 108.091C193.094 108.277 193.199 108.529 193.199 108.792C193.194 109.053 193.088 109.303 192.903 109.487C192.718 109.672 192.469 109.778 192.208 109.784Z" fill="#D1D3D4"/>
<path d="M192.208 88.8792H88.9788C88.7159 88.8792 88.4638 88.7747 88.2779 88.5887C88.092 88.4028 87.9875 88.1505 87.9875 87.8875C87.9875 87.6245 88.092 87.3723 88.2779 87.1863C88.4638 87.0003 88.7159 86.8958 88.9788 86.8958H192.208C192.47 86.8958 192.723 87.0003 192.909 87.1863C193.094 87.3723 193.199 87.6245 193.199 87.8875C193.199 88.1505 193.094 88.4028 192.909 88.5887C192.723 88.7747 192.47 88.8792 192.208 88.8792Z" fill="#D1D3D4"/>
<path d="M192.208 67.9748H88.9788C88.7159 67.9748 88.4638 67.8704 88.2779 67.6844C88.092 67.4984 87.9875 67.2462 87.9875 66.9832C87.9875 66.7202 88.092 66.4679 88.2779 66.282C88.4638 66.096 88.7159 65.9915 88.9788 65.9915H192.208C192.47 65.9915 192.723 66.096 192.909 66.282C193.094 66.4679 193.199 66.7202 193.199 66.9832C193.199 67.2462 193.094 67.4984 192.909 67.6844C192.723 67.8704 192.47 67.9748 192.208 67.9748Z" fill="#D1D3D4"/>
<path d="M192.208 47.0705H88.9788C88.7159 47.0705 88.4638 46.966 88.2779 46.7801C88.092 46.5941 87.9875 46.3419 87.9875 46.0788C87.9926 45.8174 88.0987 45.5682 88.2835 45.3833C88.4683 45.1984 88.7175 45.0923 88.9788 45.0872H192.208C192.469 45.0923 192.718 45.1984 192.903 45.3833C193.088 45.5682 193.194 45.8174 193.199 46.0788C193.199 46.3419 193.094 46.5941 192.909 46.7801C192.723 46.966 192.47 47.0705 192.208 47.0705Z" fill="#D1D3D4"/>
</svg>
