<svg width="41" height="41" viewBox="0 0 41 41" fill="none" xmlns="http://www.w3.org/2000/svg">
<path d="M20.4814 13.8122C16.809 13.8122 13.8121 16.8091 13.8121 20.4816C13.8121 24.154 16.809 27.1509 20.4814 27.1509C24.1539 27.1509 27.1508 24.154 27.1508 20.4816C27.1508 16.8091 24.1539 13.8122 20.4814 13.8122ZM40.4846 20.4816C40.4846 17.7197 40.5096 14.9829 40.3545 12.2261C40.1994 9.02403 39.4689 6.18217 37.1274 3.84063C34.7808 1.49409 31.944 0.768609 28.7419 0.613507C25.9801 0.458405 23.2433 0.483422 20.4864 0.483422C17.7246 0.483422 14.9878 0.458405 12.231 0.613507C9.02892 0.768609 6.18705 1.49909 3.84551 3.84063C1.49897 6.18717 0.773492 9.02403 0.61839 12.2261C0.463288 14.988 0.488305 17.7247 0.488305 20.4816C0.488305 23.2384 0.463288 25.9802 0.61839 28.737C0.773492 31.9391 1.50397 34.781 3.84551 37.1225C6.19205 39.469 9.02892 40.1945 12.231 40.3496C14.9928 40.5047 17.7296 40.4797 20.4864 40.4797C23.2483 40.4797 25.9851 40.5047 28.7419 40.3496C31.944 40.1945 34.7858 39.464 37.1274 37.1225C39.4739 34.7759 40.1994 31.9391 40.3545 28.737C40.5146 25.9802 40.4846 23.2434 40.4846 20.4816ZM20.4814 30.7433C14.8027 30.7433 10.2197 26.1603 10.2197 20.4816C10.2197 14.8028 14.8027 10.2198 20.4814 10.2198C26.1602 10.2198 30.7432 14.8028 30.7432 20.4816C30.7432 26.1603 26.1602 30.7433 20.4814 30.7433ZM31.1635 12.1961C29.8376 12.1961 28.7669 11.1254 28.7669 9.79954C28.7669 8.47367 29.8376 7.40297 31.1635 7.40297C32.4893 7.40297 33.56 8.47367 33.56 9.79954C33.5604 10.1144 33.4987 10.4262 33.3784 10.7171C33.2581 11.0081 33.0816 11.2724 32.859 11.4951C32.6364 11.7177 32.372 11.8942 32.0811 12.0145C31.7901 12.1348 31.4783 12.1965 31.1635 12.1961Z" fill="#38BDA2"/>
</svg>
